G04 #@! TF.GenerationSoftware,KiCad,Pcbnew,5.1.4+dfsg1-1*
G04 #@! TF.CreationDate,2020-05-25T13:43:52+02:00*
G04 #@! TF.ProjectId,Telemetry,54656c65-6d65-4747-9279-2e6b69636164,rev?*
G04 #@! TF.SameCoordinates,Original*
G04 #@! TF.FileFunction,Legend,Top*
G04 #@! TF.FilePolarity,Positive*
%FSLAX46Y46*%
G04 Gerber Fmt 4.6, Leading zero omitted, Abs format (unit mm)*
G04 Created by KiCad (PCBNEW 5.1.4+dfsg1-1) date 2020-05-25 13:43:52*
%MOMM*%
%LPD*%
G04 APERTURE LIST*
%ADD10C,0.150000*%
%ADD11C,0.300000*%
%ADD12C,0.120000*%
%ADD13C,0.010000*%
G04 APERTURE END LIST*
D10*
X240638095Y-112952380D02*
X240638095Y-113761904D01*
X240685714Y-113857142D01*
X240733333Y-113904761D01*
X240828571Y-113952380D01*
X241019047Y-113952380D01*
X241114285Y-113904761D01*
X241161904Y-113857142D01*
X241209523Y-113761904D01*
X241209523Y-112952380D01*
X241638095Y-113904761D02*
X241780952Y-113952380D01*
X242019047Y-113952380D01*
X242114285Y-113904761D01*
X242161904Y-113857142D01*
X242209523Y-113761904D01*
X242209523Y-113666666D01*
X242161904Y-113571428D01*
X242114285Y-113523809D01*
X242019047Y-113476190D01*
X241828571Y-113428571D01*
X241733333Y-113380952D01*
X241685714Y-113333333D01*
X241638095Y-113238095D01*
X241638095Y-113142857D01*
X241685714Y-113047619D01*
X241733333Y-113000000D01*
X241828571Y-112952380D01*
X242066666Y-112952380D01*
X242209523Y-113000000D01*
X242971428Y-113428571D02*
X243114285Y-113476190D01*
X243161904Y-113523809D01*
X243209523Y-113619047D01*
X243209523Y-113761904D01*
X243161904Y-113857142D01*
X243114285Y-113904761D01*
X243019047Y-113952380D01*
X242638095Y-113952380D01*
X242638095Y-112952380D01*
X242971428Y-112952380D01*
X243066666Y-113000000D01*
X243114285Y-113047619D01*
X243161904Y-113142857D01*
X243161904Y-113238095D01*
X243114285Y-113333333D01*
X243066666Y-113380952D01*
X242971428Y-113428571D01*
X242638095Y-113428571D01*
X200890476Y-116052380D02*
X201223809Y-117052380D01*
X201557142Y-116052380D01*
X202414285Y-117052380D02*
X201842857Y-117052380D01*
X202128571Y-117052380D02*
X202128571Y-116052380D01*
X202033333Y-116195238D01*
X201938095Y-116290476D01*
X201842857Y-116338095D01*
X184880952Y-120452380D02*
X184880952Y-121166666D01*
X184833333Y-121309523D01*
X184738095Y-121404761D01*
X184595238Y-121452380D01*
X184500000Y-121452380D01*
X185833333Y-121452380D02*
X185357142Y-121452380D01*
X185357142Y-120452380D01*
X186738095Y-121357142D02*
X186690476Y-121404761D01*
X186547619Y-121452380D01*
X186452380Y-121452380D01*
X186309523Y-121404761D01*
X186214285Y-121309523D01*
X186166666Y-121214285D01*
X186119047Y-121023809D01*
X186119047Y-120880952D01*
X186166666Y-120690476D01*
X186214285Y-120595238D01*
X186309523Y-120500000D01*
X186452380Y-120452380D01*
X186547619Y-120452380D01*
X186690476Y-120500000D01*
X186738095Y-120547619D01*
X187452380Y-120452380D02*
X187452380Y-121166666D01*
X187404761Y-121309523D01*
X187309523Y-121404761D01*
X187166666Y-121452380D01*
X187071428Y-121452380D01*
X188404761Y-121452380D02*
X187928571Y-121452380D01*
X187928571Y-120452380D01*
X189309523Y-121357142D02*
X189261904Y-121404761D01*
X189119047Y-121452380D01*
X189023809Y-121452380D01*
X188880952Y-121404761D01*
X188785714Y-121309523D01*
X188738095Y-121214285D01*
X188690476Y-121023809D01*
X188690476Y-120880952D01*
X188738095Y-120690476D01*
X188785714Y-120595238D01*
X188880952Y-120500000D01*
X189023809Y-120452380D01*
X189119047Y-120452380D01*
X189261904Y-120500000D01*
X189309523Y-120547619D01*
X190023809Y-120452380D02*
X190023809Y-121166666D01*
X189976190Y-121309523D01*
X189880952Y-121404761D01*
X189738095Y-121452380D01*
X189642857Y-121452380D01*
X190976190Y-121452380D02*
X190500000Y-121452380D01*
X190500000Y-120452380D01*
X191880952Y-121357142D02*
X191833333Y-121404761D01*
X191690476Y-121452380D01*
X191595238Y-121452380D01*
X191452380Y-121404761D01*
X191357142Y-121309523D01*
X191309523Y-121214285D01*
X191261904Y-121023809D01*
X191261904Y-120880952D01*
X191309523Y-120690476D01*
X191357142Y-120595238D01*
X191452380Y-120500000D01*
X191595238Y-120452380D01*
X191690476Y-120452380D01*
X191833333Y-120500000D01*
X191880952Y-120547619D01*
X192595238Y-120452380D02*
X192595238Y-121166666D01*
X192547619Y-121309523D01*
X192452380Y-121404761D01*
X192309523Y-121452380D01*
X192214285Y-121452380D01*
X193547619Y-121452380D02*
X193071428Y-121452380D01*
X193071428Y-120452380D01*
X194452380Y-121357142D02*
X194404761Y-121404761D01*
X194261904Y-121452380D01*
X194166666Y-121452380D01*
X194023809Y-121404761D01*
X193928571Y-121309523D01*
X193880952Y-121214285D01*
X193833333Y-121023809D01*
X193833333Y-120880952D01*
X193880952Y-120690476D01*
X193928571Y-120595238D01*
X194023809Y-120500000D01*
X194166666Y-120452380D01*
X194261904Y-120452380D01*
X194404761Y-120500000D01*
X194452380Y-120547619D01*
X184911785Y-118127380D02*
X184435595Y-118127380D01*
X184435595Y-117127380D01*
X185387976Y-118127380D02*
X185292738Y-118079761D01*
X185245119Y-118032142D01*
X185197500Y-117936904D01*
X185197500Y-117651190D01*
X185245119Y-117555952D01*
X185292738Y-117508333D01*
X185387976Y-117460714D01*
X185530833Y-117460714D01*
X185626071Y-117508333D01*
X185673690Y-117555952D01*
X185721309Y-117651190D01*
X185721309Y-117936904D01*
X185673690Y-118032142D01*
X185626071Y-118079761D01*
X185530833Y-118127380D01*
X185387976Y-118127380D01*
X186149880Y-117460714D02*
X186149880Y-118127380D01*
X186149880Y-117555952D02*
X186197500Y-117508333D01*
X186292738Y-117460714D01*
X186435595Y-117460714D01*
X186530833Y-117508333D01*
X186578452Y-117603571D01*
X186578452Y-118127380D01*
X187483214Y-117460714D02*
X187483214Y-118270238D01*
X187435595Y-118365476D01*
X187387976Y-118413095D01*
X187292738Y-118460714D01*
X187149880Y-118460714D01*
X187054642Y-118413095D01*
X187483214Y-118079761D02*
X187387976Y-118127380D01*
X187197500Y-118127380D01*
X187102261Y-118079761D01*
X187054642Y-118032142D01*
X187007023Y-117936904D01*
X187007023Y-117651190D01*
X187054642Y-117555952D01*
X187102261Y-117508333D01*
X187197500Y-117460714D01*
X187387976Y-117460714D01*
X187483214Y-117508333D01*
X188721309Y-118127380D02*
X188721309Y-117460714D01*
X188721309Y-117651190D02*
X188768928Y-117555952D01*
X188816547Y-117508333D01*
X188911785Y-117460714D01*
X189007023Y-117460714D01*
X189768928Y-118127380D02*
X189768928Y-117603571D01*
X189721309Y-117508333D01*
X189626071Y-117460714D01*
X189435595Y-117460714D01*
X189340357Y-117508333D01*
X189768928Y-118079761D02*
X189673690Y-118127380D01*
X189435595Y-118127380D01*
X189340357Y-118079761D01*
X189292738Y-117984523D01*
X189292738Y-117889285D01*
X189340357Y-117794047D01*
X189435595Y-117746428D01*
X189673690Y-117746428D01*
X189768928Y-117698809D01*
X190245119Y-117460714D02*
X190245119Y-118127380D01*
X190245119Y-117555952D02*
X190292738Y-117508333D01*
X190387976Y-117460714D01*
X190530833Y-117460714D01*
X190626071Y-117508333D01*
X190673690Y-117603571D01*
X190673690Y-118127380D01*
X191578452Y-117460714D02*
X191578452Y-118270238D01*
X191530833Y-118365476D01*
X191483214Y-118413095D01*
X191387976Y-118460714D01*
X191245119Y-118460714D01*
X191149880Y-118413095D01*
X191578452Y-118079761D02*
X191483214Y-118127380D01*
X191292738Y-118127380D01*
X191197500Y-118079761D01*
X191149880Y-118032142D01*
X191102261Y-117936904D01*
X191102261Y-117651190D01*
X191149880Y-117555952D01*
X191197500Y-117508333D01*
X191292738Y-117460714D01*
X191483214Y-117460714D01*
X191578452Y-117508333D01*
X192435595Y-118079761D02*
X192340357Y-118127380D01*
X192149880Y-118127380D01*
X192054642Y-118079761D01*
X192007023Y-117984523D01*
X192007023Y-117603571D01*
X192054642Y-117508333D01*
X192149880Y-117460714D01*
X192340357Y-117460714D01*
X192435595Y-117508333D01*
X192483214Y-117603571D01*
X192483214Y-117698809D01*
X192007023Y-117794047D01*
X193578452Y-117460714D02*
X193768928Y-118127380D01*
X193959404Y-117651190D01*
X194149880Y-118127380D01*
X194340357Y-117460714D01*
X194721309Y-118127380D02*
X194721309Y-117460714D01*
X194721309Y-117127380D02*
X194673690Y-117175000D01*
X194721309Y-117222619D01*
X194768928Y-117175000D01*
X194721309Y-117127380D01*
X194721309Y-117222619D01*
X195197500Y-118127380D02*
X195197500Y-117460714D01*
X195197500Y-117651190D02*
X195245119Y-117555952D01*
X195292738Y-117508333D01*
X195387976Y-117460714D01*
X195483214Y-117460714D01*
X196197500Y-118079761D02*
X196102261Y-118127380D01*
X195911785Y-118127380D01*
X195816547Y-118079761D01*
X195768928Y-117984523D01*
X195768928Y-117603571D01*
X195816547Y-117508333D01*
X195911785Y-117460714D01*
X196102261Y-117460714D01*
X196197500Y-117508333D01*
X196245119Y-117603571D01*
X196245119Y-117698809D01*
X195768928Y-117794047D01*
X196816547Y-118127380D02*
X196721309Y-118079761D01*
X196673690Y-117984523D01*
X196673690Y-117127380D01*
X197578452Y-118079761D02*
X197483214Y-118127380D01*
X197292738Y-118127380D01*
X197197500Y-118079761D01*
X197149880Y-117984523D01*
X197149880Y-117603571D01*
X197197500Y-117508333D01*
X197292738Y-117460714D01*
X197483214Y-117460714D01*
X197578452Y-117508333D01*
X197626071Y-117603571D01*
X197626071Y-117698809D01*
X197149880Y-117794047D01*
X198007023Y-118079761D02*
X198102261Y-118127380D01*
X198292738Y-118127380D01*
X198387976Y-118079761D01*
X198435595Y-117984523D01*
X198435595Y-117936904D01*
X198387976Y-117841666D01*
X198292738Y-117794047D01*
X198149880Y-117794047D01*
X198054642Y-117746428D01*
X198007023Y-117651190D01*
X198007023Y-117603571D01*
X198054642Y-117508333D01*
X198149880Y-117460714D01*
X198292738Y-117460714D01*
X198387976Y-117508333D01*
X198816547Y-118079761D02*
X198911785Y-118127380D01*
X199102261Y-118127380D01*
X199197500Y-118079761D01*
X199245119Y-117984523D01*
X199245119Y-117936904D01*
X199197500Y-117841666D01*
X199102261Y-117794047D01*
X198959404Y-117794047D01*
X198864166Y-117746428D01*
X198816547Y-117651190D01*
X198816547Y-117603571D01*
X198864166Y-117508333D01*
X198959404Y-117460714D01*
X199102261Y-117460714D01*
X199197500Y-117508333D01*
X185007023Y-119682142D02*
X184959404Y-119729761D01*
X184816547Y-119777380D01*
X184721309Y-119777380D01*
X184578452Y-119729761D01*
X184483214Y-119634523D01*
X184435595Y-119539285D01*
X184387976Y-119348809D01*
X184387976Y-119205952D01*
X184435595Y-119015476D01*
X184483214Y-118920238D01*
X184578452Y-118825000D01*
X184721309Y-118777380D01*
X184816547Y-118777380D01*
X184959404Y-118825000D01*
X185007023Y-118872619D01*
X185387976Y-119491666D02*
X185864166Y-119491666D01*
X185292738Y-119777380D02*
X185626071Y-118777380D01*
X185959404Y-119777380D01*
X186292738Y-119777380D02*
X186292738Y-118777380D01*
X186864166Y-119777380D01*
X186864166Y-118777380D01*
X187959404Y-119110714D02*
X188340357Y-119110714D01*
X188102261Y-118777380D02*
X188102261Y-119634523D01*
X188149880Y-119729761D01*
X188245119Y-119777380D01*
X188340357Y-119777380D01*
X188816547Y-119777380D02*
X188721309Y-119729761D01*
X188673690Y-119682142D01*
X188626071Y-119586904D01*
X188626071Y-119301190D01*
X188673690Y-119205952D01*
X188721309Y-119158333D01*
X188816547Y-119110714D01*
X188959404Y-119110714D01*
X189054642Y-119158333D01*
X189102261Y-119205952D01*
X189149880Y-119301190D01*
X189149880Y-119586904D01*
X189102261Y-119682142D01*
X189054642Y-119729761D01*
X188959404Y-119777380D01*
X188816547Y-119777380D01*
X190340357Y-118777380D02*
X190340357Y-119586904D01*
X190387976Y-119682142D01*
X190435595Y-119729761D01*
X190530833Y-119777380D01*
X190721309Y-119777380D01*
X190816547Y-119729761D01*
X190864166Y-119682142D01*
X190911785Y-119586904D01*
X190911785Y-118777380D01*
X191340357Y-119729761D02*
X191483214Y-119777380D01*
X191721309Y-119777380D01*
X191816547Y-119729761D01*
X191864166Y-119682142D01*
X191911785Y-119586904D01*
X191911785Y-119491666D01*
X191864166Y-119396428D01*
X191816547Y-119348809D01*
X191721309Y-119301190D01*
X191530833Y-119253571D01*
X191435595Y-119205952D01*
X191387976Y-119158333D01*
X191340357Y-119063095D01*
X191340357Y-118967857D01*
X191387976Y-118872619D01*
X191435595Y-118825000D01*
X191530833Y-118777380D01*
X191768928Y-118777380D01*
X191911785Y-118825000D01*
X192673690Y-119253571D02*
X192816547Y-119301190D01*
X192864166Y-119348809D01*
X192911785Y-119444047D01*
X192911785Y-119586904D01*
X192864166Y-119682142D01*
X192816547Y-119729761D01*
X192721309Y-119777380D01*
X192340357Y-119777380D01*
X192340357Y-118777380D01*
X192673690Y-118777380D01*
X192768928Y-118825000D01*
X192816547Y-118872619D01*
X192864166Y-118967857D01*
X192864166Y-119063095D01*
X192816547Y-119158333D01*
X192768928Y-119205952D01*
X192673690Y-119253571D01*
X192340357Y-119253571D01*
X193959404Y-118777380D02*
X194530833Y-118777380D01*
X194245119Y-119777380D02*
X194245119Y-118777380D01*
X194864166Y-119777380D02*
X194864166Y-119110714D01*
X194864166Y-119301190D02*
X194911785Y-119205952D01*
X194959404Y-119158333D01*
X195054642Y-119110714D01*
X195149880Y-119110714D01*
X195911785Y-119777380D02*
X195911785Y-119253571D01*
X195864166Y-119158333D01*
X195768928Y-119110714D01*
X195578452Y-119110714D01*
X195483214Y-119158333D01*
X195911785Y-119729761D02*
X195816547Y-119777380D01*
X195578452Y-119777380D01*
X195483214Y-119729761D01*
X195435595Y-119634523D01*
X195435595Y-119539285D01*
X195483214Y-119444047D01*
X195578452Y-119396428D01*
X195816547Y-119396428D01*
X195911785Y-119348809D01*
X196387976Y-119110714D02*
X196387976Y-119777380D01*
X196387976Y-119205952D02*
X196435595Y-119158333D01*
X196530833Y-119110714D01*
X196673690Y-119110714D01*
X196768928Y-119158333D01*
X196816547Y-119253571D01*
X196816547Y-119777380D01*
X197245119Y-119729761D02*
X197340357Y-119777380D01*
X197530833Y-119777380D01*
X197626071Y-119729761D01*
X197673690Y-119634523D01*
X197673690Y-119586904D01*
X197626071Y-119491666D01*
X197530833Y-119444047D01*
X197387976Y-119444047D01*
X197292738Y-119396428D01*
X197245119Y-119301190D01*
X197245119Y-119253571D01*
X197292738Y-119158333D01*
X197387976Y-119110714D01*
X197530833Y-119110714D01*
X197626071Y-119158333D01*
X198530833Y-119729761D02*
X198435595Y-119777380D01*
X198245119Y-119777380D01*
X198149880Y-119729761D01*
X198102261Y-119682142D01*
X198054642Y-119586904D01*
X198054642Y-119301190D01*
X198102261Y-119205952D01*
X198149880Y-119158333D01*
X198245119Y-119110714D01*
X198435595Y-119110714D01*
X198530833Y-119158333D01*
X198959404Y-119777380D02*
X198959404Y-119110714D01*
X198959404Y-118777380D02*
X198911785Y-118825000D01*
X198959404Y-118872619D01*
X199007023Y-118825000D01*
X198959404Y-118777380D01*
X198959404Y-118872619D01*
X199816547Y-119729761D02*
X199721309Y-119777380D01*
X199530833Y-119777380D01*
X199435595Y-119729761D01*
X199387976Y-119634523D01*
X199387976Y-119253571D01*
X199435595Y-119158333D01*
X199530833Y-119110714D01*
X199721309Y-119110714D01*
X199816547Y-119158333D01*
X199864166Y-119253571D01*
X199864166Y-119348809D01*
X199387976Y-119444047D01*
X200197500Y-119110714D02*
X200435595Y-119777380D01*
X200673690Y-119110714D01*
X201435595Y-119729761D02*
X201340357Y-119777380D01*
X201149880Y-119777380D01*
X201054642Y-119729761D01*
X201007023Y-119634523D01*
X201007023Y-119253571D01*
X201054642Y-119158333D01*
X201149880Y-119110714D01*
X201340357Y-119110714D01*
X201435595Y-119158333D01*
X201483214Y-119253571D01*
X201483214Y-119348809D01*
X201007023Y-119444047D01*
X201911785Y-119777380D02*
X201911785Y-119110714D01*
X201911785Y-119301190D02*
X201959404Y-119205952D01*
X202007023Y-119158333D01*
X202102261Y-119110714D01*
X202197500Y-119110714D01*
X184861904Y-116761904D02*
X184595238Y-116380952D01*
X184404761Y-116761904D02*
X184404761Y-115961904D01*
X184709523Y-115961904D01*
X184785714Y-116000000D01*
X184823809Y-116038095D01*
X184861904Y-116114285D01*
X184861904Y-116228571D01*
X184823809Y-116304761D01*
X184785714Y-116342857D01*
X184709523Y-116380952D01*
X184404761Y-116380952D01*
X185357142Y-115961904D02*
X185509523Y-115961904D01*
X185585714Y-116000000D01*
X185661904Y-116076190D01*
X185700000Y-116228571D01*
X185700000Y-116495238D01*
X185661904Y-116647619D01*
X185585714Y-116723809D01*
X185509523Y-116761904D01*
X185357142Y-116761904D01*
X185280952Y-116723809D01*
X185204761Y-116647619D01*
X185166666Y-116495238D01*
X185166666Y-116228571D01*
X185204761Y-116076190D01*
X185280952Y-116000000D01*
X185357142Y-115961904D01*
X186004761Y-116533333D02*
X186385714Y-116533333D01*
X185928571Y-116761904D02*
X186195238Y-115961904D01*
X186461904Y-116761904D01*
X187071428Y-116761904D02*
X187071428Y-115961904D01*
X187071428Y-116723809D02*
X186995238Y-116761904D01*
X186842857Y-116761904D01*
X186766666Y-116723809D01*
X186728571Y-116685714D01*
X186690476Y-116609523D01*
X186690476Y-116380952D01*
X186728571Y-116304761D01*
X186766666Y-116266666D01*
X186842857Y-116228571D01*
X186995238Y-116228571D01*
X187071428Y-116266666D01*
X187452380Y-116761904D02*
X187452380Y-116228571D01*
X187452380Y-116380952D02*
X187490476Y-116304761D01*
X187528571Y-116266666D01*
X187604761Y-116228571D01*
X187680952Y-116228571D01*
X188290476Y-116228571D02*
X188290476Y-116761904D01*
X187947619Y-116228571D02*
X187947619Y-116647619D01*
X187985714Y-116723809D01*
X188061904Y-116761904D01*
X188176190Y-116761904D01*
X188252380Y-116723809D01*
X188290476Y-116685714D01*
X188671428Y-116228571D02*
X188671428Y-116761904D01*
X188671428Y-116304761D02*
X188709523Y-116266666D01*
X188785714Y-116228571D01*
X188900000Y-116228571D01*
X188976190Y-116266666D01*
X189014285Y-116342857D01*
X189014285Y-116761904D01*
X189395238Y-116228571D02*
X189395238Y-116761904D01*
X189395238Y-116304761D02*
X189433333Y-116266666D01*
X189509523Y-116228571D01*
X189623809Y-116228571D01*
X189700000Y-116266666D01*
X189738095Y-116342857D01*
X189738095Y-116761904D01*
X190423809Y-116723809D02*
X190347619Y-116761904D01*
X190195238Y-116761904D01*
X190119047Y-116723809D01*
X190080952Y-116647619D01*
X190080952Y-116342857D01*
X190119047Y-116266666D01*
X190195238Y-116228571D01*
X190347619Y-116228571D01*
X190423809Y-116266666D01*
X190461904Y-116342857D01*
X190461904Y-116419047D01*
X190080952Y-116495238D01*
X190804761Y-116761904D02*
X190804761Y-116228571D01*
X190804761Y-116380952D02*
X190842857Y-116304761D01*
X190880952Y-116266666D01*
X190957142Y-116228571D01*
X191033333Y-116228571D01*
X191261904Y-116723809D02*
X191338095Y-116761904D01*
X191490476Y-116761904D01*
X191566666Y-116723809D01*
X191604761Y-116647619D01*
X191604761Y-116609523D01*
X191566666Y-116533333D01*
X191490476Y-116495238D01*
X191376190Y-116495238D01*
X191300000Y-116457142D01*
X191261904Y-116380952D01*
X191261904Y-116342857D01*
X191300000Y-116266666D01*
X191376190Y-116228571D01*
X191490476Y-116228571D01*
X191566666Y-116266666D01*
X192519047Y-116723809D02*
X192633333Y-116761904D01*
X192823809Y-116761904D01*
X192900000Y-116723809D01*
X192938095Y-116685714D01*
X192976190Y-116609523D01*
X192976190Y-116533333D01*
X192938095Y-116457142D01*
X192900000Y-116419047D01*
X192823809Y-116380952D01*
X192671428Y-116342857D01*
X192595238Y-116304761D01*
X192557142Y-116266666D01*
X192519047Y-116190476D01*
X192519047Y-116114285D01*
X192557142Y-116038095D01*
X192595238Y-116000000D01*
X192671428Y-115961904D01*
X192861904Y-115961904D01*
X192976190Y-116000000D01*
X193433333Y-116761904D02*
X193357142Y-116723809D01*
X193319047Y-116685714D01*
X193280952Y-116609523D01*
X193280952Y-116380952D01*
X193319047Y-116304761D01*
X193357142Y-116266666D01*
X193433333Y-116228571D01*
X193547619Y-116228571D01*
X193623809Y-116266666D01*
X193661904Y-116304761D01*
X193700000Y-116380952D01*
X193700000Y-116609523D01*
X193661904Y-116685714D01*
X193623809Y-116723809D01*
X193547619Y-116761904D01*
X193433333Y-116761904D01*
X194157142Y-116761904D02*
X194080952Y-116723809D01*
X194042857Y-116647619D01*
X194042857Y-115961904D01*
X194804761Y-116761904D02*
X194804761Y-116342857D01*
X194766666Y-116266666D01*
X194690476Y-116228571D01*
X194538095Y-116228571D01*
X194461904Y-116266666D01*
X194804761Y-116723809D02*
X194728571Y-116761904D01*
X194538095Y-116761904D01*
X194461904Y-116723809D01*
X194423809Y-116647619D01*
X194423809Y-116571428D01*
X194461904Y-116495238D01*
X194538095Y-116457142D01*
X194728571Y-116457142D01*
X194804761Y-116419047D01*
X195185714Y-116761904D02*
X195185714Y-116228571D01*
X195185714Y-116380952D02*
X195223809Y-116304761D01*
X195261904Y-116266666D01*
X195338095Y-116228571D01*
X195414285Y-116228571D01*
X196176190Y-115961904D02*
X196633333Y-115961904D01*
X196404761Y-116761904D02*
X196404761Y-115961904D01*
X197204761Y-116723809D02*
X197128571Y-116761904D01*
X196976190Y-116761904D01*
X196900000Y-116723809D01*
X196861904Y-116647619D01*
X196861904Y-116342857D01*
X196900000Y-116266666D01*
X196976190Y-116228571D01*
X197128571Y-116228571D01*
X197204761Y-116266666D01*
X197242857Y-116342857D01*
X197242857Y-116419047D01*
X196861904Y-116495238D01*
X197928571Y-116761904D02*
X197928571Y-116342857D01*
X197890476Y-116266666D01*
X197814285Y-116228571D01*
X197661904Y-116228571D01*
X197585714Y-116266666D01*
X197928571Y-116723809D02*
X197852380Y-116761904D01*
X197661904Y-116761904D01*
X197585714Y-116723809D01*
X197547619Y-116647619D01*
X197547619Y-116571428D01*
X197585714Y-116495238D01*
X197661904Y-116457142D01*
X197852380Y-116457142D01*
X197928571Y-116419047D01*
X198309523Y-116761904D02*
X198309523Y-116228571D01*
X198309523Y-116304761D02*
X198347619Y-116266666D01*
X198423809Y-116228571D01*
X198538095Y-116228571D01*
X198614285Y-116266666D01*
X198652380Y-116342857D01*
X198652380Y-116761904D01*
X198652380Y-116342857D02*
X198690476Y-116266666D01*
X198766666Y-116228571D01*
X198880952Y-116228571D01*
X198957142Y-116266666D01*
X198995238Y-116342857D01*
X198995238Y-116761904D01*
D11*
X184385713Y-115378571D02*
X184385713Y-113878571D01*
X184742856Y-113878571D01*
X184957141Y-113950000D01*
X185099999Y-114092857D01*
X185171427Y-114235714D01*
X185242856Y-114521428D01*
X185242856Y-114735714D01*
X185171427Y-115021428D01*
X185099999Y-115164285D01*
X184957141Y-115307142D01*
X184742856Y-115378571D01*
X184385713Y-115378571D01*
X185671427Y-113878571D02*
X186528570Y-113878571D01*
X186099999Y-115378571D02*
X186099999Y-113878571D01*
X187028570Y-113878571D02*
X187028570Y-115092857D01*
X187099999Y-115235714D01*
X187171427Y-115307142D01*
X187314284Y-115378571D01*
X187599999Y-115378571D01*
X187742856Y-115307142D01*
X187814284Y-115235714D01*
X187885713Y-115092857D01*
X187885713Y-113878571D01*
X190599999Y-115378571D02*
X190099999Y-114664285D01*
X189742856Y-115378571D02*
X189742856Y-113878571D01*
X190314284Y-113878571D01*
X190457141Y-113950000D01*
X190528570Y-114021428D01*
X190599999Y-114164285D01*
X190599999Y-114378571D01*
X190528570Y-114521428D01*
X190457141Y-114592857D01*
X190314284Y-114664285D01*
X189742856Y-114664285D01*
X191528570Y-113878571D02*
X191814284Y-113878571D01*
X191957141Y-113950000D01*
X192099999Y-114092857D01*
X192171427Y-114378571D01*
X192171427Y-114878571D01*
X192099999Y-115164285D01*
X191957141Y-115307142D01*
X191814284Y-115378571D01*
X191528570Y-115378571D01*
X191385713Y-115307142D01*
X191242856Y-115164285D01*
X191171427Y-114878571D01*
X191171427Y-114378571D01*
X191242856Y-114092857D01*
X191385713Y-113950000D01*
X191528570Y-113878571D01*
X192742856Y-114950000D02*
X193457141Y-114950000D01*
X192599999Y-115378571D02*
X193099999Y-113878571D01*
X193599999Y-115378571D01*
X194028570Y-115307142D02*
X194242856Y-115378571D01*
X194599999Y-115378571D01*
X194742856Y-115307142D01*
X194814284Y-115235714D01*
X194885713Y-115092857D01*
X194885713Y-114950000D01*
X194814284Y-114807142D01*
X194742856Y-114735714D01*
X194599999Y-114664285D01*
X194314284Y-114592857D01*
X194171427Y-114521428D01*
X194099999Y-114450000D01*
X194028570Y-114307142D01*
X194028570Y-114164285D01*
X194099999Y-114021428D01*
X194171427Y-113950000D01*
X194314284Y-113878571D01*
X194671427Y-113878571D01*
X194885713Y-113950000D01*
X195314284Y-113878571D02*
X196171427Y-113878571D01*
X195742856Y-115378571D02*
X195742856Y-113878571D01*
X197599999Y-113878571D02*
X198457141Y-113878571D01*
X198028570Y-115378571D02*
X198028570Y-113878571D01*
X199528570Y-115307142D02*
X199385713Y-115378571D01*
X199099999Y-115378571D01*
X198957141Y-115307142D01*
X198885713Y-115164285D01*
X198885713Y-114592857D01*
X198957141Y-114450000D01*
X199099999Y-114378571D01*
X199385713Y-114378571D01*
X199528570Y-114450000D01*
X199599999Y-114592857D01*
X199599999Y-114735714D01*
X198885713Y-114878571D01*
X200457141Y-115378571D02*
X200314284Y-115307142D01*
X200242856Y-115164285D01*
X200242856Y-113878571D01*
X201599999Y-115307142D02*
X201457141Y-115378571D01*
X201171427Y-115378571D01*
X201028570Y-115307142D01*
X200957141Y-115164285D01*
X200957141Y-114592857D01*
X201028570Y-114450000D01*
X201171427Y-114378571D01*
X201457141Y-114378571D01*
X201599999Y-114450000D01*
X201671427Y-114592857D01*
X201671427Y-114735714D01*
X200957141Y-114878571D01*
X202314284Y-115378571D02*
X202314284Y-114378571D01*
X202314284Y-114521428D02*
X202385713Y-114450000D01*
X202528570Y-114378571D01*
X202742856Y-114378571D01*
X202885713Y-114450000D01*
X202957141Y-114592857D01*
X202957141Y-115378571D01*
X202957141Y-114592857D02*
X203028570Y-114450000D01*
X203171427Y-114378571D01*
X203385713Y-114378571D01*
X203528570Y-114450000D01*
X203599999Y-114592857D01*
X203599999Y-115378571D01*
X204885713Y-115307142D02*
X204742856Y-115378571D01*
X204457141Y-115378571D01*
X204314284Y-115307142D01*
X204242856Y-115164285D01*
X204242856Y-114592857D01*
X204314284Y-114450000D01*
X204457141Y-114378571D01*
X204742856Y-114378571D01*
X204885713Y-114450000D01*
X204957141Y-114592857D01*
X204957141Y-114735714D01*
X204242856Y-114878571D01*
X205385713Y-114378571D02*
X205957141Y-114378571D01*
X205599999Y-113878571D02*
X205599999Y-115164285D01*
X205671427Y-115307142D01*
X205814284Y-115378571D01*
X205957141Y-115378571D01*
X206457141Y-115378571D02*
X206457141Y-114378571D01*
X206457141Y-114664285D02*
X206528570Y-114521428D01*
X206599999Y-114450000D01*
X206742856Y-114378571D01*
X206885713Y-114378571D01*
X207242856Y-114378571D02*
X207599999Y-115378571D01*
X207957141Y-114378571D02*
X207599999Y-115378571D01*
X207457141Y-115735714D01*
X207385713Y-115807142D01*
X207242856Y-115878571D01*
D10*
X240150000Y-119154761D02*
X240292857Y-119202380D01*
X240530952Y-119202380D01*
X240626190Y-119154761D01*
X240673809Y-119107142D01*
X240721428Y-119011904D01*
X240721428Y-118916666D01*
X240673809Y-118821428D01*
X240626190Y-118773809D01*
X240530952Y-118726190D01*
X240340476Y-118678571D01*
X240245238Y-118630952D01*
X240197619Y-118583333D01*
X240150000Y-118488095D01*
X240150000Y-118392857D01*
X240197619Y-118297619D01*
X240245238Y-118250000D01*
X240340476Y-118202380D01*
X240578571Y-118202380D01*
X240721428Y-118250000D01*
X241150000Y-119202380D02*
X241150000Y-118202380D01*
X241530952Y-118202380D01*
X241626190Y-118250000D01*
X241673809Y-118297619D01*
X241721428Y-118392857D01*
X241721428Y-118535714D01*
X241673809Y-118630952D01*
X241626190Y-118678571D01*
X241530952Y-118726190D01*
X241150000Y-118726190D01*
X242150000Y-119202380D02*
X242150000Y-118202380D01*
X242578571Y-118297619D02*
X242626190Y-118250000D01*
X242721428Y-118202380D01*
X242959523Y-118202380D01*
X243054761Y-118250000D01*
X243102380Y-118297619D01*
X243150000Y-118392857D01*
X243150000Y-118488095D01*
X243102380Y-118630952D01*
X242530952Y-119202380D01*
X243150000Y-119202380D01*
X230200000Y-121154761D02*
X230342857Y-121202380D01*
X230580952Y-121202380D01*
X230676190Y-121154761D01*
X230723809Y-121107142D01*
X230771428Y-121011904D01*
X230771428Y-120916666D01*
X230723809Y-120821428D01*
X230676190Y-120773809D01*
X230580952Y-120726190D01*
X230390476Y-120678571D01*
X230295238Y-120630952D01*
X230247619Y-120583333D01*
X230200000Y-120488095D01*
X230200000Y-120392857D01*
X230247619Y-120297619D01*
X230295238Y-120250000D01*
X230390476Y-120202380D01*
X230628571Y-120202380D01*
X230771428Y-120250000D01*
X231200000Y-121202380D02*
X231200000Y-120202380D01*
X231580952Y-120202380D01*
X231676190Y-120250000D01*
X231723809Y-120297619D01*
X231771428Y-120392857D01*
X231771428Y-120535714D01*
X231723809Y-120630952D01*
X231676190Y-120678571D01*
X231580952Y-120726190D01*
X231200000Y-120726190D01*
X232200000Y-121202380D02*
X232200000Y-120202380D01*
X233200000Y-121202380D02*
X232628571Y-121202380D01*
X232914285Y-121202380D02*
X232914285Y-120202380D01*
X232819047Y-120345238D01*
X232723809Y-120440476D01*
X232628571Y-120488095D01*
X227857142Y-136357142D02*
X227809523Y-136404761D01*
X227666666Y-136452380D01*
X227571428Y-136452380D01*
X227428571Y-136404761D01*
X227333333Y-136309523D01*
X227285714Y-136214285D01*
X227238095Y-136023809D01*
X227238095Y-135880952D01*
X227285714Y-135690476D01*
X227333333Y-135595238D01*
X227428571Y-135500000D01*
X227571428Y-135452380D01*
X227666666Y-135452380D01*
X227809523Y-135500000D01*
X227857142Y-135547619D01*
X228238095Y-136166666D02*
X228714285Y-136166666D01*
X228142857Y-136452380D02*
X228476190Y-135452380D01*
X228809523Y-136452380D01*
X229142857Y-136452380D02*
X229142857Y-135452380D01*
X229714285Y-136452380D01*
X229714285Y-135452380D01*
X227752380Y-107523809D02*
X226752380Y-107523809D01*
X226752380Y-107285714D01*
X226800000Y-107142857D01*
X226895238Y-107047619D01*
X226990476Y-107000000D01*
X227180952Y-106952380D01*
X227323809Y-106952380D01*
X227514285Y-107000000D01*
X227609523Y-107047619D01*
X227704761Y-107142857D01*
X227752380Y-107285714D01*
X227752380Y-107523809D01*
X227752380Y-106523809D02*
X226752380Y-106523809D01*
X226752380Y-105857142D02*
X226752380Y-105666666D01*
X226800000Y-105571428D01*
X226895238Y-105476190D01*
X227085714Y-105428571D01*
X227419047Y-105428571D01*
X227609523Y-105476190D01*
X227704761Y-105571428D01*
X227752380Y-105666666D01*
X227752380Y-105857142D01*
X227704761Y-105952380D01*
X227609523Y-106047619D01*
X227419047Y-106095238D01*
X227085714Y-106095238D01*
X226895238Y-106047619D01*
X226800000Y-105952380D01*
X226752380Y-105857142D01*
X224957142Y-107295238D02*
X225004761Y-107342857D01*
X225052380Y-107485714D01*
X225052380Y-107580952D01*
X225004761Y-107723809D01*
X224909523Y-107819047D01*
X224814285Y-107866666D01*
X224623809Y-107914285D01*
X224480952Y-107914285D01*
X224290476Y-107866666D01*
X224195238Y-107819047D01*
X224100000Y-107723809D01*
X224052380Y-107580952D01*
X224052380Y-107485714D01*
X224100000Y-107342857D01*
X224147619Y-107295238D01*
X225052380Y-106390476D02*
X225052380Y-106866666D01*
X224052380Y-106866666D01*
X225052380Y-106057142D02*
X224052380Y-106057142D01*
X225052380Y-105485714D02*
X224480952Y-105914285D01*
X224052380Y-105485714D02*
X224623809Y-106057142D01*
X222452380Y-107319047D02*
X221976190Y-107652380D01*
X222452380Y-107890476D02*
X221452380Y-107890476D01*
X221452380Y-107509523D01*
X221500000Y-107414285D01*
X221547619Y-107366666D01*
X221642857Y-107319047D01*
X221785714Y-107319047D01*
X221880952Y-107366666D01*
X221928571Y-107414285D01*
X221976190Y-107509523D01*
X221976190Y-107890476D01*
X221928571Y-106890476D02*
X221928571Y-106557142D01*
X222452380Y-106414285D02*
X222452380Y-106890476D01*
X221452380Y-106890476D01*
X221452380Y-106414285D01*
X222404761Y-106033333D02*
X222452380Y-105890476D01*
X222452380Y-105652380D01*
X222404761Y-105557142D01*
X222357142Y-105509523D01*
X222261904Y-105461904D01*
X222166666Y-105461904D01*
X222071428Y-105509523D01*
X222023809Y-105557142D01*
X221976190Y-105652380D01*
X221928571Y-105842857D01*
X221880952Y-105938095D01*
X221833333Y-105985714D01*
X221738095Y-106033333D01*
X221642857Y-106033333D01*
X221547619Y-105985714D01*
X221500000Y-105938095D01*
X221452380Y-105842857D01*
X221452380Y-105604761D01*
X221500000Y-105461904D01*
X223342857Y-101004761D02*
X223485714Y-101052380D01*
X223723809Y-101052380D01*
X223819047Y-101004761D01*
X223866666Y-100957142D01*
X223914285Y-100861904D01*
X223914285Y-100766666D01*
X223866666Y-100671428D01*
X223819047Y-100623809D01*
X223723809Y-100576190D01*
X223533333Y-100528571D01*
X223438095Y-100480952D01*
X223390476Y-100433333D01*
X223342857Y-100338095D01*
X223342857Y-100242857D01*
X223390476Y-100147619D01*
X223438095Y-100100000D01*
X223533333Y-100052380D01*
X223771428Y-100052380D01*
X223914285Y-100100000D01*
X224247619Y-100052380D02*
X224485714Y-101052380D01*
X224676190Y-100338095D01*
X224866666Y-101052380D01*
X225104761Y-100052380D01*
X225485714Y-101052380D02*
X225485714Y-100052380D01*
X225723809Y-100052380D01*
X225866666Y-100100000D01*
X225961904Y-100195238D01*
X226009523Y-100290476D01*
X226057142Y-100480952D01*
X226057142Y-100623809D01*
X226009523Y-100814285D01*
X225961904Y-100909523D01*
X225866666Y-101004761D01*
X225723809Y-101052380D01*
X225485714Y-101052380D01*
X243309523Y-121652380D02*
X242833333Y-121652380D01*
X242785714Y-122128571D01*
X242833333Y-122080952D01*
X242928571Y-122033333D01*
X243166666Y-122033333D01*
X243261904Y-122080952D01*
X243309523Y-122128571D01*
X243357142Y-122223809D01*
X243357142Y-122461904D01*
X243309523Y-122557142D01*
X243261904Y-122604761D01*
X243166666Y-122652380D01*
X242928571Y-122652380D01*
X242833333Y-122604761D01*
X242785714Y-122557142D01*
X243642857Y-121652380D02*
X243976190Y-122652380D01*
X244309523Y-121652380D01*
X243652380Y-135861904D02*
X243652380Y-135242857D01*
X244033333Y-135576190D01*
X244033333Y-135433333D01*
X244080952Y-135338095D01*
X244128571Y-135290476D01*
X244223809Y-135242857D01*
X244461904Y-135242857D01*
X244557142Y-135290476D01*
X244604761Y-135338095D01*
X244652380Y-135433333D01*
X244652380Y-135719047D01*
X244604761Y-135814285D01*
X244557142Y-135861904D01*
X243652380Y-134957142D02*
X244652380Y-134623809D01*
X243652380Y-134290476D01*
D12*
X231218000Y-111399500D02*
X229928000Y-111399500D01*
X231218000Y-110949500D02*
X231218000Y-111399500D01*
X231668000Y-110949500D02*
X231218000Y-110949500D01*
X238438000Y-110949500D02*
X238438000Y-111399500D01*
X237988000Y-110949500D02*
X238438000Y-110949500D01*
X231218000Y-118169500D02*
X231218000Y-117719500D01*
X231668000Y-118169500D02*
X231218000Y-118169500D01*
X238438000Y-118169500D02*
X238438000Y-117719500D01*
X237988000Y-118169500D02*
X238438000Y-118169500D01*
X234850000Y-122615000D02*
X231400000Y-122615000D01*
X234850000Y-122615000D02*
X236800000Y-122615000D01*
X234850000Y-131485000D02*
X232900000Y-131485000D01*
X234850000Y-131485000D02*
X236800000Y-131485000D01*
D13*
G36*
X203795035Y-148123166D02*
G01*
X203769000Y-148483000D01*
X202091428Y-148505974D01*
X201473087Y-148509299D01*
X200934178Y-148502027D01*
X200499367Y-148484990D01*
X200193323Y-148459016D01*
X200076733Y-148438171D01*
X199749788Y-148279796D01*
X199534442Y-148005916D01*
X199425485Y-147607805D01*
X199408983Y-147320169D01*
X199422164Y-147015695D01*
X199477713Y-146807549D01*
X199598907Y-146623804D01*
X199655572Y-146558169D01*
X199902478Y-146281666D01*
X201856906Y-146256075D01*
X203811333Y-146230484D01*
X203811333Y-146916666D01*
X202081179Y-146916666D01*
X201543260Y-146920614D01*
X201051629Y-146931627D01*
X200635727Y-146948456D01*
X200324999Y-146969851D01*
X200148888Y-146994566D01*
X200133845Y-146999237D01*
X199963945Y-147116818D01*
X199916667Y-147320971D01*
X199922601Y-147459082D01*
X199953619Y-147564991D01*
X200029542Y-147642967D01*
X200170190Y-147697279D01*
X200395384Y-147732197D01*
X200724946Y-147751989D01*
X201178697Y-147760925D01*
X201776457Y-147763274D01*
X201970468Y-147763333D01*
X203821069Y-147763333D01*
X203795035Y-148123166D01*
X203795035Y-148123166D01*
G37*
X203795035Y-148123166D02*
X203769000Y-148483000D01*
X202091428Y-148505974D01*
X201473087Y-148509299D01*
X200934178Y-148502027D01*
X200499367Y-148484990D01*
X200193323Y-148459016D01*
X200076733Y-148438171D01*
X199749788Y-148279796D01*
X199534442Y-148005916D01*
X199425485Y-147607805D01*
X199408983Y-147320169D01*
X199422164Y-147015695D01*
X199477713Y-146807549D01*
X199598907Y-146623804D01*
X199655572Y-146558169D01*
X199902478Y-146281666D01*
X201856906Y-146256075D01*
X203811333Y-146230484D01*
X203811333Y-146916666D01*
X202081179Y-146916666D01*
X201543260Y-146920614D01*
X201051629Y-146931627D01*
X200635727Y-146948456D01*
X200324999Y-146969851D01*
X200148888Y-146994566D01*
X200133845Y-146999237D01*
X199963945Y-147116818D01*
X199916667Y-147320971D01*
X199922601Y-147459082D01*
X199953619Y-147564991D01*
X200029542Y-147642967D01*
X200170190Y-147697279D01*
X200395384Y-147732197D01*
X200724946Y-147751989D01*
X201178697Y-147760925D01*
X201776457Y-147763274D01*
X201970468Y-147763333D01*
X203821069Y-147763333D01*
X203795035Y-148123166D01*
G36*
X203792663Y-144815616D02*
G01*
X203769000Y-145943000D01*
X203515000Y-145943000D01*
X203354104Y-145929086D01*
X203275509Y-145855904D01*
X203242356Y-145676289D01*
X203235044Y-145584773D01*
X203209088Y-145226547D01*
X201330044Y-145203773D01*
X199451000Y-145181000D01*
X199424965Y-144821166D01*
X199398931Y-144461333D01*
X203208931Y-144461333D01*
X203234965Y-144101500D01*
X203261876Y-143874000D01*
X203325369Y-143764820D01*
X203465495Y-143722983D01*
X203538663Y-143714949D01*
X203816325Y-143688232D01*
X203792663Y-144815616D01*
X203792663Y-144815616D01*
G37*
X203792663Y-144815616D02*
X203769000Y-145943000D01*
X203515000Y-145943000D01*
X203354104Y-145929086D01*
X203275509Y-145855904D01*
X203242356Y-145676289D01*
X203235044Y-145584773D01*
X203209088Y-145226547D01*
X201330044Y-145203773D01*
X199451000Y-145181000D01*
X199424965Y-144821166D01*
X199398931Y-144461333D01*
X203208931Y-144461333D01*
X203234965Y-144101500D01*
X203261876Y-143874000D01*
X203325369Y-143764820D01*
X203465495Y-143722983D01*
X203538663Y-143714949D01*
X203816325Y-143688232D01*
X203792663Y-144815616D01*
G36*
X203810085Y-141942500D02*
G01*
X203798108Y-142403808D01*
X203751106Y-142760321D01*
X203649998Y-143025284D01*
X203475704Y-143211944D01*
X203209143Y-143333545D01*
X202831234Y-143403335D01*
X202322896Y-143434560D01*
X201665048Y-143440464D01*
X201652333Y-143440422D01*
X201029775Y-143432799D01*
X200552937Y-143411006D01*
X200198420Y-143369428D01*
X199942827Y-143302446D01*
X199762760Y-143204443D01*
X199634822Y-143069800D01*
X199556965Y-142937333D01*
X199494292Y-142736357D01*
X199445491Y-142440532D01*
X199413109Y-142097579D01*
X199399692Y-141755217D01*
X199407786Y-141461169D01*
X199439938Y-141263155D01*
X199465111Y-141215777D01*
X199561862Y-141200403D01*
X199804627Y-141186622D01*
X200170087Y-141175034D01*
X200634927Y-141166235D01*
X201175828Y-141160823D01*
X201666445Y-141159333D01*
X203303333Y-141159333D01*
X203303333Y-141921333D01*
X200001333Y-141921333D01*
X200001333Y-142200733D01*
X200030433Y-142425087D01*
X200100665Y-142579395D01*
X200102933Y-142581733D01*
X200215457Y-142624475D01*
X200461953Y-142655093D01*
X200852929Y-142674289D01*
X201398889Y-142682767D01*
X201620886Y-142683333D01*
X202195407Y-142680077D01*
X202622354Y-142665890D01*
X202923432Y-142634139D01*
X203120347Y-142578193D01*
X203234803Y-142491420D01*
X203288507Y-142367189D01*
X203303162Y-142198867D01*
X203303333Y-142169285D01*
X203303333Y-141921333D01*
X203303333Y-141159333D01*
X203811333Y-141159333D01*
X203810085Y-141942500D01*
X203810085Y-141942500D01*
G37*
X203810085Y-141942500D02*
X203798108Y-142403808D01*
X203751106Y-142760321D01*
X203649998Y-143025284D01*
X203475704Y-143211944D01*
X203209143Y-143333545D01*
X202831234Y-143403335D01*
X202322896Y-143434560D01*
X201665048Y-143440464D01*
X201652333Y-143440422D01*
X201029775Y-143432799D01*
X200552937Y-143411006D01*
X200198420Y-143369428D01*
X199942827Y-143302446D01*
X199762760Y-143204443D01*
X199634822Y-143069800D01*
X199556965Y-142937333D01*
X199494292Y-142736357D01*
X199445491Y-142440532D01*
X199413109Y-142097579D01*
X199399692Y-141755217D01*
X199407786Y-141461169D01*
X199439938Y-141263155D01*
X199465111Y-141215777D01*
X199561862Y-141200403D01*
X199804627Y-141186622D01*
X200170087Y-141175034D01*
X200634927Y-141166235D01*
X201175828Y-141160823D01*
X201666445Y-141159333D01*
X203303333Y-141159333D01*
X203303333Y-141921333D01*
X200001333Y-141921333D01*
X200001333Y-142200733D01*
X200030433Y-142425087D01*
X200100665Y-142579395D01*
X200102933Y-142581733D01*
X200215457Y-142624475D01*
X200461953Y-142655093D01*
X200852929Y-142674289D01*
X201398889Y-142682767D01*
X201620886Y-142683333D01*
X202195407Y-142680077D01*
X202622354Y-142665890D01*
X202923432Y-142634139D01*
X203120347Y-142578193D01*
X203234803Y-142491420D01*
X203288507Y-142367189D01*
X203303162Y-142198867D01*
X203303333Y-142169285D01*
X203303333Y-141921333D01*
X203303333Y-141159333D01*
X203811333Y-141159333D01*
X203810085Y-141942500D01*
G36*
X197868009Y-143396968D02*
G01*
X197685062Y-143976504D01*
X197578798Y-144457300D01*
X197549176Y-144891571D01*
X197596158Y-145331535D01*
X197719703Y-145829405D01*
X197865813Y-146281666D01*
X198184578Y-147213000D01*
X197727009Y-148091631D01*
X197269439Y-148970263D01*
X196816620Y-148133964D01*
X196634955Y-147791268D01*
X196488081Y-147500526D01*
X196392523Y-147295364D01*
X196363986Y-147213000D01*
X196390420Y-147102099D01*
X196461708Y-146868926D01*
X196566071Y-146550791D01*
X196657995Y-146281666D01*
X196850025Y-145650715D01*
X196946199Y-145103592D01*
X196946516Y-144584533D01*
X196850975Y-144037778D01*
X196659578Y-143407564D01*
X196657995Y-143403000D01*
X196536693Y-143045915D01*
X196439720Y-142746089D01*
X196378855Y-142540830D01*
X196363986Y-142471666D01*
X196402180Y-142366992D01*
X196505892Y-142147857D01*
X196658581Y-141847919D01*
X196815811Y-141552202D01*
X197267821Y-140717406D01*
X197728396Y-141588504D01*
X198188971Y-142459604D01*
X197868009Y-143396968D01*
X197868009Y-143396968D01*
G37*
X197868009Y-143396968D02*
X197685062Y-143976504D01*
X197578798Y-144457300D01*
X197549176Y-144891571D01*
X197596158Y-145331535D01*
X197719703Y-145829405D01*
X197865813Y-146281666D01*
X198184578Y-147213000D01*
X197727009Y-148091631D01*
X197269439Y-148970263D01*
X196816620Y-148133964D01*
X196634955Y-147791268D01*
X196488081Y-147500526D01*
X196392523Y-147295364D01*
X196363986Y-147213000D01*
X196390420Y-147102099D01*
X196461708Y-146868926D01*
X196566071Y-146550791D01*
X196657995Y-146281666D01*
X196850025Y-145650715D01*
X196946199Y-145103592D01*
X196946516Y-144584533D01*
X196850975Y-144037778D01*
X196659578Y-143407564D01*
X196657995Y-143403000D01*
X196536693Y-143045915D01*
X196439720Y-142746089D01*
X196378855Y-142540830D01*
X196363986Y-142471666D01*
X196402180Y-142366992D01*
X196505892Y-142147857D01*
X196658581Y-141847919D01*
X196815811Y-141552202D01*
X197267821Y-140717406D01*
X197728396Y-141588504D01*
X198188971Y-142459604D01*
X197868009Y-143396968D01*
G36*
X195451886Y-148093393D02*
G01*
X194984919Y-148962310D01*
X194522483Y-148099015D01*
X194342482Y-147744978D01*
X194203002Y-147435692D01*
X194118832Y-147206449D01*
X194102703Y-147097360D01*
X194148463Y-146959875D01*
X194235709Y-146706228D01*
X194349428Y-146379884D01*
X194413649Y-146197000D01*
X194607216Y-145541100D01*
X194688087Y-144955979D01*
X194656271Y-144386036D01*
X194511774Y-143775670D01*
X194414000Y-143484155D01*
X194291219Y-143134005D01*
X194189486Y-142829154D01*
X194123745Y-142615072D01*
X194109052Y-142556333D01*
X194134954Y-142413256D01*
X194232225Y-142159815D01*
X194385980Y-141831366D01*
X194530652Y-141554801D01*
X194985052Y-140722604D01*
X195451952Y-141591396D01*
X195918852Y-142460189D01*
X195616622Y-143270261D01*
X195388307Y-144020909D01*
X195295560Y-144716546D01*
X195338380Y-145403629D01*
X195516767Y-146128614D01*
X195616622Y-146414405D01*
X195918852Y-147224477D01*
X195451886Y-148093393D01*
X195451886Y-148093393D01*
G37*
X195451886Y-148093393D02*
X194984919Y-148962310D01*
X194522483Y-148099015D01*
X194342482Y-147744978D01*
X194203002Y-147435692D01*
X194118832Y-147206449D01*
X194102703Y-147097360D01*
X194148463Y-146959875D01*
X194235709Y-146706228D01*
X194349428Y-146379884D01*
X194413649Y-146197000D01*
X194607216Y-145541100D01*
X194688087Y-144955979D01*
X194656271Y-144386036D01*
X194511774Y-143775670D01*
X194414000Y-143484155D01*
X194291219Y-143134005D01*
X194189486Y-142829154D01*
X194123745Y-142615072D01*
X194109052Y-142556333D01*
X194134954Y-142413256D01*
X194232225Y-142159815D01*
X194385980Y-141831366D01*
X194530652Y-141554801D01*
X194985052Y-140722604D01*
X195451952Y-141591396D01*
X195918852Y-142460189D01*
X195616622Y-143270261D01*
X195388307Y-144020909D01*
X195295560Y-144716546D01*
X195338380Y-145403629D01*
X195516767Y-146128614D01*
X195616622Y-146414405D01*
X195918852Y-147224477D01*
X195451886Y-148093393D01*
G36*
X193468364Y-147540695D02*
G01*
X193333589Y-147800430D01*
X193156412Y-148131541D01*
X192993669Y-148428837D01*
X192694983Y-148967341D01*
X192243500Y-148090170D01*
X191792017Y-147213000D01*
X192102106Y-146324000D01*
X192294566Y-145707745D01*
X192398865Y-145179727D01*
X192414974Y-144686699D01*
X192342866Y-144175419D01*
X192182514Y-143592641D01*
X192100560Y-143347502D01*
X191977272Y-142985701D01*
X191879103Y-142687671D01*
X191816769Y-142486626D01*
X191800113Y-142416169D01*
X191841857Y-142334117D01*
X191946356Y-142133808D01*
X192097162Y-141846655D01*
X192252350Y-141552312D01*
X192693142Y-140717626D01*
X192907816Y-141086646D01*
X193064352Y-141366973D01*
X193248830Y-141713203D01*
X193383237Y-141975140D01*
X193643985Y-142494613D01*
X193400202Y-143127709D01*
X193164881Y-143816839D01*
X193034550Y-144421391D01*
X193009149Y-144989595D01*
X193088618Y-145569683D01*
X193272898Y-146209886D01*
X193395977Y-146545986D01*
X193644372Y-147191058D01*
X193468364Y-147540695D01*
X193468364Y-147540695D01*
G37*
X193468364Y-147540695D02*
X193333589Y-147800430D01*
X193156412Y-148131541D01*
X192993669Y-148428837D01*
X192694983Y-148967341D01*
X192243500Y-148090170D01*
X191792017Y-147213000D01*
X192102106Y-146324000D01*
X192294566Y-145707745D01*
X192398865Y-145179727D01*
X192414974Y-144686699D01*
X192342866Y-144175419D01*
X192182514Y-143592641D01*
X192100560Y-143347502D01*
X191977272Y-142985701D01*
X191879103Y-142687671D01*
X191816769Y-142486626D01*
X191800113Y-142416169D01*
X191841857Y-142334117D01*
X191946356Y-142133808D01*
X192097162Y-141846655D01*
X192252350Y-141552312D01*
X192693142Y-140717626D01*
X192907816Y-141086646D01*
X193064352Y-141366973D01*
X193248830Y-141713203D01*
X193383237Y-141975140D01*
X193643985Y-142494613D01*
X193400202Y-143127709D01*
X193164881Y-143816839D01*
X193034550Y-144421391D01*
X193009149Y-144989595D01*
X193088618Y-145569683D01*
X193272898Y-146209886D01*
X193395977Y-146545986D01*
X193644372Y-147191058D01*
X193468364Y-147540695D01*
D10*
X218012000Y-125550000D02*
X220552000Y-125550000D01*
X218012000Y-135710000D02*
X218012000Y-125550000D01*
X223092000Y-135710000D02*
X218012000Y-135710000D01*
X223092000Y-128090000D02*
X223092000Y-135710000D01*
X220552000Y-133170000D02*
X220552000Y-135710000D01*
X223092000Y-133170000D02*
X220552000Y-133170000D01*
X223092000Y-125550000D02*
X220552000Y-125550000D01*
X223092000Y-128090000D02*
X223092000Y-125550000D01*
X223219000Y-135837000D02*
X220552000Y-135837000D01*
X223219000Y-133170000D02*
X223219000Y-135837000D01*
D12*
X223346000Y-137996000D02*
X223346000Y-123264000D01*
X223346000Y-123264000D02*
X183722000Y-123264000D01*
X183722000Y-123264000D02*
X183722000Y-137996000D01*
X183722000Y-137996000D02*
X223346000Y-137996000D01*
X244950000Y-116800000D02*
X245400000Y-116800000D01*
X244950000Y-116800000D02*
X244950000Y-116350000D01*
X245500000Y-111200000D02*
X245500000Y-111650000D01*
X247350000Y-111200000D02*
X245500000Y-111200000D01*
X249900000Y-119000000D02*
X249650000Y-119000000D01*
X249900000Y-111200000D02*
X249650000Y-111200000D01*
X247350000Y-119000000D02*
X245500000Y-119000000D01*
X245500000Y-119000000D02*
X245500000Y-118550000D01*
X246671267Y-131710000D02*
X246328733Y-131710000D01*
X246671267Y-130690000D02*
X246328733Y-130690000D01*
X205850000Y-100400000D02*
X217850000Y-100400000D01*
X217850000Y-112400000D02*
X205850000Y-112400000D01*
X205850000Y-112400000D02*
X205850000Y-109800000D01*
X205850000Y-100400000D02*
X205850000Y-103000000D01*
X205850000Y-105375000D02*
X205850000Y-107425000D01*
X217850000Y-100400000D02*
X217850000Y-103000000D01*
X217850000Y-105375000D02*
X217850000Y-107425000D01*
X217850000Y-112400000D02*
X217850000Y-109800000D01*
X219813880Y-108740000D02*
G75*
G03X219813880Y-108740000I-102880J0D01*
G01*
X225700000Y-138978675D02*
X225450000Y-138545662D01*
X225950000Y-138545662D02*
X225700000Y-138978675D01*
X225450000Y-138545662D02*
X225950000Y-138545662D01*
X235645000Y-139440000D02*
X235645000Y-149920000D01*
X204675000Y-139440000D02*
X235645000Y-139440000D01*
X204675000Y-149920000D02*
X204675000Y-139440000D01*
X223700000Y-110650000D02*
X223700000Y-111050000D01*
X223700000Y-111050000D02*
X224500000Y-111050000D01*
X224500000Y-116450000D02*
X223700000Y-116450000D01*
X225900000Y-112850000D02*
X225900000Y-114650000D01*
X222300000Y-114650000D02*
X222300000Y-112850000D01*
X222300000Y-112850000D02*
X222060000Y-112850000D01*
X234800000Y-138460000D02*
X238250000Y-138460000D01*
X234800000Y-138460000D02*
X232850000Y-138460000D01*
X234800000Y-133340000D02*
X236750000Y-133340000D01*
X234800000Y-133340000D02*
X232850000Y-133340000D01*
X220830000Y-104730000D02*
X220830000Y-103400000D01*
X222160000Y-104730000D02*
X220830000Y-104730000D01*
X223430000Y-104730000D02*
X223430000Y-102070000D01*
X223430000Y-102070000D02*
X228570000Y-102070000D01*
X223430000Y-104730000D02*
X228570000Y-104730000D01*
X228570000Y-104730000D02*
X228570000Y-102070000D01*
X245750000Y-129900000D02*
X245750000Y-123000000D01*
X249050000Y-129900000D02*
X249050000Y-123000000D01*
X245750000Y-129900000D02*
X249050000Y-129900000D01*
X236660000Y-106846267D02*
X236660000Y-106503733D01*
X235640000Y-106846267D02*
X235640000Y-106503733D01*
X239885000Y-147185000D02*
X239885000Y-144725000D01*
X238415000Y-147185000D02*
X239885000Y-147185000D01*
X238415000Y-144725000D02*
X238415000Y-147185000D01*
X236885000Y-103300000D02*
X236885000Y-100840000D01*
X236885000Y-100840000D02*
X235415000Y-100840000D01*
X235415000Y-100840000D02*
X235415000Y-103300000D01*
X245570000Y-138070000D02*
X248230000Y-138070000D01*
X245570000Y-135470000D02*
X245570000Y-138070000D01*
X248230000Y-135470000D02*
X248230000Y-138070000D01*
X245570000Y-135470000D02*
X248230000Y-135470000D01*
X245570000Y-134200000D02*
X245570000Y-132870000D01*
X245570000Y-132870000D02*
X246900000Y-132870000D01*
X242270000Y-128770000D02*
X244930000Y-128770000D01*
X242270000Y-126170000D02*
X242270000Y-128770000D01*
X244930000Y-126170000D02*
X244930000Y-128770000D01*
X242270000Y-126170000D02*
X244930000Y-126170000D01*
X242270000Y-124900000D02*
X242270000Y-123570000D01*
X242270000Y-123570000D02*
X243600000Y-123570000D01*
X239660000Y-141778733D02*
X239660000Y-142121267D01*
X238640000Y-141778733D02*
X238640000Y-142121267D01*
X233640000Y-106453733D02*
X233640000Y-106796267D01*
X234660000Y-106453733D02*
X234660000Y-106796267D01*
X239890000Y-134000000D02*
X239890000Y-135800000D01*
X243110000Y-135800000D02*
X243110000Y-133350000D01*
D10*
X234190476Y-114111904D02*
X234190476Y-114759523D01*
X234228571Y-114835714D01*
X234266666Y-114873809D01*
X234342857Y-114911904D01*
X234495238Y-114911904D01*
X234571428Y-114873809D01*
X234609523Y-114835714D01*
X234647619Y-114759523D01*
X234647619Y-114111904D01*
X234990476Y-114188095D02*
X235028571Y-114150000D01*
X235104761Y-114111904D01*
X235295238Y-114111904D01*
X235371428Y-114150000D01*
X235409523Y-114188095D01*
X235447619Y-114264285D01*
X235447619Y-114340476D01*
X235409523Y-114454761D01*
X234952380Y-114911904D01*
X235447619Y-114911904D01*
X234302380Y-127811904D02*
X235111904Y-127811904D01*
X235207142Y-127764285D01*
X235254761Y-127716666D01*
X235302380Y-127621428D01*
X235302380Y-127430952D01*
X235254761Y-127335714D01*
X235207142Y-127288095D01*
X235111904Y-127240476D01*
X234302380Y-127240476D01*
X234635714Y-126335714D02*
X235302380Y-126335714D01*
X234254761Y-126573809D02*
X234969047Y-126811904D01*
X234969047Y-126192857D01*
X216161904Y-131109523D02*
X216809523Y-131109523D01*
X216885714Y-131071428D01*
X216923809Y-131033333D01*
X216961904Y-130957142D01*
X216961904Y-130804761D01*
X216923809Y-130728571D01*
X216885714Y-130690476D01*
X216809523Y-130652380D01*
X216161904Y-130652380D01*
X216961904Y-129852380D02*
X216961904Y-130309523D01*
X216961904Y-130080952D02*
X216161904Y-130080952D01*
X216276190Y-130157142D01*
X216352380Y-130233333D01*
X216390476Y-130309523D01*
X243602380Y-115433333D02*
X244316666Y-115433333D01*
X244459523Y-115480952D01*
X244554761Y-115576190D01*
X244602380Y-115719047D01*
X244602380Y-115814285D01*
X244030952Y-114814285D02*
X243983333Y-114909523D01*
X243935714Y-114957142D01*
X243840476Y-115004761D01*
X243792857Y-115004761D01*
X243697619Y-114957142D01*
X243650000Y-114909523D01*
X243602380Y-114814285D01*
X243602380Y-114623809D01*
X243650000Y-114528571D01*
X243697619Y-114480952D01*
X243792857Y-114433333D01*
X243840476Y-114433333D01*
X243935714Y-114480952D01*
X243983333Y-114528571D01*
X244030952Y-114623809D01*
X244030952Y-114814285D01*
X244078571Y-114909523D01*
X244126190Y-114957142D01*
X244221428Y-115004761D01*
X244411904Y-115004761D01*
X244507142Y-114957142D01*
X244554761Y-114909523D01*
X244602380Y-114814285D01*
X244602380Y-114623809D01*
X244554761Y-114528571D01*
X244507142Y-114480952D01*
X244411904Y-114433333D01*
X244221428Y-114433333D01*
X244126190Y-114480952D01*
X244078571Y-114528571D01*
X244030952Y-114623809D01*
X244238095Y-108952380D02*
X244238095Y-107952380D01*
X244238095Y-108428571D02*
X244809523Y-108428571D01*
X244809523Y-108952380D02*
X244809523Y-107952380D01*
X245714285Y-108285714D02*
X245714285Y-108952380D01*
X245476190Y-107904761D02*
X245238095Y-108619047D01*
X245857142Y-108619047D01*
X187238095Y-140952380D02*
X187238095Y-139952380D01*
X187238095Y-140428571D02*
X187809523Y-140428571D01*
X187809523Y-140952380D02*
X187809523Y-139952380D01*
X188190476Y-139952380D02*
X188809523Y-139952380D01*
X188476190Y-140333333D01*
X188619047Y-140333333D01*
X188714285Y-140380952D01*
X188761904Y-140428571D01*
X188809523Y-140523809D01*
X188809523Y-140761904D01*
X188761904Y-140857142D01*
X188714285Y-140904761D01*
X188619047Y-140952380D01*
X188333333Y-140952380D01*
X188238095Y-140904761D01*
X188190476Y-140857142D01*
X187238095Y-108952380D02*
X187238095Y-107952380D01*
X187238095Y-108428571D02*
X187809523Y-108428571D01*
X187809523Y-108952380D02*
X187809523Y-107952380D01*
X188238095Y-108047619D02*
X188285714Y-108000000D01*
X188380952Y-107952380D01*
X188619047Y-107952380D01*
X188714285Y-108000000D01*
X188761904Y-108047619D01*
X188809523Y-108142857D01*
X188809523Y-108238095D01*
X188761904Y-108380952D01*
X188190476Y-108952380D01*
X188809523Y-108952380D01*
X244238095Y-140952380D02*
X244238095Y-139952380D01*
X244238095Y-140428571D02*
X244809523Y-140428571D01*
X244809523Y-140952380D02*
X244809523Y-139952380D01*
X245809523Y-140952380D02*
X245238095Y-140952380D01*
X245523809Y-140952380D02*
X245523809Y-139952380D01*
X245428571Y-140095238D01*
X245333333Y-140190476D01*
X245238095Y-140238095D01*
X248742857Y-131366666D02*
X248742857Y-131633333D01*
X249161904Y-131633333D02*
X248361904Y-131633333D01*
X248361904Y-131252380D01*
X249161904Y-130528571D02*
X249161904Y-130985714D01*
X249161904Y-130757142D02*
X248361904Y-130757142D01*
X248476190Y-130833333D01*
X248552380Y-130909523D01*
X248590476Y-130985714D01*
X210910476Y-106668809D02*
X211024761Y-106706904D01*
X211215238Y-106706904D01*
X211291428Y-106668809D01*
X211329523Y-106630714D01*
X211367619Y-106554523D01*
X211367619Y-106478333D01*
X211329523Y-106402142D01*
X211291428Y-106364047D01*
X211215238Y-106325952D01*
X211062857Y-106287857D01*
X210986666Y-106249761D01*
X210948571Y-106211666D01*
X210910476Y-106135476D01*
X210910476Y-106059285D01*
X210948571Y-105983095D01*
X210986666Y-105945000D01*
X211062857Y-105906904D01*
X211253333Y-105906904D01*
X211367619Y-105945000D01*
X212129523Y-106706904D02*
X211672380Y-106706904D01*
X211900952Y-106706904D02*
X211900952Y-105906904D01*
X211824761Y-106021190D01*
X211748571Y-106097380D01*
X211672380Y-106135476D01*
X219883333Y-139811904D02*
X219883333Y-140383333D01*
X219845238Y-140497619D01*
X219769047Y-140573809D01*
X219654761Y-140611904D01*
X219578571Y-140611904D01*
X220188095Y-139811904D02*
X220721428Y-139811904D01*
X220378571Y-140611904D01*
X224080952Y-114130952D02*
X224461904Y-114130952D01*
X223661904Y-114397619D02*
X224080952Y-114130952D01*
X223661904Y-113864285D01*
X224461904Y-113178571D02*
X224461904Y-113635714D01*
X224461904Y-113407142D02*
X223661904Y-113407142D01*
X223776190Y-113483333D01*
X223852380Y-113559523D01*
X223890476Y-113635714D01*
X235252380Y-136976190D02*
X234252380Y-136976190D01*
X235157142Y-135928571D02*
X235204761Y-135976190D01*
X235252380Y-136119047D01*
X235252380Y-136214285D01*
X235204761Y-136357142D01*
X235109523Y-136452380D01*
X235014285Y-136500000D01*
X234823809Y-136547619D01*
X234680952Y-136547619D01*
X234490476Y-136500000D01*
X234395238Y-136452380D01*
X234300000Y-136357142D01*
X234252380Y-136214285D01*
X234252380Y-136119047D01*
X234300000Y-135976190D01*
X234347619Y-135928571D01*
X235252380Y-134976190D02*
X235252380Y-135547619D01*
X235252380Y-135261904D02*
X234252380Y-135261904D01*
X234395238Y-135357142D01*
X234490476Y-135452380D01*
X234538095Y-135547619D01*
X246859523Y-125811904D02*
X246859523Y-125011904D01*
X247050000Y-125011904D01*
X247164285Y-125050000D01*
X247240476Y-125126190D01*
X247278571Y-125202380D01*
X247316666Y-125354761D01*
X247316666Y-125469047D01*
X247278571Y-125621428D01*
X247240476Y-125697619D01*
X247164285Y-125773809D01*
X247050000Y-125811904D01*
X246859523Y-125811904D01*
X247621428Y-125088095D02*
X247659523Y-125050000D01*
X247735714Y-125011904D01*
X247926190Y-125011904D01*
X248002380Y-125050000D01*
X248040476Y-125088095D01*
X248078571Y-125164285D01*
X248078571Y-125240476D01*
X248040476Y-125354761D01*
X247583333Y-125811904D01*
X248078571Y-125811904D01*
X241400714Y-131385714D02*
X241362619Y-131423809D01*
X241248333Y-131461904D01*
X241172142Y-131461904D01*
X241057857Y-131423809D01*
X240981666Y-131347619D01*
X240943571Y-131271428D01*
X240905476Y-131119047D01*
X240905476Y-131004761D01*
X240943571Y-130852380D01*
X240981666Y-130776190D01*
X241057857Y-130700000D01*
X241172142Y-130661904D01*
X241248333Y-130661904D01*
X241362619Y-130700000D01*
X241400714Y-130738095D01*
X242162619Y-131461904D02*
X241705476Y-131461904D01*
X241934047Y-131461904D02*
X241934047Y-130661904D01*
X241857857Y-130776190D01*
X241781666Y-130852380D01*
X241705476Y-130890476D01*
X242657857Y-130661904D02*
X242734047Y-130661904D01*
X242810238Y-130700000D01*
X242848333Y-130738095D01*
X242886428Y-130814285D01*
X242924523Y-130966666D01*
X242924523Y-131157142D01*
X242886428Y-131309523D01*
X242848333Y-131385714D01*
X242810238Y-131423809D01*
X242734047Y-131461904D01*
X242657857Y-131461904D01*
X242581666Y-131423809D01*
X242543571Y-131385714D01*
X242505476Y-131309523D01*
X242467380Y-131157142D01*
X242467380Y-130966666D01*
X242505476Y-130814285D01*
X242543571Y-130738095D01*
X242581666Y-130700000D01*
X242657857Y-130661904D01*
X242046666Y-138785714D02*
X242008571Y-138823809D01*
X241894285Y-138861904D01*
X241818095Y-138861904D01*
X241703809Y-138823809D01*
X241627619Y-138747619D01*
X241589523Y-138671428D01*
X241551428Y-138519047D01*
X241551428Y-138404761D01*
X241589523Y-138252380D01*
X241627619Y-138176190D01*
X241703809Y-138100000D01*
X241818095Y-138061904D01*
X241894285Y-138061904D01*
X242008571Y-138100000D01*
X242046666Y-138138095D01*
X242313333Y-138061904D02*
X242846666Y-138061904D01*
X242503809Y-138861904D01*
X239216666Y-121685714D02*
X239178571Y-121723809D01*
X239064285Y-121761904D01*
X238988095Y-121761904D01*
X238873809Y-121723809D01*
X238797619Y-121647619D01*
X238759523Y-121571428D01*
X238721428Y-121419047D01*
X238721428Y-121304761D01*
X238759523Y-121152380D01*
X238797619Y-121076190D01*
X238873809Y-121000000D01*
X238988095Y-120961904D01*
X239064285Y-120961904D01*
X239178571Y-121000000D01*
X239216666Y-121038095D01*
X239597619Y-121761904D02*
X239750000Y-121761904D01*
X239826190Y-121723809D01*
X239864285Y-121685714D01*
X239940476Y-121571428D01*
X239978571Y-121419047D01*
X239978571Y-121114285D01*
X239940476Y-121038095D01*
X239902380Y-121000000D01*
X239826190Y-120961904D01*
X239673809Y-120961904D01*
X239597619Y-121000000D01*
X239559523Y-121038095D01*
X239521428Y-121114285D01*
X239521428Y-121304761D01*
X239559523Y-121380952D01*
X239597619Y-121419047D01*
X239673809Y-121457142D01*
X239826190Y-121457142D01*
X239902380Y-121419047D01*
X239940476Y-121380952D01*
X239978571Y-121304761D01*
X231451666Y-107865714D02*
X231413571Y-107903809D01*
X231299285Y-107941904D01*
X231223095Y-107941904D01*
X231108809Y-107903809D01*
X231032619Y-107827619D01*
X230994523Y-107751428D01*
X230956428Y-107599047D01*
X230956428Y-107484761D01*
X230994523Y-107332380D01*
X231032619Y-107256190D01*
X231108809Y-107180000D01*
X231223095Y-107141904D01*
X231299285Y-107141904D01*
X231413571Y-107180000D01*
X231451666Y-107218095D01*
X231908809Y-107484761D02*
X231832619Y-107446666D01*
X231794523Y-107408571D01*
X231756428Y-107332380D01*
X231756428Y-107294285D01*
X231794523Y-107218095D01*
X231832619Y-107180000D01*
X231908809Y-107141904D01*
X232061190Y-107141904D01*
X232137380Y-107180000D01*
X232175476Y-107218095D01*
X232213571Y-107294285D01*
X232213571Y-107332380D01*
X232175476Y-107408571D01*
X232137380Y-107446666D01*
X232061190Y-107484761D01*
X231908809Y-107484761D01*
X231832619Y-107522857D01*
X231794523Y-107560952D01*
X231756428Y-107637142D01*
X231756428Y-107789523D01*
X231794523Y-107865714D01*
X231832619Y-107903809D01*
X231908809Y-107941904D01*
X232061190Y-107941904D01*
X232137380Y-107903809D01*
X232175476Y-107865714D01*
X232213571Y-107789523D01*
X232213571Y-107637142D01*
X232175476Y-107560952D01*
X232137380Y-107522857D01*
X232061190Y-107484761D01*
X242285714Y-109833333D02*
X242323809Y-109871428D01*
X242361904Y-109985714D01*
X242361904Y-110061904D01*
X242323809Y-110176190D01*
X242247619Y-110252380D01*
X242171428Y-110290476D01*
X242019047Y-110328571D01*
X241904761Y-110328571D01*
X241752380Y-110290476D01*
X241676190Y-110252380D01*
X241600000Y-110176190D01*
X241561904Y-110061904D01*
X241561904Y-109985714D01*
X241600000Y-109871428D01*
X241638095Y-109833333D01*
X241561904Y-109147619D02*
X241561904Y-109300000D01*
X241600000Y-109376190D01*
X241638095Y-109414285D01*
X241752380Y-109490476D01*
X241904761Y-109528571D01*
X242209523Y-109528571D01*
X242285714Y-109490476D01*
X242323809Y-109452380D01*
X242361904Y-109376190D01*
X242361904Y-109223809D01*
X242323809Y-109147619D01*
X242285714Y-109109523D01*
X242209523Y-109071428D01*
X242019047Y-109071428D01*
X241942857Y-109109523D01*
X241904761Y-109147619D01*
X241866666Y-109223809D01*
X241866666Y-109376190D01*
X241904761Y-109452380D01*
X241942857Y-109490476D01*
X242019047Y-109528571D01*
X241035714Y-109883333D02*
X241073809Y-109921428D01*
X241111904Y-110035714D01*
X241111904Y-110111904D01*
X241073809Y-110226190D01*
X240997619Y-110302380D01*
X240921428Y-110340476D01*
X240769047Y-110378571D01*
X240654761Y-110378571D01*
X240502380Y-110340476D01*
X240426190Y-110302380D01*
X240350000Y-110226190D01*
X240311904Y-110111904D01*
X240311904Y-110035714D01*
X240350000Y-109921428D01*
X240388095Y-109883333D01*
X240311904Y-109159523D02*
X240311904Y-109540476D01*
X240692857Y-109578571D01*
X240654761Y-109540476D01*
X240616666Y-109464285D01*
X240616666Y-109273809D01*
X240654761Y-109197619D01*
X240692857Y-109159523D01*
X240769047Y-109121428D01*
X240959523Y-109121428D01*
X241035714Y-109159523D01*
X241073809Y-109197619D01*
X241111904Y-109273809D01*
X241111904Y-109464285D01*
X241073809Y-109540476D01*
X241035714Y-109578571D01*
X239166666Y-120585714D02*
X239128571Y-120623809D01*
X239014285Y-120661904D01*
X238938095Y-120661904D01*
X238823809Y-120623809D01*
X238747619Y-120547619D01*
X238709523Y-120471428D01*
X238671428Y-120319047D01*
X238671428Y-120204761D01*
X238709523Y-120052380D01*
X238747619Y-119976190D01*
X238823809Y-119900000D01*
X238938095Y-119861904D01*
X239014285Y-119861904D01*
X239128571Y-119900000D01*
X239166666Y-119938095D01*
X239852380Y-120128571D02*
X239852380Y-120661904D01*
X239661904Y-119823809D02*
X239471428Y-120395238D01*
X239966666Y-120395238D01*
X220635714Y-106533333D02*
X220673809Y-106571428D01*
X220711904Y-106685714D01*
X220711904Y-106761904D01*
X220673809Y-106876190D01*
X220597619Y-106952380D01*
X220521428Y-106990476D01*
X220369047Y-107028571D01*
X220254761Y-107028571D01*
X220102380Y-106990476D01*
X220026190Y-106952380D01*
X219950000Y-106876190D01*
X219911904Y-106761904D01*
X219911904Y-106685714D01*
X219950000Y-106571428D01*
X219988095Y-106533333D01*
X219911904Y-106266666D02*
X219911904Y-105771428D01*
X220216666Y-106038095D01*
X220216666Y-105923809D01*
X220254761Y-105847619D01*
X220292857Y-105809523D01*
X220369047Y-105771428D01*
X220559523Y-105771428D01*
X220635714Y-105809523D01*
X220673809Y-105847619D01*
X220711904Y-105923809D01*
X220711904Y-106152380D01*
X220673809Y-106228571D01*
X220635714Y-106266666D01*
X228466666Y-118635714D02*
X228428571Y-118673809D01*
X228314285Y-118711904D01*
X228238095Y-118711904D01*
X228123809Y-118673809D01*
X228047619Y-118597619D01*
X228009523Y-118521428D01*
X227971428Y-118369047D01*
X227971428Y-118254761D01*
X228009523Y-118102380D01*
X228047619Y-118026190D01*
X228123809Y-117950000D01*
X228238095Y-117911904D01*
X228314285Y-117911904D01*
X228428571Y-117950000D01*
X228466666Y-117988095D01*
X228771428Y-117988095D02*
X228809523Y-117950000D01*
X228885714Y-117911904D01*
X229076190Y-117911904D01*
X229152380Y-117950000D01*
X229190476Y-117988095D01*
X229228571Y-118064285D01*
X229228571Y-118140476D01*
X229190476Y-118254761D01*
X228733333Y-118711904D01*
X229228571Y-118711904D01*
X228531666Y-119735714D02*
X228493571Y-119773809D01*
X228379285Y-119811904D01*
X228303095Y-119811904D01*
X228188809Y-119773809D01*
X228112619Y-119697619D01*
X228074523Y-119621428D01*
X228036428Y-119469047D01*
X228036428Y-119354761D01*
X228074523Y-119202380D01*
X228112619Y-119126190D01*
X228188809Y-119050000D01*
X228303095Y-119011904D01*
X228379285Y-119011904D01*
X228493571Y-119050000D01*
X228531666Y-119088095D01*
X229293571Y-119811904D02*
X228836428Y-119811904D01*
X229065000Y-119811904D02*
X229065000Y-119011904D01*
X228988809Y-119126190D01*
X228912619Y-119202380D01*
X228836428Y-119240476D01*
X237811904Y-106833333D02*
X237430952Y-107100000D01*
X237811904Y-107290476D02*
X237011904Y-107290476D01*
X237011904Y-106985714D01*
X237050000Y-106909523D01*
X237088095Y-106871428D01*
X237164285Y-106833333D01*
X237278571Y-106833333D01*
X237354761Y-106871428D01*
X237392857Y-106909523D01*
X237430952Y-106985714D01*
X237430952Y-107290476D01*
X237278571Y-106147619D02*
X237811904Y-106147619D01*
X236973809Y-106338095D02*
X237545238Y-106528571D01*
X237545238Y-106033333D01*
X241011904Y-146040476D02*
X240211904Y-146040476D01*
X240211904Y-145850000D01*
X240250000Y-145735714D01*
X240326190Y-145659523D01*
X240402380Y-145621428D01*
X240554761Y-145583333D01*
X240669047Y-145583333D01*
X240821428Y-145621428D01*
X240897619Y-145659523D01*
X240973809Y-145735714D01*
X241011904Y-145850000D01*
X241011904Y-146040476D01*
X241011904Y-144821428D02*
X241011904Y-145278571D01*
X241011904Y-145050000D02*
X240211904Y-145050000D01*
X240326190Y-145126190D01*
X240402380Y-145202380D01*
X240440476Y-145278571D01*
X225985714Y-118764285D02*
X226023809Y-118802380D01*
X226061904Y-118916666D01*
X226061904Y-118992857D01*
X226023809Y-119107142D01*
X225947619Y-119183333D01*
X225871428Y-119221428D01*
X225719047Y-119259523D01*
X225604761Y-119259523D01*
X225452380Y-119221428D01*
X225376190Y-119183333D01*
X225300000Y-119107142D01*
X225261904Y-118992857D01*
X225261904Y-118916666D01*
X225300000Y-118802380D01*
X225338095Y-118764285D01*
X226061904Y-118002380D02*
X226061904Y-118459523D01*
X226061904Y-118230952D02*
X225261904Y-118230952D01*
X225376190Y-118307142D01*
X225452380Y-118383333D01*
X225490476Y-118459523D01*
X225338095Y-117697619D02*
X225300000Y-117659523D01*
X225261904Y-117583333D01*
X225261904Y-117392857D01*
X225300000Y-117316666D01*
X225338095Y-117278571D01*
X225414285Y-117240476D01*
X225490476Y-117240476D01*
X225604761Y-117278571D01*
X226061904Y-117735714D01*
X226061904Y-117240476D01*
X228466666Y-113611904D02*
X228200000Y-113230952D01*
X228009523Y-113611904D02*
X228009523Y-112811904D01*
X228314285Y-112811904D01*
X228390476Y-112850000D01*
X228428571Y-112888095D01*
X228466666Y-112964285D01*
X228466666Y-113078571D01*
X228428571Y-113154761D01*
X228390476Y-113192857D01*
X228314285Y-113230952D01*
X228009523Y-113230952D01*
X228733333Y-112811904D02*
X229228571Y-112811904D01*
X228961904Y-113116666D01*
X229076190Y-113116666D01*
X229152380Y-113154761D01*
X229190476Y-113192857D01*
X229228571Y-113269047D01*
X229228571Y-113459523D01*
X229190476Y-113535714D01*
X229152380Y-113573809D01*
X229076190Y-113611904D01*
X228847619Y-113611904D01*
X228771428Y-113573809D01*
X228733333Y-113535714D01*
X227135714Y-110914285D02*
X227173809Y-110952380D01*
X227211904Y-111066666D01*
X227211904Y-111142857D01*
X227173809Y-111257142D01*
X227097619Y-111333333D01*
X227021428Y-111371428D01*
X226869047Y-111409523D01*
X226754761Y-111409523D01*
X226602380Y-111371428D01*
X226526190Y-111333333D01*
X226450000Y-111257142D01*
X226411904Y-111142857D01*
X226411904Y-111066666D01*
X226450000Y-110952380D01*
X226488095Y-110914285D01*
X227211904Y-110152380D02*
X227211904Y-110609523D01*
X227211904Y-110380952D02*
X226411904Y-110380952D01*
X226526190Y-110457142D01*
X226602380Y-110533333D01*
X226640476Y-110609523D01*
X227211904Y-109390476D02*
X227211904Y-109847619D01*
X227211904Y-109619047D02*
X226411904Y-109619047D01*
X226526190Y-109695238D01*
X226602380Y-109771428D01*
X226640476Y-109847619D01*
X237941904Y-103090476D02*
X237141904Y-103090476D01*
X237141904Y-102900000D01*
X237180000Y-102785714D01*
X237256190Y-102709523D01*
X237332380Y-102671428D01*
X237484761Y-102633333D01*
X237599047Y-102633333D01*
X237751428Y-102671428D01*
X237827619Y-102709523D01*
X237903809Y-102785714D01*
X237941904Y-102900000D01*
X237941904Y-103090476D01*
X237141904Y-102366666D02*
X237141904Y-101871428D01*
X237446666Y-102138095D01*
X237446666Y-102023809D01*
X237484761Y-101947619D01*
X237522857Y-101909523D01*
X237599047Y-101871428D01*
X237789523Y-101871428D01*
X237865714Y-101909523D01*
X237903809Y-101947619D01*
X237941904Y-102023809D01*
X237941904Y-102252380D01*
X237903809Y-102328571D01*
X237865714Y-102366666D01*
X240861904Y-142933333D02*
X240480952Y-143200000D01*
X240861904Y-143390476D02*
X240061904Y-143390476D01*
X240061904Y-143085714D01*
X240100000Y-143009523D01*
X240138095Y-142971428D01*
X240214285Y-142933333D01*
X240328571Y-142933333D01*
X240404761Y-142971428D01*
X240442857Y-143009523D01*
X240480952Y-143085714D01*
X240480952Y-143390476D01*
X240861904Y-142171428D02*
X240861904Y-142628571D01*
X240861904Y-142400000D02*
X240061904Y-142400000D01*
X240176190Y-142476190D01*
X240252380Y-142552380D01*
X240290476Y-142628571D01*
X233261904Y-106733333D02*
X232880952Y-107000000D01*
X233261904Y-107190476D02*
X232461904Y-107190476D01*
X232461904Y-106885714D01*
X232500000Y-106809523D01*
X232538095Y-106771428D01*
X232614285Y-106733333D01*
X232728571Y-106733333D01*
X232804761Y-106771428D01*
X232842857Y-106809523D01*
X232880952Y-106885714D01*
X232880952Y-107190476D01*
X232538095Y-106428571D02*
X232500000Y-106390476D01*
X232461904Y-106314285D01*
X232461904Y-106123809D01*
X232500000Y-106047619D01*
X232538095Y-106009523D01*
X232614285Y-105971428D01*
X232690476Y-105971428D01*
X232804761Y-106009523D01*
X233261904Y-106466666D01*
X233261904Y-105971428D01*
X238811904Y-135459523D02*
X239459523Y-135459523D01*
X239535714Y-135421428D01*
X239573809Y-135383333D01*
X239611904Y-135307142D01*
X239611904Y-135154761D01*
X239573809Y-135078571D01*
X239535714Y-135040476D01*
X239459523Y-135002380D01*
X238811904Y-135002380D01*
X238811904Y-134697619D02*
X238811904Y-134202380D01*
X239116666Y-134469047D01*
X239116666Y-134354761D01*
X239154761Y-134278571D01*
X239192857Y-134240476D01*
X239269047Y-134202380D01*
X239459523Y-134202380D01*
X239535714Y-134240476D01*
X239573809Y-134278571D01*
X239611904Y-134354761D01*
X239611904Y-134583333D01*
X239573809Y-134659523D01*
X239535714Y-134697619D01*
M02*
