M48
; DRILL file {KiCad 5.1.4+dfsg1-1} date Mon 25 May 2020 01:43:55 PM CEST
; FORMAT={-:-/ absolute / inch / decimal}
; #@! TF.CreationDate,2020-05-25T13:43:55+02:00
; #@! TF.GenerationSoftware,Kicad,Pcbnew,5.1.4+dfsg1-1
; #@! TF.FileFunction,Plated,1,2,PTH
FMAT,2
INCH
T1C0.0157
T2C0.0197
T3C0.0236
T4C0.0335
T5C0.0394
T6C0.0400
T7C0.0492
T8C0.0709
T9C0.1260
T10C0.1378
%
G90
G05
T1
X8.7756Y-4.4941
X8.8268Y-4.3996
X8.9793Y-4.6467
X9.0728Y-4.3425
X9.1378Y-4.248
X9.1831Y-4.435
X9.2185Y-4.1083
X9.2205Y-5.1496
X9.2215Y-5.0492
X9.2972Y-3.9508
X9.2992Y-4.7933
X9.3937Y-5.8189
X9.4114Y-5.374
X9.4665Y-5.4114
X9.5071Y-5.3122
X9.5728Y-4.4075
X9.626Y-4.4685
T2
X7.2982Y-4.0945
X7.3285Y-4.0214
X7.3285Y-4.1676
X7.4016Y-3.9911
X7.4016Y-4.1978
X7.4747Y-4.0214
X7.4747Y-4.1676
X7.5049Y-4.0945
X7.2982Y-5.7087
X7.3285Y-5.6356
X7.3285Y-5.7817
X7.4016Y-5.6053
X7.4016Y-5.812
X7.4747Y-5.6356
X7.4747Y-5.7817
X7.5049Y-5.7087
X9.5423Y-4.0945
X9.5726Y-4.0214
X9.5726Y-4.1676
X9.6457Y-3.9911
X9.6457Y-4.1978
X9.7187Y-4.0214
X9.7187Y-4.1676
X9.749Y-4.0945
X9.5423Y-5.7087
X9.5726Y-5.6356
X9.5726Y-5.7817
X9.6457Y-5.6053
X9.6457Y-5.812
X9.7187Y-5.6356
X9.7187Y-5.7817
X9.749Y-5.7087
T4
X9.6772Y-4.4331
X9.6772Y-4.6299
T5
X8.4496Y-5.5984
X8.5041Y-5.7102
X8.5587Y-5.5984
X8.6132Y-5.7102
X8.6677Y-5.5984
X8.7222Y-5.7102
X8.7768Y-5.5984
X8.8313Y-5.7102
X8.8858Y-5.5984
X9.5906Y-4.9173
X9.5906Y-5.0173
X8.7465Y-4.0709
X8.8465Y-4.0709
X8.9465Y-4.0709
X9.7205Y-5.2835
X9.7205Y-5.3835
T6
X8.6331Y-4.9929
X8.6331Y-5.0929
X8.6331Y-5.1929
X8.6331Y-5.2929
X8.7331Y-4.9929
X8.7331Y-5.0929
X8.7331Y-5.1929
X8.7331Y-5.2929
T7
X8.0945Y-4.1004
X8.0945Y-4.2776
X8.5866Y-4.1004
X8.5866Y-4.2776
T8
X8.3406Y-4.0118
X8.3406Y-4.3661
T9
X8.1756Y-5.6102
X9.1598Y-5.6102
T10
X7.4016Y-4.0945
X7.4016Y-5.7087
X9.6457Y-4.0945
X9.6457Y-5.7087
T3
G00X9.7697Y-4.3937
M15
G01X9.7972Y-4.3937
M16
G05
G00X9.7972Y-4.6693
M15
G01X9.7697Y-4.6693
M16
G05
T0
M30
