G04 #@! TF.GenerationSoftware,KiCad,Pcbnew,5.1.4+dfsg1-1*
G04 #@! TF.CreationDate,2020-05-25T13:43:52+02:00*
G04 #@! TF.ProjectId,Telemetry,54656c65-6d65-4747-9279-2e6b69636164,rev?*
G04 #@! TF.SameCoordinates,Original*
G04 #@! TF.FileFunction,Copper,L2,Bot*
G04 #@! TF.FilePolarity,Positive*
%FSLAX46Y46*%
G04 Gerber Fmt 4.6, Leading zero omitted, Abs format (unit mm)*
G04 Created by KiCad (PCBNEW 5.1.4+dfsg1-1) date 2020-05-25 13:43:52*
%MOMM*%
%LPD*%
G04 APERTURE LIST*
%ADD10O,1.727200X1.727200*%
%ADD11R,1.727200X1.727200*%
%ADD12O,1.900000X1.200000*%
%ADD13C,1.450000*%
%ADD14C,0.800000*%
%ADD15C,7.000000*%
%ADD16C,1.850000*%
%ADD17C,1.800000*%
%ADD18C,4.000000*%
%ADD19C,1.600000*%
%ADD20R,1.600000X1.600000*%
%ADD21O,1.700000X1.700000*%
%ADD22R,1.700000X1.700000*%
%ADD23C,0.250000*%
%ADD24C,0.254000*%
G04 APERTURE END LIST*
D10*
X219282000Y-134440000D03*
D11*
X221822000Y-134440000D03*
D10*
X219282000Y-131900000D03*
X221822000Y-131900000D03*
X219282000Y-129360000D03*
X221822000Y-129360000D03*
X219282000Y-126820000D03*
X221822000Y-126820000D03*
D12*
X248500000Y-111600000D03*
X248500000Y-118600000D03*
D13*
X245800000Y-112600000D03*
X245800000Y-117600000D03*
D14*
X243143845Y-105856155D03*
X245000000Y-106625000D03*
X246856155Y-105856155D03*
X247625000Y-104000000D03*
X246856155Y-102143845D03*
X245000000Y-101375000D03*
X243143845Y-102143845D03*
X242375000Y-104000000D03*
D15*
X245000000Y-104000000D03*
D14*
X189856155Y-143143845D03*
X188000000Y-142375000D03*
X186143845Y-143143845D03*
X185375000Y-145000000D03*
X186143845Y-146856155D03*
X188000000Y-147625000D03*
X189856155Y-146856155D03*
X190625000Y-145000000D03*
D15*
X188000000Y-145000000D03*
D14*
X186143845Y-105856155D03*
X188000000Y-106625000D03*
X189856155Y-105856155D03*
X190625000Y-104000000D03*
X189856155Y-102143845D03*
X188000000Y-101375000D03*
X186143845Y-102143845D03*
X185375000Y-104000000D03*
D15*
X188000000Y-104000000D03*
D14*
X246856155Y-143143845D03*
X245000000Y-142375000D03*
X243143845Y-143143845D03*
X242375000Y-145000000D03*
X243143845Y-146856155D03*
X245000000Y-147625000D03*
X246856155Y-146856155D03*
X247625000Y-145000000D03*
D15*
X245000000Y-145000000D03*
D16*
X218100000Y-108650000D03*
X205600000Y-108650000D03*
X218100000Y-104150000D03*
X205600000Y-104150000D03*
D17*
X211850000Y-101900000D03*
X211850000Y-110900000D03*
D18*
X232660000Y-142500000D03*
X207660000Y-142500000D03*
D19*
X216005000Y-145040000D03*
X218775000Y-145040000D03*
X221545000Y-145040000D03*
X224315000Y-145040000D03*
X214620000Y-142200000D03*
X217390000Y-142200000D03*
X220160000Y-142200000D03*
X222930000Y-142200000D03*
D20*
X225700000Y-142200000D03*
D21*
X227240000Y-103400000D03*
X224700000Y-103400000D03*
D22*
X222160000Y-103400000D03*
X246900000Y-134200000D03*
D21*
X246900000Y-136740000D03*
D22*
X243600000Y-124900000D03*
D21*
X243600000Y-127440000D03*
D14*
X224200000Y-111750000D03*
X222900000Y-114150000D03*
X241480000Y-134930000D03*
X240450000Y-137450000D03*
X239050000Y-136500000D03*
X234225000Y-128250000D03*
X234200000Y-130800000D03*
X238600000Y-147800000D03*
X243150000Y-111950000D03*
X244500000Y-113500000D03*
X236150000Y-100350000D03*
X234150000Y-104350000D03*
X228073959Y-118024990D03*
X232100000Y-107900000D03*
X236200000Y-121750000D03*
X233250000Y-112650000D03*
X230450000Y-110300000D03*
D23*
X222520000Y-114530000D02*
X222900000Y-114150000D01*
X222900000Y-114150000D02*
X222900000Y-114715685D01*
X222900000Y-114715685D02*
X222900000Y-119500000D01*
X232800000Y-112650000D02*
X233250000Y-112650000D01*
X230450000Y-110300000D02*
X232800000Y-112650000D01*
D24*
G36*
X226273000Y-111350000D02*
G01*
X226275440Y-111374776D01*
X226282667Y-111398601D01*
X226294403Y-111420557D01*
X226310197Y-111439803D01*
X226329443Y-111455597D01*
X226351399Y-111467333D01*
X226375224Y-111474560D01*
X226400000Y-111477000D01*
X227473000Y-111477000D01*
X227473000Y-112850000D01*
X227475440Y-112874776D01*
X227482667Y-112898601D01*
X227494403Y-112920557D01*
X227510197Y-112939803D01*
X227529443Y-112955597D01*
X227551399Y-112967333D01*
X227575224Y-112974560D01*
X227600000Y-112977000D01*
X228752658Y-112977000D01*
X229536868Y-113656011D01*
X229557197Y-113670384D01*
X229579938Y-113680516D01*
X229604220Y-113686016D01*
X229619665Y-113687000D01*
X231388652Y-113691668D01*
X231392342Y-114407685D01*
X229490313Y-114403000D01*
X229465530Y-114405380D01*
X229441688Y-114412548D01*
X229419703Y-114424230D01*
X229400419Y-114439977D01*
X229384577Y-114459183D01*
X229372787Y-114481110D01*
X229365502Y-114504917D01*
X229363131Y-114535767D01*
X229367096Y-114623000D01*
X227400000Y-114623000D01*
X227375224Y-114625440D01*
X227351399Y-114632667D01*
X227329443Y-114644403D01*
X227310197Y-114660197D01*
X227294403Y-114679443D01*
X227282667Y-114701399D01*
X227275440Y-114725224D01*
X227273000Y-114750000D01*
X227273000Y-115823000D01*
X226500000Y-115823000D01*
X226475224Y-115825440D01*
X226451399Y-115832667D01*
X226429443Y-115844403D01*
X226410197Y-115860197D01*
X226394403Y-115879443D01*
X226382667Y-115901399D01*
X226375440Y-115925224D01*
X226373000Y-115950000D01*
X226373000Y-117123000D01*
X222027000Y-117123000D01*
X222027000Y-110577000D01*
X226273000Y-110577000D01*
X226273000Y-111350000D01*
X226273000Y-111350000D01*
G37*
X226273000Y-111350000D02*
X226275440Y-111374776D01*
X226282667Y-111398601D01*
X226294403Y-111420557D01*
X226310197Y-111439803D01*
X226329443Y-111455597D01*
X226351399Y-111467333D01*
X226375224Y-111474560D01*
X226400000Y-111477000D01*
X227473000Y-111477000D01*
X227473000Y-112850000D01*
X227475440Y-112874776D01*
X227482667Y-112898601D01*
X227494403Y-112920557D01*
X227510197Y-112939803D01*
X227529443Y-112955597D01*
X227551399Y-112967333D01*
X227575224Y-112974560D01*
X227600000Y-112977000D01*
X228752658Y-112977000D01*
X229536868Y-113656011D01*
X229557197Y-113670384D01*
X229579938Y-113680516D01*
X229604220Y-113686016D01*
X229619665Y-113687000D01*
X231388652Y-113691668D01*
X231392342Y-114407685D01*
X229490313Y-114403000D01*
X229465530Y-114405380D01*
X229441688Y-114412548D01*
X229419703Y-114424230D01*
X229400419Y-114439977D01*
X229384577Y-114459183D01*
X229372787Y-114481110D01*
X229365502Y-114504917D01*
X229363131Y-114535767D01*
X229367096Y-114623000D01*
X227400000Y-114623000D01*
X227375224Y-114625440D01*
X227351399Y-114632667D01*
X227329443Y-114644403D01*
X227310197Y-114660197D01*
X227294403Y-114679443D01*
X227282667Y-114701399D01*
X227275440Y-114725224D01*
X227273000Y-114750000D01*
X227273000Y-115823000D01*
X226500000Y-115823000D01*
X226475224Y-115825440D01*
X226451399Y-115832667D01*
X226429443Y-115844403D01*
X226410197Y-115860197D01*
X226394403Y-115879443D01*
X226382667Y-115901399D01*
X226375440Y-115925224D01*
X226373000Y-115950000D01*
X226373000Y-117123000D01*
X222027000Y-117123000D01*
X222027000Y-110577000D01*
X226273000Y-110577000D01*
X226273000Y-111350000D01*
G36*
X245768083Y-99731173D02*
G01*
X246511891Y-99934656D01*
X247207905Y-100266638D01*
X247834130Y-100716626D01*
X248370777Y-101270403D01*
X248800871Y-101910451D01*
X249110829Y-102616553D01*
X249292065Y-103371457D01*
X249340001Y-104024220D01*
X249340001Y-110461560D01*
X249324901Y-110453489D01*
X249092102Y-110382870D01*
X248910665Y-110365000D01*
X248089335Y-110365000D01*
X247907898Y-110382870D01*
X247675099Y-110453489D01*
X247460551Y-110568167D01*
X247272498Y-110722498D01*
X247118167Y-110910551D01*
X247003489Y-111125099D01*
X246932870Y-111357898D01*
X246909025Y-111600000D01*
X246932870Y-111842102D01*
X246935883Y-111852035D01*
X246856381Y-111733051D01*
X246666949Y-111543619D01*
X246444201Y-111394784D01*
X246196697Y-111292264D01*
X245933948Y-111240000D01*
X245666052Y-111240000D01*
X245403303Y-111292264D01*
X245155799Y-111394784D01*
X244933051Y-111543619D01*
X244743619Y-111733051D01*
X244594784Y-111955799D01*
X244492264Y-112203303D01*
X244440000Y-112466052D01*
X244440000Y-112733948D01*
X244492264Y-112996697D01*
X244594784Y-113244201D01*
X244743619Y-113466949D01*
X244933051Y-113656381D01*
X245155799Y-113805216D01*
X245403303Y-113907736D01*
X245666052Y-113960000D01*
X245933948Y-113960000D01*
X246196697Y-113907736D01*
X246444201Y-113805216D01*
X246666949Y-113656381D01*
X246856381Y-113466949D01*
X247005216Y-113244201D01*
X247107736Y-112996697D01*
X247160000Y-112733948D01*
X247160000Y-112466052D01*
X247127016Y-112300232D01*
X247272498Y-112477502D01*
X247460551Y-112631833D01*
X247675099Y-112746511D01*
X247907898Y-112817130D01*
X248089335Y-112835000D01*
X248910665Y-112835000D01*
X249092102Y-112817130D01*
X249324901Y-112746511D01*
X249340001Y-112738440D01*
X249340001Y-117461560D01*
X249324901Y-117453489D01*
X249092102Y-117382870D01*
X248910665Y-117365000D01*
X248089335Y-117365000D01*
X247907898Y-117382870D01*
X247675099Y-117453489D01*
X247460551Y-117568167D01*
X247272498Y-117722498D01*
X247127016Y-117899768D01*
X247160000Y-117733948D01*
X247160000Y-117466052D01*
X247107736Y-117203303D01*
X247005216Y-116955799D01*
X246856381Y-116733051D01*
X246666949Y-116543619D01*
X246444201Y-116394784D01*
X246196697Y-116292264D01*
X245933948Y-116240000D01*
X245666052Y-116240000D01*
X245403303Y-116292264D01*
X245155799Y-116394784D01*
X244933051Y-116543619D01*
X244743619Y-116733051D01*
X244594784Y-116955799D01*
X244492264Y-117203303D01*
X244440000Y-117466052D01*
X244440000Y-117733948D01*
X244492264Y-117996697D01*
X244594784Y-118244201D01*
X244743619Y-118466949D01*
X244933051Y-118656381D01*
X245155799Y-118805216D01*
X245403303Y-118907736D01*
X245666052Y-118960000D01*
X245933948Y-118960000D01*
X246196697Y-118907736D01*
X246444201Y-118805216D01*
X246666949Y-118656381D01*
X246856381Y-118466949D01*
X246935883Y-118347965D01*
X246932870Y-118357898D01*
X246909025Y-118600000D01*
X246932870Y-118842102D01*
X247003489Y-119074901D01*
X247118167Y-119289449D01*
X247272498Y-119477502D01*
X247460551Y-119631833D01*
X247675099Y-119746511D01*
X247907898Y-119817130D01*
X248089335Y-119835000D01*
X248910665Y-119835000D01*
X249092102Y-119817130D01*
X249324901Y-119746511D01*
X249340001Y-119738440D01*
X249340000Y-144970608D01*
X249268827Y-145768083D01*
X249065344Y-146511890D01*
X248733363Y-147207904D01*
X248283374Y-147834130D01*
X247729597Y-148370777D01*
X247089549Y-148800871D01*
X246383447Y-149110829D01*
X245628543Y-149292065D01*
X244975793Y-149340000D01*
X188029392Y-149340000D01*
X187231917Y-149268827D01*
X186488110Y-149065344D01*
X185792096Y-148733363D01*
X185165870Y-148283374D01*
X184808073Y-147914155D01*
X185265450Y-147914155D01*
X185661634Y-148434550D01*
X186376612Y-148824748D01*
X187153976Y-149067964D01*
X187963853Y-149154851D01*
X188775118Y-149082069D01*
X189556597Y-148852415D01*
X190278256Y-148474715D01*
X190338366Y-148434550D01*
X190734550Y-147914155D01*
X242265450Y-147914155D01*
X242661634Y-148434550D01*
X243376612Y-148824748D01*
X244153976Y-149067964D01*
X244963853Y-149154851D01*
X245775118Y-149082069D01*
X246556597Y-148852415D01*
X247278256Y-148474715D01*
X247338366Y-148434550D01*
X247734550Y-147914155D01*
X245000000Y-145179605D01*
X242265450Y-147914155D01*
X190734550Y-147914155D01*
X188000000Y-145179605D01*
X185265450Y-147914155D01*
X184808073Y-147914155D01*
X184629223Y-147729597D01*
X184199129Y-147089549D01*
X183889171Y-146383447D01*
X183707935Y-145628543D01*
X183660000Y-144975793D01*
X183660000Y-144963853D01*
X183845149Y-144963853D01*
X183917931Y-145775118D01*
X184147585Y-146556597D01*
X184525285Y-147278256D01*
X184565450Y-147338366D01*
X185085845Y-147734550D01*
X187820395Y-145000000D01*
X188179605Y-145000000D01*
X190914155Y-147734550D01*
X191434550Y-147338366D01*
X191824748Y-146623388D01*
X192067964Y-145846024D01*
X192154851Y-145036147D01*
X192082069Y-144224882D01*
X191852415Y-143443403D01*
X191474715Y-142721744D01*
X191434550Y-142661634D01*
X190914155Y-142265450D01*
X188179605Y-145000000D01*
X187820395Y-145000000D01*
X185085845Y-142265450D01*
X184565450Y-142661634D01*
X184175252Y-143376612D01*
X183932036Y-144153976D01*
X183845149Y-144963853D01*
X183660000Y-144963853D01*
X183660000Y-142085845D01*
X185265450Y-142085845D01*
X188000000Y-144820395D01*
X190579920Y-142240475D01*
X205025000Y-142240475D01*
X205025000Y-142759525D01*
X205126261Y-143268601D01*
X205324893Y-143748141D01*
X205613262Y-144179715D01*
X205980285Y-144546738D01*
X206411859Y-144835107D01*
X206891399Y-145033739D01*
X207400475Y-145135000D01*
X207919525Y-145135000D01*
X208428601Y-145033739D01*
X208754698Y-144898665D01*
X214570000Y-144898665D01*
X214570000Y-145181335D01*
X214625147Y-145458574D01*
X214733320Y-145719727D01*
X214890363Y-145954759D01*
X215090241Y-146154637D01*
X215325273Y-146311680D01*
X215586426Y-146419853D01*
X215863665Y-146475000D01*
X216146335Y-146475000D01*
X216423574Y-146419853D01*
X216684727Y-146311680D01*
X216919759Y-146154637D01*
X217119637Y-145954759D01*
X217276680Y-145719727D01*
X217384853Y-145458574D01*
X217390000Y-145432699D01*
X217395147Y-145458574D01*
X217503320Y-145719727D01*
X217660363Y-145954759D01*
X217860241Y-146154637D01*
X218095273Y-146311680D01*
X218356426Y-146419853D01*
X218633665Y-146475000D01*
X218916335Y-146475000D01*
X219193574Y-146419853D01*
X219454727Y-146311680D01*
X219689759Y-146154637D01*
X219889637Y-145954759D01*
X220046680Y-145719727D01*
X220154853Y-145458574D01*
X220160000Y-145432699D01*
X220165147Y-145458574D01*
X220273320Y-145719727D01*
X220430363Y-145954759D01*
X220630241Y-146154637D01*
X220865273Y-146311680D01*
X221126426Y-146419853D01*
X221403665Y-146475000D01*
X221686335Y-146475000D01*
X221963574Y-146419853D01*
X222224727Y-146311680D01*
X222459759Y-146154637D01*
X222659637Y-145954759D01*
X222816680Y-145719727D01*
X222924853Y-145458574D01*
X222930000Y-145432699D01*
X222935147Y-145458574D01*
X223043320Y-145719727D01*
X223200363Y-145954759D01*
X223400241Y-146154637D01*
X223635273Y-146311680D01*
X223896426Y-146419853D01*
X224173665Y-146475000D01*
X224456335Y-146475000D01*
X224733574Y-146419853D01*
X224994727Y-146311680D01*
X225229759Y-146154637D01*
X225429637Y-145954759D01*
X225586680Y-145719727D01*
X225694853Y-145458574D01*
X225750000Y-145181335D01*
X225750000Y-144898665D01*
X225694853Y-144621426D01*
X225586680Y-144360273D01*
X225429637Y-144125241D01*
X225229759Y-143925363D01*
X224994727Y-143768320D01*
X224733574Y-143660147D01*
X224456335Y-143605000D01*
X224173665Y-143605000D01*
X223896426Y-143660147D01*
X223635273Y-143768320D01*
X223400241Y-143925363D01*
X223200363Y-144125241D01*
X223043320Y-144360273D01*
X222935147Y-144621426D01*
X222930000Y-144647301D01*
X222924853Y-144621426D01*
X222816680Y-144360273D01*
X222659637Y-144125241D01*
X222459759Y-143925363D01*
X222224727Y-143768320D01*
X221963574Y-143660147D01*
X221686335Y-143605000D01*
X221403665Y-143605000D01*
X221126426Y-143660147D01*
X220865273Y-143768320D01*
X220630241Y-143925363D01*
X220430363Y-144125241D01*
X220273320Y-144360273D01*
X220165147Y-144621426D01*
X220160000Y-144647301D01*
X220154853Y-144621426D01*
X220046680Y-144360273D01*
X219889637Y-144125241D01*
X219689759Y-143925363D01*
X219454727Y-143768320D01*
X219193574Y-143660147D01*
X218916335Y-143605000D01*
X218633665Y-143605000D01*
X218356426Y-143660147D01*
X218095273Y-143768320D01*
X217860241Y-143925363D01*
X217660363Y-144125241D01*
X217503320Y-144360273D01*
X217395147Y-144621426D01*
X217390000Y-144647301D01*
X217384853Y-144621426D01*
X217276680Y-144360273D01*
X217119637Y-144125241D01*
X216919759Y-143925363D01*
X216684727Y-143768320D01*
X216423574Y-143660147D01*
X216146335Y-143605000D01*
X215863665Y-143605000D01*
X215586426Y-143660147D01*
X215325273Y-143768320D01*
X215090241Y-143925363D01*
X214890363Y-144125241D01*
X214733320Y-144360273D01*
X214625147Y-144621426D01*
X214570000Y-144898665D01*
X208754698Y-144898665D01*
X208908141Y-144835107D01*
X209339715Y-144546738D01*
X209706738Y-144179715D01*
X209995107Y-143748141D01*
X210193739Y-143268601D01*
X210295000Y-142759525D01*
X210295000Y-142240475D01*
X210258836Y-142058665D01*
X213185000Y-142058665D01*
X213185000Y-142341335D01*
X213240147Y-142618574D01*
X213348320Y-142879727D01*
X213505363Y-143114759D01*
X213705241Y-143314637D01*
X213940273Y-143471680D01*
X214201426Y-143579853D01*
X214478665Y-143635000D01*
X214761335Y-143635000D01*
X215038574Y-143579853D01*
X215299727Y-143471680D01*
X215534759Y-143314637D01*
X215734637Y-143114759D01*
X215891680Y-142879727D01*
X215999853Y-142618574D01*
X216005000Y-142592699D01*
X216010147Y-142618574D01*
X216118320Y-142879727D01*
X216275363Y-143114759D01*
X216475241Y-143314637D01*
X216710273Y-143471680D01*
X216971426Y-143579853D01*
X217248665Y-143635000D01*
X217531335Y-143635000D01*
X217808574Y-143579853D01*
X218069727Y-143471680D01*
X218304759Y-143314637D01*
X218426694Y-143192702D01*
X219346903Y-143192702D01*
X219418486Y-143436671D01*
X219673996Y-143557571D01*
X219948184Y-143626300D01*
X220230512Y-143640217D01*
X220510130Y-143598787D01*
X220776292Y-143503603D01*
X220901514Y-143436671D01*
X220973097Y-143192702D01*
X220160000Y-142379605D01*
X219346903Y-143192702D01*
X218426694Y-143192702D01*
X218504637Y-143114759D01*
X218661680Y-142879727D01*
X218769853Y-142618574D01*
X218775513Y-142590118D01*
X218856397Y-142816292D01*
X218923329Y-142941514D01*
X219167298Y-143013097D01*
X219980395Y-142200000D01*
X220339605Y-142200000D01*
X221152702Y-143013097D01*
X221396671Y-142941514D01*
X221517571Y-142686004D01*
X221543212Y-142583711D01*
X221550147Y-142618574D01*
X221658320Y-142879727D01*
X221815363Y-143114759D01*
X222015241Y-143314637D01*
X222250273Y-143471680D01*
X222511426Y-143579853D01*
X222788665Y-143635000D01*
X223071335Y-143635000D01*
X223348574Y-143579853D01*
X223609727Y-143471680D01*
X223844759Y-143314637D01*
X224044637Y-143114759D01*
X224201680Y-142879727D01*
X224261928Y-142734275D01*
X224261928Y-143000000D01*
X224274188Y-143124482D01*
X224310498Y-143244180D01*
X224369463Y-143354494D01*
X224448815Y-143451185D01*
X224545506Y-143530537D01*
X224655820Y-143589502D01*
X224775518Y-143625812D01*
X224900000Y-143638072D01*
X226500000Y-143638072D01*
X226624482Y-143625812D01*
X226744180Y-143589502D01*
X226854494Y-143530537D01*
X226951185Y-143451185D01*
X227030537Y-143354494D01*
X227089502Y-143244180D01*
X227125812Y-143124482D01*
X227138072Y-143000000D01*
X227138072Y-142240475D01*
X230025000Y-142240475D01*
X230025000Y-142759525D01*
X230126261Y-143268601D01*
X230324893Y-143748141D01*
X230613262Y-144179715D01*
X230980285Y-144546738D01*
X231411859Y-144835107D01*
X231891399Y-145033739D01*
X232400475Y-145135000D01*
X232919525Y-145135000D01*
X233428601Y-145033739D01*
X233597320Y-144963853D01*
X240845149Y-144963853D01*
X240917931Y-145775118D01*
X241147585Y-146556597D01*
X241525285Y-147278256D01*
X241565450Y-147338366D01*
X242085845Y-147734550D01*
X244820395Y-145000000D01*
X245179605Y-145000000D01*
X247914155Y-147734550D01*
X248434550Y-147338366D01*
X248824748Y-146623388D01*
X249067964Y-145846024D01*
X249154851Y-145036147D01*
X249082069Y-144224882D01*
X248852415Y-143443403D01*
X248474715Y-142721744D01*
X248434550Y-142661634D01*
X247914155Y-142265450D01*
X245179605Y-145000000D01*
X244820395Y-145000000D01*
X242085845Y-142265450D01*
X241565450Y-142661634D01*
X241175252Y-143376612D01*
X240932036Y-144153976D01*
X240845149Y-144963853D01*
X233597320Y-144963853D01*
X233908141Y-144835107D01*
X234339715Y-144546738D01*
X234706738Y-144179715D01*
X234995107Y-143748141D01*
X235193739Y-143268601D01*
X235295000Y-142759525D01*
X235295000Y-142240475D01*
X235264243Y-142085845D01*
X242265450Y-142085845D01*
X245000000Y-144820395D01*
X247734550Y-142085845D01*
X247338366Y-141565450D01*
X246623388Y-141175252D01*
X245846024Y-140932036D01*
X245036147Y-140845149D01*
X244224882Y-140917931D01*
X243443403Y-141147585D01*
X242721744Y-141525285D01*
X242661634Y-141565450D01*
X242265450Y-142085845D01*
X235264243Y-142085845D01*
X235193739Y-141731399D01*
X234995107Y-141251859D01*
X234706738Y-140820285D01*
X234339715Y-140453262D01*
X233908141Y-140164893D01*
X233428601Y-139966261D01*
X232919525Y-139865000D01*
X232400475Y-139865000D01*
X231891399Y-139966261D01*
X231411859Y-140164893D01*
X230980285Y-140453262D01*
X230613262Y-140820285D01*
X230324893Y-141251859D01*
X230126261Y-141731399D01*
X230025000Y-142240475D01*
X227138072Y-142240475D01*
X227138072Y-141400000D01*
X227125812Y-141275518D01*
X227089502Y-141155820D01*
X227030537Y-141045506D01*
X226951185Y-140948815D01*
X226854494Y-140869463D01*
X226744180Y-140810498D01*
X226624482Y-140774188D01*
X226500000Y-140761928D01*
X224900000Y-140761928D01*
X224775518Y-140774188D01*
X224655820Y-140810498D01*
X224545506Y-140869463D01*
X224448815Y-140948815D01*
X224369463Y-141045506D01*
X224310498Y-141155820D01*
X224274188Y-141275518D01*
X224261928Y-141400000D01*
X224261928Y-141665725D01*
X224201680Y-141520273D01*
X224044637Y-141285241D01*
X223844759Y-141085363D01*
X223609727Y-140928320D01*
X223348574Y-140820147D01*
X223071335Y-140765000D01*
X222788665Y-140765000D01*
X222511426Y-140820147D01*
X222250273Y-140928320D01*
X222015241Y-141085363D01*
X221815363Y-141285241D01*
X221658320Y-141520273D01*
X221550147Y-141781426D01*
X221544487Y-141809882D01*
X221463603Y-141583708D01*
X221396671Y-141458486D01*
X221152702Y-141386903D01*
X220339605Y-142200000D01*
X219980395Y-142200000D01*
X219167298Y-141386903D01*
X218923329Y-141458486D01*
X218802429Y-141713996D01*
X218776788Y-141816289D01*
X218769853Y-141781426D01*
X218661680Y-141520273D01*
X218504637Y-141285241D01*
X218426694Y-141207298D01*
X219346903Y-141207298D01*
X220160000Y-142020395D01*
X220973097Y-141207298D01*
X220901514Y-140963329D01*
X220646004Y-140842429D01*
X220371816Y-140773700D01*
X220089488Y-140759783D01*
X219809870Y-140801213D01*
X219543708Y-140896397D01*
X219418486Y-140963329D01*
X219346903Y-141207298D01*
X218426694Y-141207298D01*
X218304759Y-141085363D01*
X218069727Y-140928320D01*
X217808574Y-140820147D01*
X217531335Y-140765000D01*
X217248665Y-140765000D01*
X216971426Y-140820147D01*
X216710273Y-140928320D01*
X216475241Y-141085363D01*
X216275363Y-141285241D01*
X216118320Y-141520273D01*
X216010147Y-141781426D01*
X216005000Y-141807301D01*
X215999853Y-141781426D01*
X215891680Y-141520273D01*
X215734637Y-141285241D01*
X215534759Y-141085363D01*
X215299727Y-140928320D01*
X215038574Y-140820147D01*
X214761335Y-140765000D01*
X214478665Y-140765000D01*
X214201426Y-140820147D01*
X213940273Y-140928320D01*
X213705241Y-141085363D01*
X213505363Y-141285241D01*
X213348320Y-141520273D01*
X213240147Y-141781426D01*
X213185000Y-142058665D01*
X210258836Y-142058665D01*
X210193739Y-141731399D01*
X209995107Y-141251859D01*
X209706738Y-140820285D01*
X209339715Y-140453262D01*
X208908141Y-140164893D01*
X208428601Y-139966261D01*
X207919525Y-139865000D01*
X207400475Y-139865000D01*
X206891399Y-139966261D01*
X206411859Y-140164893D01*
X205980285Y-140453262D01*
X205613262Y-140820285D01*
X205324893Y-141251859D01*
X205126261Y-141731399D01*
X205025000Y-142240475D01*
X190579920Y-142240475D01*
X190734550Y-142085845D01*
X190338366Y-141565450D01*
X189623388Y-141175252D01*
X188846024Y-140932036D01*
X188036147Y-140845149D01*
X187224882Y-140917931D01*
X186443403Y-141147585D01*
X185721744Y-141525285D01*
X185661634Y-141565450D01*
X185265450Y-142085845D01*
X183660000Y-142085845D01*
X183660000Y-136740000D01*
X245407815Y-136740000D01*
X245436487Y-137031111D01*
X245521401Y-137311034D01*
X245659294Y-137569014D01*
X245844866Y-137795134D01*
X246070986Y-137980706D01*
X246328966Y-138118599D01*
X246608889Y-138203513D01*
X246827050Y-138225000D01*
X246972950Y-138225000D01*
X247191111Y-138203513D01*
X247471034Y-138118599D01*
X247729014Y-137980706D01*
X247955134Y-137795134D01*
X248140706Y-137569014D01*
X248278599Y-137311034D01*
X248363513Y-137031111D01*
X248392185Y-136740000D01*
X248363513Y-136448889D01*
X248278599Y-136168966D01*
X248140706Y-135910986D01*
X247955134Y-135684866D01*
X247925313Y-135660393D01*
X247994180Y-135639502D01*
X248104494Y-135580537D01*
X248201185Y-135501185D01*
X248280537Y-135404494D01*
X248339502Y-135294180D01*
X248375812Y-135174482D01*
X248388072Y-135050000D01*
X248385000Y-134485750D01*
X248226250Y-134327000D01*
X247027000Y-134327000D01*
X247027000Y-134347000D01*
X246773000Y-134347000D01*
X246773000Y-134327000D01*
X245573750Y-134327000D01*
X245415000Y-134485750D01*
X245411928Y-135050000D01*
X245424188Y-135174482D01*
X245460498Y-135294180D01*
X245519463Y-135404494D01*
X245598815Y-135501185D01*
X245695506Y-135580537D01*
X245805820Y-135639502D01*
X245874687Y-135660393D01*
X245844866Y-135684866D01*
X245659294Y-135910986D01*
X245521401Y-136168966D01*
X245436487Y-136448889D01*
X245407815Y-136740000D01*
X183660000Y-136740000D01*
X183660000Y-126820000D01*
X217776149Y-126820000D01*
X217805084Y-127113777D01*
X217890775Y-127396264D01*
X218029931Y-127656606D01*
X218217203Y-127884797D01*
X218445394Y-128072069D01*
X218478940Y-128090000D01*
X218445394Y-128107931D01*
X218217203Y-128295203D01*
X218029931Y-128523394D01*
X217890775Y-128783736D01*
X217805084Y-129066223D01*
X217776149Y-129360000D01*
X217805084Y-129653777D01*
X217890775Y-129936264D01*
X218029931Y-130196606D01*
X218217203Y-130424797D01*
X218445394Y-130612069D01*
X218478940Y-130630000D01*
X218445394Y-130647931D01*
X218217203Y-130835203D01*
X218029931Y-131063394D01*
X217890775Y-131323736D01*
X217805084Y-131606223D01*
X217776149Y-131900000D01*
X217805084Y-132193777D01*
X217890775Y-132476264D01*
X218029931Y-132736606D01*
X218217203Y-132964797D01*
X218445394Y-133152069D01*
X218478940Y-133170000D01*
X218445394Y-133187931D01*
X218217203Y-133375203D01*
X218029931Y-133603394D01*
X217890775Y-133863736D01*
X217805084Y-134146223D01*
X217776149Y-134440000D01*
X217805084Y-134733777D01*
X217890775Y-135016264D01*
X218029931Y-135276606D01*
X218217203Y-135504797D01*
X218445394Y-135692069D01*
X218705736Y-135831225D01*
X218988223Y-135916916D01*
X219208381Y-135938600D01*
X219355619Y-135938600D01*
X219575777Y-135916916D01*
X219858264Y-135831225D01*
X220118606Y-135692069D01*
X220346797Y-135504797D01*
X220353414Y-135496735D01*
X220368898Y-135547780D01*
X220427863Y-135658094D01*
X220507215Y-135754785D01*
X220603906Y-135834137D01*
X220714220Y-135893102D01*
X220833918Y-135929412D01*
X220958400Y-135941672D01*
X221536250Y-135938600D01*
X221695000Y-135779850D01*
X221695000Y-134567000D01*
X221949000Y-134567000D01*
X221949000Y-135779850D01*
X222107750Y-135938600D01*
X222685600Y-135941672D01*
X222810082Y-135929412D01*
X222929780Y-135893102D01*
X223040094Y-135834137D01*
X223136785Y-135754785D01*
X223216137Y-135658094D01*
X223275102Y-135547780D01*
X223311412Y-135428082D01*
X223323672Y-135303600D01*
X223320600Y-134725750D01*
X223161850Y-134567000D01*
X221949000Y-134567000D01*
X221695000Y-134567000D01*
X221675000Y-134567000D01*
X221675000Y-134313000D01*
X221695000Y-134313000D01*
X221695000Y-134293000D01*
X221949000Y-134293000D01*
X221949000Y-134313000D01*
X223161850Y-134313000D01*
X223320600Y-134154250D01*
X223323672Y-133576400D01*
X223311412Y-133451918D01*
X223280496Y-133350000D01*
X245411928Y-133350000D01*
X245415000Y-133914250D01*
X245573750Y-134073000D01*
X246773000Y-134073000D01*
X246773000Y-132873750D01*
X247027000Y-132873750D01*
X247027000Y-134073000D01*
X248226250Y-134073000D01*
X248385000Y-133914250D01*
X248388072Y-133350000D01*
X248375812Y-133225518D01*
X248339502Y-133105820D01*
X248280537Y-132995506D01*
X248201185Y-132898815D01*
X248104494Y-132819463D01*
X247994180Y-132760498D01*
X247874482Y-132724188D01*
X247750000Y-132711928D01*
X247185750Y-132715000D01*
X247027000Y-132873750D01*
X246773000Y-132873750D01*
X246614250Y-132715000D01*
X246050000Y-132711928D01*
X245925518Y-132724188D01*
X245805820Y-132760498D01*
X245695506Y-132819463D01*
X245598815Y-132898815D01*
X245519463Y-132995506D01*
X245460498Y-133105820D01*
X245424188Y-133225518D01*
X245411928Y-133350000D01*
X223280496Y-133350000D01*
X223275102Y-133332220D01*
X223216137Y-133221906D01*
X223136785Y-133125215D01*
X223040094Y-133045863D01*
X222929780Y-132986898D01*
X222878735Y-132971414D01*
X222886797Y-132964797D01*
X223074069Y-132736606D01*
X223213225Y-132476264D01*
X223298916Y-132193777D01*
X223327851Y-131900000D01*
X223298916Y-131606223D01*
X223213225Y-131323736D01*
X223074069Y-131063394D01*
X222886797Y-130835203D01*
X222658606Y-130647931D01*
X222625060Y-130630000D01*
X222658606Y-130612069D01*
X222886797Y-130424797D01*
X223074069Y-130196606D01*
X223213225Y-129936264D01*
X223298916Y-129653777D01*
X223327851Y-129360000D01*
X223298916Y-129066223D01*
X223213225Y-128783736D01*
X223074069Y-128523394D01*
X222886797Y-128295203D01*
X222658606Y-128107931D01*
X222625060Y-128090000D01*
X222658606Y-128072069D01*
X222886797Y-127884797D01*
X223074069Y-127656606D01*
X223189847Y-127440000D01*
X242107815Y-127440000D01*
X242136487Y-127731111D01*
X242221401Y-128011034D01*
X242359294Y-128269014D01*
X242544866Y-128495134D01*
X242770986Y-128680706D01*
X243028966Y-128818599D01*
X243308889Y-128903513D01*
X243527050Y-128925000D01*
X243672950Y-128925000D01*
X243891111Y-128903513D01*
X244171034Y-128818599D01*
X244429014Y-128680706D01*
X244655134Y-128495134D01*
X244840706Y-128269014D01*
X244978599Y-128011034D01*
X245063513Y-127731111D01*
X245092185Y-127440000D01*
X245063513Y-127148889D01*
X244978599Y-126868966D01*
X244840706Y-126610986D01*
X244655134Y-126384866D01*
X244625313Y-126360393D01*
X244694180Y-126339502D01*
X244804494Y-126280537D01*
X244901185Y-126201185D01*
X244980537Y-126104494D01*
X245039502Y-125994180D01*
X245075812Y-125874482D01*
X245088072Y-125750000D01*
X245085000Y-125185750D01*
X244926250Y-125027000D01*
X243727000Y-125027000D01*
X243727000Y-125047000D01*
X243473000Y-125047000D01*
X243473000Y-125027000D01*
X242273750Y-125027000D01*
X242115000Y-125185750D01*
X242111928Y-125750000D01*
X242124188Y-125874482D01*
X242160498Y-125994180D01*
X242219463Y-126104494D01*
X242298815Y-126201185D01*
X242395506Y-126280537D01*
X242505820Y-126339502D01*
X242574687Y-126360393D01*
X242544866Y-126384866D01*
X242359294Y-126610986D01*
X242221401Y-126868966D01*
X242136487Y-127148889D01*
X242107815Y-127440000D01*
X223189847Y-127440000D01*
X223213225Y-127396264D01*
X223298916Y-127113777D01*
X223327851Y-126820000D01*
X223298916Y-126526223D01*
X223213225Y-126243736D01*
X223074069Y-125983394D01*
X222886797Y-125755203D01*
X222658606Y-125567931D01*
X222398264Y-125428775D01*
X222115777Y-125343084D01*
X221895619Y-125321400D01*
X221748381Y-125321400D01*
X221528223Y-125343084D01*
X221245736Y-125428775D01*
X220985394Y-125567931D01*
X220757203Y-125755203D01*
X220569931Y-125983394D01*
X220552000Y-126016940D01*
X220534069Y-125983394D01*
X220346797Y-125755203D01*
X220118606Y-125567931D01*
X219858264Y-125428775D01*
X219575777Y-125343084D01*
X219355619Y-125321400D01*
X219208381Y-125321400D01*
X218988223Y-125343084D01*
X218705736Y-125428775D01*
X218445394Y-125567931D01*
X218217203Y-125755203D01*
X218029931Y-125983394D01*
X217890775Y-126243736D01*
X217805084Y-126526223D01*
X217776149Y-126820000D01*
X183660000Y-126820000D01*
X183660000Y-124050000D01*
X242111928Y-124050000D01*
X242115000Y-124614250D01*
X242273750Y-124773000D01*
X243473000Y-124773000D01*
X243473000Y-123573750D01*
X243727000Y-123573750D01*
X243727000Y-124773000D01*
X244926250Y-124773000D01*
X245085000Y-124614250D01*
X245088072Y-124050000D01*
X245075812Y-123925518D01*
X245039502Y-123805820D01*
X244980537Y-123695506D01*
X244901185Y-123598815D01*
X244804494Y-123519463D01*
X244694180Y-123460498D01*
X244574482Y-123424188D01*
X244450000Y-123411928D01*
X243885750Y-123415000D01*
X243727000Y-123573750D01*
X243473000Y-123573750D01*
X243314250Y-123415000D01*
X242750000Y-123411928D01*
X242625518Y-123424188D01*
X242505820Y-123460498D01*
X242395506Y-123519463D01*
X242298815Y-123598815D01*
X242219463Y-123695506D01*
X242160498Y-123805820D01*
X242124188Y-123925518D01*
X242111928Y-124050000D01*
X183660000Y-124050000D01*
X183660000Y-110127000D01*
X205089317Y-110127000D01*
X205144965Y-110150050D01*
X205446353Y-110210000D01*
X205753647Y-110210000D01*
X206055035Y-110150050D01*
X206110683Y-110127000D01*
X210520374Y-110127000D01*
X210489701Y-110172905D01*
X210373989Y-110452257D01*
X210315000Y-110748816D01*
X210315000Y-111051184D01*
X210373989Y-111347743D01*
X210489701Y-111627095D01*
X210657688Y-111878505D01*
X210871495Y-112092312D01*
X211122905Y-112260299D01*
X211402257Y-112376011D01*
X211698816Y-112435000D01*
X212001184Y-112435000D01*
X212297743Y-112376011D01*
X212577095Y-112260299D01*
X212828505Y-112092312D01*
X213042312Y-111878505D01*
X213210299Y-111627095D01*
X213326011Y-111347743D01*
X213385000Y-111051184D01*
X213385000Y-110748816D01*
X213326011Y-110452257D01*
X213210299Y-110172905D01*
X213179626Y-110127000D01*
X217580402Y-110127000D01*
X217858757Y-110198873D01*
X218165562Y-110216176D01*
X218469848Y-110173292D01*
X218602243Y-110127000D01*
X220473000Y-110127000D01*
X220473000Y-118300000D01*
X220475440Y-118324776D01*
X220482667Y-118348601D01*
X220494403Y-118370557D01*
X220510197Y-118389803D01*
X220529443Y-118405597D01*
X220551399Y-118417333D01*
X220575224Y-118424560D01*
X220600000Y-118427000D01*
X227700000Y-118427000D01*
X227724776Y-118424560D01*
X227748601Y-118417333D01*
X227770557Y-118405597D01*
X227789803Y-118389803D01*
X227805597Y-118370557D01*
X227817333Y-118348601D01*
X227824560Y-118324776D01*
X227826970Y-118297240D01*
X227778227Y-116055065D01*
X228799098Y-115127000D01*
X231800000Y-115127000D01*
X231824776Y-115124560D01*
X231848601Y-115117333D01*
X231870557Y-115105597D01*
X231889803Y-115089803D01*
X231905597Y-115070557D01*
X231917333Y-115048601D01*
X231924560Y-115024776D01*
X231927000Y-115000000D01*
X231927000Y-113100000D01*
X231924560Y-113075224D01*
X231917333Y-113051399D01*
X231905597Y-113029443D01*
X231889803Y-113010197D01*
X231870557Y-112994403D01*
X231848601Y-112982667D01*
X231824776Y-112975440D01*
X231800000Y-112973000D01*
X230032620Y-112973000D01*
X228127000Y-111924909D01*
X228127000Y-110198061D01*
X229415000Y-110198061D01*
X229415000Y-110401939D01*
X229454774Y-110601898D01*
X229532795Y-110790256D01*
X229646063Y-110959774D01*
X229790226Y-111103937D01*
X229959744Y-111217205D01*
X230148102Y-111295226D01*
X230348061Y-111335000D01*
X230410199Y-111335000D01*
X232236201Y-113161003D01*
X232259999Y-113190001D01*
X232375724Y-113284974D01*
X232473556Y-113337267D01*
X232590226Y-113453937D01*
X232759744Y-113567205D01*
X232948102Y-113645226D01*
X233148061Y-113685000D01*
X233351939Y-113685000D01*
X233551898Y-113645226D01*
X233740256Y-113567205D01*
X233909774Y-113453937D01*
X234053937Y-113309774D01*
X234167205Y-113140256D01*
X234245226Y-112951898D01*
X234285000Y-112751939D01*
X234285000Y-112548061D01*
X234245226Y-112348102D01*
X234167205Y-112159744D01*
X234053937Y-111990226D01*
X233909774Y-111846063D01*
X233740256Y-111732795D01*
X233551898Y-111654774D01*
X233351939Y-111615000D01*
X233148061Y-111615000D01*
X232948102Y-111654774D01*
X232899647Y-111674845D01*
X231485000Y-110260199D01*
X231485000Y-110198061D01*
X231445226Y-109998102D01*
X231367205Y-109809744D01*
X231253937Y-109640226D01*
X231109774Y-109496063D01*
X230940256Y-109382795D01*
X230751898Y-109304774D01*
X230551939Y-109265000D01*
X230348061Y-109265000D01*
X230148102Y-109304774D01*
X229959744Y-109382795D01*
X229790226Y-109496063D01*
X229646063Y-109640226D01*
X229532795Y-109809744D01*
X229454774Y-109998102D01*
X229415000Y-110198061D01*
X228127000Y-110198061D01*
X228127000Y-109200000D01*
X228124560Y-109175224D01*
X228117333Y-109151399D01*
X228105597Y-109129443D01*
X228089803Y-109110197D01*
X228070557Y-109094403D01*
X228048601Y-109082667D01*
X228024776Y-109075440D01*
X228000000Y-109073000D01*
X220600000Y-109073000D01*
X220575224Y-109075440D01*
X220551399Y-109082667D01*
X220529443Y-109094403D01*
X220510197Y-109110197D01*
X220494403Y-109129443D01*
X220482667Y-109151399D01*
X220475440Y-109175224D01*
X220473000Y-109200000D01*
X220473000Y-109873000D01*
X218954665Y-109873000D01*
X219002312Y-109731917D01*
X218100000Y-108829605D01*
X217197688Y-109731917D01*
X217245335Y-109873000D01*
X212993817Y-109873000D01*
X212828505Y-109707688D01*
X212577095Y-109539701D01*
X212297743Y-109423989D01*
X212001184Y-109365000D01*
X211698816Y-109365000D01*
X211402257Y-109423989D01*
X211122905Y-109539701D01*
X210871495Y-109707688D01*
X210706183Y-109873000D01*
X206577577Y-109873000D01*
X206594442Y-109861731D01*
X206811731Y-109644442D01*
X206982454Y-109388937D01*
X207100050Y-109105035D01*
X207160000Y-108803647D01*
X207160000Y-108715562D01*
X216533824Y-108715562D01*
X216576708Y-109019848D01*
X216678132Y-109309921D01*
X216761347Y-109465607D01*
X217018083Y-109552312D01*
X217920395Y-108650000D01*
X218279605Y-108650000D01*
X219181917Y-109552312D01*
X219438653Y-109465607D01*
X219572048Y-109188777D01*
X219648873Y-108891243D01*
X219666176Y-108584438D01*
X219623292Y-108280152D01*
X219521868Y-107990079D01*
X219438653Y-107834393D01*
X219181917Y-107747688D01*
X218279605Y-108650000D01*
X217920395Y-108650000D01*
X217018083Y-107747688D01*
X216761347Y-107834393D01*
X216627952Y-108111223D01*
X216551127Y-108408757D01*
X216533824Y-108715562D01*
X207160000Y-108715562D01*
X207160000Y-108496353D01*
X207100050Y-108194965D01*
X206982454Y-107911063D01*
X206811731Y-107655558D01*
X206724256Y-107568083D01*
X217197688Y-107568083D01*
X218100000Y-108470395D01*
X219002312Y-107568083D01*
X218915607Y-107311347D01*
X218638777Y-107177952D01*
X218341243Y-107101127D01*
X218034438Y-107083824D01*
X217730152Y-107126708D01*
X217440079Y-107228132D01*
X217284393Y-107311347D01*
X217197688Y-107568083D01*
X206724256Y-107568083D01*
X206594442Y-107438269D01*
X206338937Y-107267546D01*
X206055035Y-107149950D01*
X205753647Y-107090000D01*
X205446353Y-107090000D01*
X205144965Y-107149950D01*
X204861063Y-107267546D01*
X204605558Y-107438269D01*
X204388269Y-107655558D01*
X204217546Y-107911063D01*
X204099950Y-108194965D01*
X204040000Y-108496353D01*
X204040000Y-108803647D01*
X204099950Y-109105035D01*
X204217546Y-109388937D01*
X204388269Y-109644442D01*
X204605558Y-109861731D01*
X204622423Y-109873000D01*
X183660000Y-109873000D01*
X183660000Y-106914155D01*
X185265450Y-106914155D01*
X185661634Y-107434550D01*
X186376612Y-107824748D01*
X187153976Y-108067964D01*
X187963853Y-108154851D01*
X188775118Y-108082069D01*
X189556597Y-107852415D01*
X190278256Y-107474715D01*
X190338366Y-107434550D01*
X190734550Y-106914155D01*
X242265450Y-106914155D01*
X242661634Y-107434550D01*
X243376612Y-107824748D01*
X244153976Y-108067964D01*
X244963853Y-108154851D01*
X245775118Y-108082069D01*
X246556597Y-107852415D01*
X247278256Y-107474715D01*
X247338366Y-107434550D01*
X247734550Y-106914155D01*
X245000000Y-104179605D01*
X242265450Y-106914155D01*
X190734550Y-106914155D01*
X188000000Y-104179605D01*
X185265450Y-106914155D01*
X183660000Y-106914155D01*
X183660000Y-104029392D01*
X183665849Y-103963853D01*
X183845149Y-103963853D01*
X183917931Y-104775118D01*
X184147585Y-105556597D01*
X184525285Y-106278256D01*
X184565450Y-106338366D01*
X185085845Y-106734550D01*
X187820395Y-104000000D01*
X188179605Y-104000000D01*
X190914155Y-106734550D01*
X191434550Y-106338366D01*
X191824748Y-105623388D01*
X192067964Y-104846024D01*
X192154851Y-104036147D01*
X192151281Y-103996353D01*
X204040000Y-103996353D01*
X204040000Y-104303647D01*
X204099950Y-104605035D01*
X204217546Y-104888937D01*
X204388269Y-105144442D01*
X204605558Y-105361731D01*
X204861063Y-105532454D01*
X205144965Y-105650050D01*
X205446353Y-105710000D01*
X205753647Y-105710000D01*
X206055035Y-105650050D01*
X206338937Y-105532454D01*
X206594442Y-105361731D01*
X206811731Y-105144442D01*
X206982454Y-104888937D01*
X207100050Y-104605035D01*
X207160000Y-104303647D01*
X207160000Y-103996353D01*
X216540000Y-103996353D01*
X216540000Y-104303647D01*
X216599950Y-104605035D01*
X216717546Y-104888937D01*
X216888269Y-105144442D01*
X217105558Y-105361731D01*
X217361063Y-105532454D01*
X217644965Y-105650050D01*
X217946353Y-105710000D01*
X218253647Y-105710000D01*
X218555035Y-105650050D01*
X218838937Y-105532454D01*
X219094442Y-105361731D01*
X219311731Y-105144442D01*
X219482454Y-104888937D01*
X219600050Y-104605035D01*
X219660000Y-104303647D01*
X219660000Y-103996353D01*
X219600050Y-103694965D01*
X219482454Y-103411063D01*
X219311731Y-103155558D01*
X219094442Y-102938269D01*
X218838937Y-102767546D01*
X218555035Y-102649950D01*
X218253647Y-102590000D01*
X217946353Y-102590000D01*
X217644965Y-102649950D01*
X217361063Y-102767546D01*
X217105558Y-102938269D01*
X216888269Y-103155558D01*
X216717546Y-103411063D01*
X216599950Y-103694965D01*
X216540000Y-103996353D01*
X207160000Y-103996353D01*
X207100050Y-103694965D01*
X206982454Y-103411063D01*
X206811731Y-103155558D01*
X206594442Y-102938269D01*
X206338937Y-102767546D01*
X206055035Y-102649950D01*
X205753647Y-102590000D01*
X205446353Y-102590000D01*
X205144965Y-102649950D01*
X204861063Y-102767546D01*
X204605558Y-102938269D01*
X204388269Y-103155558D01*
X204217546Y-103411063D01*
X204099950Y-103694965D01*
X204040000Y-103996353D01*
X192151281Y-103996353D01*
X192082069Y-103224882D01*
X191852415Y-102443403D01*
X191488884Y-101748816D01*
X210315000Y-101748816D01*
X210315000Y-102051184D01*
X210373989Y-102347743D01*
X210489701Y-102627095D01*
X210657688Y-102878505D01*
X210871495Y-103092312D01*
X211122905Y-103260299D01*
X211402257Y-103376011D01*
X211698816Y-103435000D01*
X212001184Y-103435000D01*
X212297743Y-103376011D01*
X212577095Y-103260299D01*
X212828505Y-103092312D01*
X213042312Y-102878505D01*
X213210299Y-102627095D01*
X213242232Y-102550000D01*
X220671928Y-102550000D01*
X220671928Y-104250000D01*
X220684188Y-104374482D01*
X220720498Y-104494180D01*
X220779463Y-104604494D01*
X220858815Y-104701185D01*
X220955506Y-104780537D01*
X221065820Y-104839502D01*
X221185518Y-104875812D01*
X221310000Y-104888072D01*
X223010000Y-104888072D01*
X223134482Y-104875812D01*
X223254180Y-104839502D01*
X223364494Y-104780537D01*
X223461185Y-104701185D01*
X223540537Y-104604494D01*
X223599502Y-104494180D01*
X223620393Y-104425313D01*
X223644866Y-104455134D01*
X223870986Y-104640706D01*
X224128966Y-104778599D01*
X224408889Y-104863513D01*
X224627050Y-104885000D01*
X224772950Y-104885000D01*
X224991111Y-104863513D01*
X225271034Y-104778599D01*
X225529014Y-104640706D01*
X225755134Y-104455134D01*
X225940706Y-104229014D01*
X225970000Y-104174209D01*
X225999294Y-104229014D01*
X226184866Y-104455134D01*
X226410986Y-104640706D01*
X226668966Y-104778599D01*
X226948889Y-104863513D01*
X227167050Y-104885000D01*
X227312950Y-104885000D01*
X227531111Y-104863513D01*
X227811034Y-104778599D01*
X228069014Y-104640706D01*
X228295134Y-104455134D01*
X228480706Y-104229014D01*
X228618599Y-103971034D01*
X228620777Y-103963853D01*
X240845149Y-103963853D01*
X240917931Y-104775118D01*
X241147585Y-105556597D01*
X241525285Y-106278256D01*
X241565450Y-106338366D01*
X242085845Y-106734550D01*
X244820395Y-104000000D01*
X245179605Y-104000000D01*
X247914155Y-106734550D01*
X248434550Y-106338366D01*
X248824748Y-105623388D01*
X249067964Y-104846024D01*
X249154851Y-104036147D01*
X249082069Y-103224882D01*
X248852415Y-102443403D01*
X248474715Y-101721744D01*
X248434550Y-101661634D01*
X247914155Y-101265450D01*
X245179605Y-104000000D01*
X244820395Y-104000000D01*
X242085845Y-101265450D01*
X241565450Y-101661634D01*
X241175252Y-102376612D01*
X240932036Y-103153976D01*
X240845149Y-103963853D01*
X228620777Y-103963853D01*
X228703513Y-103691111D01*
X228732185Y-103400000D01*
X228703513Y-103108889D01*
X228618599Y-102828966D01*
X228480706Y-102570986D01*
X228295134Y-102344866D01*
X228069014Y-102159294D01*
X227811034Y-102021401D01*
X227531111Y-101936487D01*
X227312950Y-101915000D01*
X227167050Y-101915000D01*
X226948889Y-101936487D01*
X226668966Y-102021401D01*
X226410986Y-102159294D01*
X226184866Y-102344866D01*
X225999294Y-102570986D01*
X225970000Y-102625791D01*
X225940706Y-102570986D01*
X225755134Y-102344866D01*
X225529014Y-102159294D01*
X225271034Y-102021401D01*
X224991111Y-101936487D01*
X224772950Y-101915000D01*
X224627050Y-101915000D01*
X224408889Y-101936487D01*
X224128966Y-102021401D01*
X223870986Y-102159294D01*
X223644866Y-102344866D01*
X223620393Y-102374687D01*
X223599502Y-102305820D01*
X223540537Y-102195506D01*
X223461185Y-102098815D01*
X223364494Y-102019463D01*
X223254180Y-101960498D01*
X223134482Y-101924188D01*
X223010000Y-101911928D01*
X221310000Y-101911928D01*
X221185518Y-101924188D01*
X221065820Y-101960498D01*
X220955506Y-102019463D01*
X220858815Y-102098815D01*
X220779463Y-102195506D01*
X220720498Y-102305820D01*
X220684188Y-102425518D01*
X220671928Y-102550000D01*
X213242232Y-102550000D01*
X213326011Y-102347743D01*
X213385000Y-102051184D01*
X213385000Y-101748816D01*
X213326011Y-101452257D01*
X213210299Y-101172905D01*
X213152128Y-101085845D01*
X242265450Y-101085845D01*
X245000000Y-103820395D01*
X247734550Y-101085845D01*
X247338366Y-100565450D01*
X246623388Y-100175252D01*
X245846024Y-99932036D01*
X245036147Y-99845149D01*
X244224882Y-99917931D01*
X243443403Y-100147585D01*
X242721744Y-100525285D01*
X242661634Y-100565450D01*
X242265450Y-101085845D01*
X213152128Y-101085845D01*
X213042312Y-100921495D01*
X212828505Y-100707688D01*
X212577095Y-100539701D01*
X212297743Y-100423989D01*
X212001184Y-100365000D01*
X211698816Y-100365000D01*
X211402257Y-100423989D01*
X211122905Y-100539701D01*
X210871495Y-100707688D01*
X210657688Y-100921495D01*
X210489701Y-101172905D01*
X210373989Y-101452257D01*
X210315000Y-101748816D01*
X191488884Y-101748816D01*
X191474715Y-101721744D01*
X191434550Y-101661634D01*
X190914155Y-101265450D01*
X188179605Y-104000000D01*
X187820395Y-104000000D01*
X185085845Y-101265450D01*
X184565450Y-101661634D01*
X184175252Y-102376612D01*
X183932036Y-103153976D01*
X183845149Y-103963853D01*
X183665849Y-103963853D01*
X183731173Y-103231917D01*
X183934656Y-102488109D01*
X184266638Y-101792095D01*
X184716626Y-101165870D01*
X184799205Y-101085845D01*
X185265450Y-101085845D01*
X188000000Y-103820395D01*
X190734550Y-101085845D01*
X190338366Y-100565450D01*
X189623388Y-100175252D01*
X188846024Y-99932036D01*
X188036147Y-99845149D01*
X187224882Y-99917931D01*
X186443403Y-100147585D01*
X185721744Y-100525285D01*
X185661634Y-100565450D01*
X185265450Y-101085845D01*
X184799205Y-101085845D01*
X185270403Y-100629223D01*
X185910451Y-100199129D01*
X186616553Y-99889171D01*
X187371457Y-99707935D01*
X188024207Y-99660000D01*
X244970608Y-99660000D01*
X245768083Y-99731173D01*
X245768083Y-99731173D01*
G37*
X245768083Y-99731173D02*
X246511891Y-99934656D01*
X247207905Y-100266638D01*
X247834130Y-100716626D01*
X248370777Y-101270403D01*
X248800871Y-101910451D01*
X249110829Y-102616553D01*
X249292065Y-103371457D01*
X249340001Y-104024220D01*
X249340001Y-110461560D01*
X249324901Y-110453489D01*
X249092102Y-110382870D01*
X248910665Y-110365000D01*
X248089335Y-110365000D01*
X247907898Y-110382870D01*
X247675099Y-110453489D01*
X247460551Y-110568167D01*
X247272498Y-110722498D01*
X247118167Y-110910551D01*
X247003489Y-111125099D01*
X246932870Y-111357898D01*
X246909025Y-111600000D01*
X246932870Y-111842102D01*
X246935883Y-111852035D01*
X246856381Y-111733051D01*
X246666949Y-111543619D01*
X246444201Y-111394784D01*
X246196697Y-111292264D01*
X245933948Y-111240000D01*
X245666052Y-111240000D01*
X245403303Y-111292264D01*
X245155799Y-111394784D01*
X244933051Y-111543619D01*
X244743619Y-111733051D01*
X244594784Y-111955799D01*
X244492264Y-112203303D01*
X244440000Y-112466052D01*
X244440000Y-112733948D01*
X244492264Y-112996697D01*
X244594784Y-113244201D01*
X244743619Y-113466949D01*
X244933051Y-113656381D01*
X245155799Y-113805216D01*
X245403303Y-113907736D01*
X245666052Y-113960000D01*
X245933948Y-113960000D01*
X246196697Y-113907736D01*
X246444201Y-113805216D01*
X246666949Y-113656381D01*
X246856381Y-113466949D01*
X247005216Y-113244201D01*
X247107736Y-112996697D01*
X247160000Y-112733948D01*
X247160000Y-112466052D01*
X247127016Y-112300232D01*
X247272498Y-112477502D01*
X247460551Y-112631833D01*
X247675099Y-112746511D01*
X247907898Y-112817130D01*
X248089335Y-112835000D01*
X248910665Y-112835000D01*
X249092102Y-112817130D01*
X249324901Y-112746511D01*
X249340001Y-112738440D01*
X249340001Y-117461560D01*
X249324901Y-117453489D01*
X249092102Y-117382870D01*
X248910665Y-117365000D01*
X248089335Y-117365000D01*
X247907898Y-117382870D01*
X247675099Y-117453489D01*
X247460551Y-117568167D01*
X247272498Y-117722498D01*
X247127016Y-117899768D01*
X247160000Y-117733948D01*
X247160000Y-117466052D01*
X247107736Y-117203303D01*
X247005216Y-116955799D01*
X246856381Y-116733051D01*
X246666949Y-116543619D01*
X246444201Y-116394784D01*
X246196697Y-116292264D01*
X245933948Y-116240000D01*
X245666052Y-116240000D01*
X245403303Y-116292264D01*
X245155799Y-116394784D01*
X244933051Y-116543619D01*
X244743619Y-116733051D01*
X244594784Y-116955799D01*
X244492264Y-117203303D01*
X244440000Y-117466052D01*
X244440000Y-117733948D01*
X244492264Y-117996697D01*
X244594784Y-118244201D01*
X244743619Y-118466949D01*
X244933051Y-118656381D01*
X245155799Y-118805216D01*
X245403303Y-118907736D01*
X245666052Y-118960000D01*
X245933948Y-118960000D01*
X246196697Y-118907736D01*
X246444201Y-118805216D01*
X246666949Y-118656381D01*
X246856381Y-118466949D01*
X246935883Y-118347965D01*
X246932870Y-118357898D01*
X246909025Y-118600000D01*
X246932870Y-118842102D01*
X247003489Y-119074901D01*
X247118167Y-119289449D01*
X247272498Y-119477502D01*
X247460551Y-119631833D01*
X247675099Y-119746511D01*
X247907898Y-119817130D01*
X248089335Y-119835000D01*
X248910665Y-119835000D01*
X249092102Y-119817130D01*
X249324901Y-119746511D01*
X249340001Y-119738440D01*
X249340000Y-144970608D01*
X249268827Y-145768083D01*
X249065344Y-146511890D01*
X248733363Y-147207904D01*
X248283374Y-147834130D01*
X247729597Y-148370777D01*
X247089549Y-148800871D01*
X246383447Y-149110829D01*
X245628543Y-149292065D01*
X244975793Y-149340000D01*
X188029392Y-149340000D01*
X187231917Y-149268827D01*
X186488110Y-149065344D01*
X185792096Y-148733363D01*
X185165870Y-148283374D01*
X184808073Y-147914155D01*
X185265450Y-147914155D01*
X185661634Y-148434550D01*
X186376612Y-148824748D01*
X187153976Y-149067964D01*
X187963853Y-149154851D01*
X188775118Y-149082069D01*
X189556597Y-148852415D01*
X190278256Y-148474715D01*
X190338366Y-148434550D01*
X190734550Y-147914155D01*
X242265450Y-147914155D01*
X242661634Y-148434550D01*
X243376612Y-148824748D01*
X244153976Y-149067964D01*
X244963853Y-149154851D01*
X245775118Y-149082069D01*
X246556597Y-148852415D01*
X247278256Y-148474715D01*
X247338366Y-148434550D01*
X247734550Y-147914155D01*
X245000000Y-145179605D01*
X242265450Y-147914155D01*
X190734550Y-147914155D01*
X188000000Y-145179605D01*
X185265450Y-147914155D01*
X184808073Y-147914155D01*
X184629223Y-147729597D01*
X184199129Y-147089549D01*
X183889171Y-146383447D01*
X183707935Y-145628543D01*
X183660000Y-144975793D01*
X183660000Y-144963853D01*
X183845149Y-144963853D01*
X183917931Y-145775118D01*
X184147585Y-146556597D01*
X184525285Y-147278256D01*
X184565450Y-147338366D01*
X185085845Y-147734550D01*
X187820395Y-145000000D01*
X188179605Y-145000000D01*
X190914155Y-147734550D01*
X191434550Y-147338366D01*
X191824748Y-146623388D01*
X192067964Y-145846024D01*
X192154851Y-145036147D01*
X192082069Y-144224882D01*
X191852415Y-143443403D01*
X191474715Y-142721744D01*
X191434550Y-142661634D01*
X190914155Y-142265450D01*
X188179605Y-145000000D01*
X187820395Y-145000000D01*
X185085845Y-142265450D01*
X184565450Y-142661634D01*
X184175252Y-143376612D01*
X183932036Y-144153976D01*
X183845149Y-144963853D01*
X183660000Y-144963853D01*
X183660000Y-142085845D01*
X185265450Y-142085845D01*
X188000000Y-144820395D01*
X190579920Y-142240475D01*
X205025000Y-142240475D01*
X205025000Y-142759525D01*
X205126261Y-143268601D01*
X205324893Y-143748141D01*
X205613262Y-144179715D01*
X205980285Y-144546738D01*
X206411859Y-144835107D01*
X206891399Y-145033739D01*
X207400475Y-145135000D01*
X207919525Y-145135000D01*
X208428601Y-145033739D01*
X208754698Y-144898665D01*
X214570000Y-144898665D01*
X214570000Y-145181335D01*
X214625147Y-145458574D01*
X214733320Y-145719727D01*
X214890363Y-145954759D01*
X215090241Y-146154637D01*
X215325273Y-146311680D01*
X215586426Y-146419853D01*
X215863665Y-146475000D01*
X216146335Y-146475000D01*
X216423574Y-146419853D01*
X216684727Y-146311680D01*
X216919759Y-146154637D01*
X217119637Y-145954759D01*
X217276680Y-145719727D01*
X217384853Y-145458574D01*
X217390000Y-145432699D01*
X217395147Y-145458574D01*
X217503320Y-145719727D01*
X217660363Y-145954759D01*
X217860241Y-146154637D01*
X218095273Y-146311680D01*
X218356426Y-146419853D01*
X218633665Y-146475000D01*
X218916335Y-146475000D01*
X219193574Y-146419853D01*
X219454727Y-146311680D01*
X219689759Y-146154637D01*
X219889637Y-145954759D01*
X220046680Y-145719727D01*
X220154853Y-145458574D01*
X220160000Y-145432699D01*
X220165147Y-145458574D01*
X220273320Y-145719727D01*
X220430363Y-145954759D01*
X220630241Y-146154637D01*
X220865273Y-146311680D01*
X221126426Y-146419853D01*
X221403665Y-146475000D01*
X221686335Y-146475000D01*
X221963574Y-146419853D01*
X222224727Y-146311680D01*
X222459759Y-146154637D01*
X222659637Y-145954759D01*
X222816680Y-145719727D01*
X222924853Y-145458574D01*
X222930000Y-145432699D01*
X222935147Y-145458574D01*
X223043320Y-145719727D01*
X223200363Y-145954759D01*
X223400241Y-146154637D01*
X223635273Y-146311680D01*
X223896426Y-146419853D01*
X224173665Y-146475000D01*
X224456335Y-146475000D01*
X224733574Y-146419853D01*
X224994727Y-146311680D01*
X225229759Y-146154637D01*
X225429637Y-145954759D01*
X225586680Y-145719727D01*
X225694853Y-145458574D01*
X225750000Y-145181335D01*
X225750000Y-144898665D01*
X225694853Y-144621426D01*
X225586680Y-144360273D01*
X225429637Y-144125241D01*
X225229759Y-143925363D01*
X224994727Y-143768320D01*
X224733574Y-143660147D01*
X224456335Y-143605000D01*
X224173665Y-143605000D01*
X223896426Y-143660147D01*
X223635273Y-143768320D01*
X223400241Y-143925363D01*
X223200363Y-144125241D01*
X223043320Y-144360273D01*
X222935147Y-144621426D01*
X222930000Y-144647301D01*
X222924853Y-144621426D01*
X222816680Y-144360273D01*
X222659637Y-144125241D01*
X222459759Y-143925363D01*
X222224727Y-143768320D01*
X221963574Y-143660147D01*
X221686335Y-143605000D01*
X221403665Y-143605000D01*
X221126426Y-143660147D01*
X220865273Y-143768320D01*
X220630241Y-143925363D01*
X220430363Y-144125241D01*
X220273320Y-144360273D01*
X220165147Y-144621426D01*
X220160000Y-144647301D01*
X220154853Y-144621426D01*
X220046680Y-144360273D01*
X219889637Y-144125241D01*
X219689759Y-143925363D01*
X219454727Y-143768320D01*
X219193574Y-143660147D01*
X218916335Y-143605000D01*
X218633665Y-143605000D01*
X218356426Y-143660147D01*
X218095273Y-143768320D01*
X217860241Y-143925363D01*
X217660363Y-144125241D01*
X217503320Y-144360273D01*
X217395147Y-144621426D01*
X217390000Y-144647301D01*
X217384853Y-144621426D01*
X217276680Y-144360273D01*
X217119637Y-144125241D01*
X216919759Y-143925363D01*
X216684727Y-143768320D01*
X216423574Y-143660147D01*
X216146335Y-143605000D01*
X215863665Y-143605000D01*
X215586426Y-143660147D01*
X215325273Y-143768320D01*
X215090241Y-143925363D01*
X214890363Y-144125241D01*
X214733320Y-144360273D01*
X214625147Y-144621426D01*
X214570000Y-144898665D01*
X208754698Y-144898665D01*
X208908141Y-144835107D01*
X209339715Y-144546738D01*
X209706738Y-144179715D01*
X209995107Y-143748141D01*
X210193739Y-143268601D01*
X210295000Y-142759525D01*
X210295000Y-142240475D01*
X210258836Y-142058665D01*
X213185000Y-142058665D01*
X213185000Y-142341335D01*
X213240147Y-142618574D01*
X213348320Y-142879727D01*
X213505363Y-143114759D01*
X213705241Y-143314637D01*
X213940273Y-143471680D01*
X214201426Y-143579853D01*
X214478665Y-143635000D01*
X214761335Y-143635000D01*
X215038574Y-143579853D01*
X215299727Y-143471680D01*
X215534759Y-143314637D01*
X215734637Y-143114759D01*
X215891680Y-142879727D01*
X215999853Y-142618574D01*
X216005000Y-142592699D01*
X216010147Y-142618574D01*
X216118320Y-142879727D01*
X216275363Y-143114759D01*
X216475241Y-143314637D01*
X216710273Y-143471680D01*
X216971426Y-143579853D01*
X217248665Y-143635000D01*
X217531335Y-143635000D01*
X217808574Y-143579853D01*
X218069727Y-143471680D01*
X218304759Y-143314637D01*
X218426694Y-143192702D01*
X219346903Y-143192702D01*
X219418486Y-143436671D01*
X219673996Y-143557571D01*
X219948184Y-143626300D01*
X220230512Y-143640217D01*
X220510130Y-143598787D01*
X220776292Y-143503603D01*
X220901514Y-143436671D01*
X220973097Y-143192702D01*
X220160000Y-142379605D01*
X219346903Y-143192702D01*
X218426694Y-143192702D01*
X218504637Y-143114759D01*
X218661680Y-142879727D01*
X218769853Y-142618574D01*
X218775513Y-142590118D01*
X218856397Y-142816292D01*
X218923329Y-142941514D01*
X219167298Y-143013097D01*
X219980395Y-142200000D01*
X220339605Y-142200000D01*
X221152702Y-143013097D01*
X221396671Y-142941514D01*
X221517571Y-142686004D01*
X221543212Y-142583711D01*
X221550147Y-142618574D01*
X221658320Y-142879727D01*
X221815363Y-143114759D01*
X222015241Y-143314637D01*
X222250273Y-143471680D01*
X222511426Y-143579853D01*
X222788665Y-143635000D01*
X223071335Y-143635000D01*
X223348574Y-143579853D01*
X223609727Y-143471680D01*
X223844759Y-143314637D01*
X224044637Y-143114759D01*
X224201680Y-142879727D01*
X224261928Y-142734275D01*
X224261928Y-143000000D01*
X224274188Y-143124482D01*
X224310498Y-143244180D01*
X224369463Y-143354494D01*
X224448815Y-143451185D01*
X224545506Y-143530537D01*
X224655820Y-143589502D01*
X224775518Y-143625812D01*
X224900000Y-143638072D01*
X226500000Y-143638072D01*
X226624482Y-143625812D01*
X226744180Y-143589502D01*
X226854494Y-143530537D01*
X226951185Y-143451185D01*
X227030537Y-143354494D01*
X227089502Y-143244180D01*
X227125812Y-143124482D01*
X227138072Y-143000000D01*
X227138072Y-142240475D01*
X230025000Y-142240475D01*
X230025000Y-142759525D01*
X230126261Y-143268601D01*
X230324893Y-143748141D01*
X230613262Y-144179715D01*
X230980285Y-144546738D01*
X231411859Y-144835107D01*
X231891399Y-145033739D01*
X232400475Y-145135000D01*
X232919525Y-145135000D01*
X233428601Y-145033739D01*
X233597320Y-144963853D01*
X240845149Y-144963853D01*
X240917931Y-145775118D01*
X241147585Y-146556597D01*
X241525285Y-147278256D01*
X241565450Y-147338366D01*
X242085845Y-147734550D01*
X244820395Y-145000000D01*
X245179605Y-145000000D01*
X247914155Y-147734550D01*
X248434550Y-147338366D01*
X248824748Y-146623388D01*
X249067964Y-145846024D01*
X249154851Y-145036147D01*
X249082069Y-144224882D01*
X248852415Y-143443403D01*
X248474715Y-142721744D01*
X248434550Y-142661634D01*
X247914155Y-142265450D01*
X245179605Y-145000000D01*
X244820395Y-145000000D01*
X242085845Y-142265450D01*
X241565450Y-142661634D01*
X241175252Y-143376612D01*
X240932036Y-144153976D01*
X240845149Y-144963853D01*
X233597320Y-144963853D01*
X233908141Y-144835107D01*
X234339715Y-144546738D01*
X234706738Y-144179715D01*
X234995107Y-143748141D01*
X235193739Y-143268601D01*
X235295000Y-142759525D01*
X235295000Y-142240475D01*
X235264243Y-142085845D01*
X242265450Y-142085845D01*
X245000000Y-144820395D01*
X247734550Y-142085845D01*
X247338366Y-141565450D01*
X246623388Y-141175252D01*
X245846024Y-140932036D01*
X245036147Y-140845149D01*
X244224882Y-140917931D01*
X243443403Y-141147585D01*
X242721744Y-141525285D01*
X242661634Y-141565450D01*
X242265450Y-142085845D01*
X235264243Y-142085845D01*
X235193739Y-141731399D01*
X234995107Y-141251859D01*
X234706738Y-140820285D01*
X234339715Y-140453262D01*
X233908141Y-140164893D01*
X233428601Y-139966261D01*
X232919525Y-139865000D01*
X232400475Y-139865000D01*
X231891399Y-139966261D01*
X231411859Y-140164893D01*
X230980285Y-140453262D01*
X230613262Y-140820285D01*
X230324893Y-141251859D01*
X230126261Y-141731399D01*
X230025000Y-142240475D01*
X227138072Y-142240475D01*
X227138072Y-141400000D01*
X227125812Y-141275518D01*
X227089502Y-141155820D01*
X227030537Y-141045506D01*
X226951185Y-140948815D01*
X226854494Y-140869463D01*
X226744180Y-140810498D01*
X226624482Y-140774188D01*
X226500000Y-140761928D01*
X224900000Y-140761928D01*
X224775518Y-140774188D01*
X224655820Y-140810498D01*
X224545506Y-140869463D01*
X224448815Y-140948815D01*
X224369463Y-141045506D01*
X224310498Y-141155820D01*
X224274188Y-141275518D01*
X224261928Y-141400000D01*
X224261928Y-141665725D01*
X224201680Y-141520273D01*
X224044637Y-141285241D01*
X223844759Y-141085363D01*
X223609727Y-140928320D01*
X223348574Y-140820147D01*
X223071335Y-140765000D01*
X222788665Y-140765000D01*
X222511426Y-140820147D01*
X222250273Y-140928320D01*
X222015241Y-141085363D01*
X221815363Y-141285241D01*
X221658320Y-141520273D01*
X221550147Y-141781426D01*
X221544487Y-141809882D01*
X221463603Y-141583708D01*
X221396671Y-141458486D01*
X221152702Y-141386903D01*
X220339605Y-142200000D01*
X219980395Y-142200000D01*
X219167298Y-141386903D01*
X218923329Y-141458486D01*
X218802429Y-141713996D01*
X218776788Y-141816289D01*
X218769853Y-141781426D01*
X218661680Y-141520273D01*
X218504637Y-141285241D01*
X218426694Y-141207298D01*
X219346903Y-141207298D01*
X220160000Y-142020395D01*
X220973097Y-141207298D01*
X220901514Y-140963329D01*
X220646004Y-140842429D01*
X220371816Y-140773700D01*
X220089488Y-140759783D01*
X219809870Y-140801213D01*
X219543708Y-140896397D01*
X219418486Y-140963329D01*
X219346903Y-141207298D01*
X218426694Y-141207298D01*
X218304759Y-141085363D01*
X218069727Y-140928320D01*
X217808574Y-140820147D01*
X217531335Y-140765000D01*
X217248665Y-140765000D01*
X216971426Y-140820147D01*
X216710273Y-140928320D01*
X216475241Y-141085363D01*
X216275363Y-141285241D01*
X216118320Y-141520273D01*
X216010147Y-141781426D01*
X216005000Y-141807301D01*
X215999853Y-141781426D01*
X215891680Y-141520273D01*
X215734637Y-141285241D01*
X215534759Y-141085363D01*
X215299727Y-140928320D01*
X215038574Y-140820147D01*
X214761335Y-140765000D01*
X214478665Y-140765000D01*
X214201426Y-140820147D01*
X213940273Y-140928320D01*
X213705241Y-141085363D01*
X213505363Y-141285241D01*
X213348320Y-141520273D01*
X213240147Y-141781426D01*
X213185000Y-142058665D01*
X210258836Y-142058665D01*
X210193739Y-141731399D01*
X209995107Y-141251859D01*
X209706738Y-140820285D01*
X209339715Y-140453262D01*
X208908141Y-140164893D01*
X208428601Y-139966261D01*
X207919525Y-139865000D01*
X207400475Y-139865000D01*
X206891399Y-139966261D01*
X206411859Y-140164893D01*
X205980285Y-140453262D01*
X205613262Y-140820285D01*
X205324893Y-141251859D01*
X205126261Y-141731399D01*
X205025000Y-142240475D01*
X190579920Y-142240475D01*
X190734550Y-142085845D01*
X190338366Y-141565450D01*
X189623388Y-141175252D01*
X188846024Y-140932036D01*
X188036147Y-140845149D01*
X187224882Y-140917931D01*
X186443403Y-141147585D01*
X185721744Y-141525285D01*
X185661634Y-141565450D01*
X185265450Y-142085845D01*
X183660000Y-142085845D01*
X183660000Y-136740000D01*
X245407815Y-136740000D01*
X245436487Y-137031111D01*
X245521401Y-137311034D01*
X245659294Y-137569014D01*
X245844866Y-137795134D01*
X246070986Y-137980706D01*
X246328966Y-138118599D01*
X246608889Y-138203513D01*
X246827050Y-138225000D01*
X246972950Y-138225000D01*
X247191111Y-138203513D01*
X247471034Y-138118599D01*
X247729014Y-137980706D01*
X247955134Y-137795134D01*
X248140706Y-137569014D01*
X248278599Y-137311034D01*
X248363513Y-137031111D01*
X248392185Y-136740000D01*
X248363513Y-136448889D01*
X248278599Y-136168966D01*
X248140706Y-135910986D01*
X247955134Y-135684866D01*
X247925313Y-135660393D01*
X247994180Y-135639502D01*
X248104494Y-135580537D01*
X248201185Y-135501185D01*
X248280537Y-135404494D01*
X248339502Y-135294180D01*
X248375812Y-135174482D01*
X248388072Y-135050000D01*
X248385000Y-134485750D01*
X248226250Y-134327000D01*
X247027000Y-134327000D01*
X247027000Y-134347000D01*
X246773000Y-134347000D01*
X246773000Y-134327000D01*
X245573750Y-134327000D01*
X245415000Y-134485750D01*
X245411928Y-135050000D01*
X245424188Y-135174482D01*
X245460498Y-135294180D01*
X245519463Y-135404494D01*
X245598815Y-135501185D01*
X245695506Y-135580537D01*
X245805820Y-135639502D01*
X245874687Y-135660393D01*
X245844866Y-135684866D01*
X245659294Y-135910986D01*
X245521401Y-136168966D01*
X245436487Y-136448889D01*
X245407815Y-136740000D01*
X183660000Y-136740000D01*
X183660000Y-126820000D01*
X217776149Y-126820000D01*
X217805084Y-127113777D01*
X217890775Y-127396264D01*
X218029931Y-127656606D01*
X218217203Y-127884797D01*
X218445394Y-128072069D01*
X218478940Y-128090000D01*
X218445394Y-128107931D01*
X218217203Y-128295203D01*
X218029931Y-128523394D01*
X217890775Y-128783736D01*
X217805084Y-129066223D01*
X217776149Y-129360000D01*
X217805084Y-129653777D01*
X217890775Y-129936264D01*
X218029931Y-130196606D01*
X218217203Y-130424797D01*
X218445394Y-130612069D01*
X218478940Y-130630000D01*
X218445394Y-130647931D01*
X218217203Y-130835203D01*
X218029931Y-131063394D01*
X217890775Y-131323736D01*
X217805084Y-131606223D01*
X217776149Y-131900000D01*
X217805084Y-132193777D01*
X217890775Y-132476264D01*
X218029931Y-132736606D01*
X218217203Y-132964797D01*
X218445394Y-133152069D01*
X218478940Y-133170000D01*
X218445394Y-133187931D01*
X218217203Y-133375203D01*
X218029931Y-133603394D01*
X217890775Y-133863736D01*
X217805084Y-134146223D01*
X217776149Y-134440000D01*
X217805084Y-134733777D01*
X217890775Y-135016264D01*
X218029931Y-135276606D01*
X218217203Y-135504797D01*
X218445394Y-135692069D01*
X218705736Y-135831225D01*
X218988223Y-135916916D01*
X219208381Y-135938600D01*
X219355619Y-135938600D01*
X219575777Y-135916916D01*
X219858264Y-135831225D01*
X220118606Y-135692069D01*
X220346797Y-135504797D01*
X220353414Y-135496735D01*
X220368898Y-135547780D01*
X220427863Y-135658094D01*
X220507215Y-135754785D01*
X220603906Y-135834137D01*
X220714220Y-135893102D01*
X220833918Y-135929412D01*
X220958400Y-135941672D01*
X221536250Y-135938600D01*
X221695000Y-135779850D01*
X221695000Y-134567000D01*
X221949000Y-134567000D01*
X221949000Y-135779850D01*
X222107750Y-135938600D01*
X222685600Y-135941672D01*
X222810082Y-135929412D01*
X222929780Y-135893102D01*
X223040094Y-135834137D01*
X223136785Y-135754785D01*
X223216137Y-135658094D01*
X223275102Y-135547780D01*
X223311412Y-135428082D01*
X223323672Y-135303600D01*
X223320600Y-134725750D01*
X223161850Y-134567000D01*
X221949000Y-134567000D01*
X221695000Y-134567000D01*
X221675000Y-134567000D01*
X221675000Y-134313000D01*
X221695000Y-134313000D01*
X221695000Y-134293000D01*
X221949000Y-134293000D01*
X221949000Y-134313000D01*
X223161850Y-134313000D01*
X223320600Y-134154250D01*
X223323672Y-133576400D01*
X223311412Y-133451918D01*
X223280496Y-133350000D01*
X245411928Y-133350000D01*
X245415000Y-133914250D01*
X245573750Y-134073000D01*
X246773000Y-134073000D01*
X246773000Y-132873750D01*
X247027000Y-132873750D01*
X247027000Y-134073000D01*
X248226250Y-134073000D01*
X248385000Y-133914250D01*
X248388072Y-133350000D01*
X248375812Y-133225518D01*
X248339502Y-133105820D01*
X248280537Y-132995506D01*
X248201185Y-132898815D01*
X248104494Y-132819463D01*
X247994180Y-132760498D01*
X247874482Y-132724188D01*
X247750000Y-132711928D01*
X247185750Y-132715000D01*
X247027000Y-132873750D01*
X246773000Y-132873750D01*
X246614250Y-132715000D01*
X246050000Y-132711928D01*
X245925518Y-132724188D01*
X245805820Y-132760498D01*
X245695506Y-132819463D01*
X245598815Y-132898815D01*
X245519463Y-132995506D01*
X245460498Y-133105820D01*
X245424188Y-133225518D01*
X245411928Y-133350000D01*
X223280496Y-133350000D01*
X223275102Y-133332220D01*
X223216137Y-133221906D01*
X223136785Y-133125215D01*
X223040094Y-133045863D01*
X222929780Y-132986898D01*
X222878735Y-132971414D01*
X222886797Y-132964797D01*
X223074069Y-132736606D01*
X223213225Y-132476264D01*
X223298916Y-132193777D01*
X223327851Y-131900000D01*
X223298916Y-131606223D01*
X223213225Y-131323736D01*
X223074069Y-131063394D01*
X222886797Y-130835203D01*
X222658606Y-130647931D01*
X222625060Y-130630000D01*
X222658606Y-130612069D01*
X222886797Y-130424797D01*
X223074069Y-130196606D01*
X223213225Y-129936264D01*
X223298916Y-129653777D01*
X223327851Y-129360000D01*
X223298916Y-129066223D01*
X223213225Y-128783736D01*
X223074069Y-128523394D01*
X222886797Y-128295203D01*
X222658606Y-128107931D01*
X222625060Y-128090000D01*
X222658606Y-128072069D01*
X222886797Y-127884797D01*
X223074069Y-127656606D01*
X223189847Y-127440000D01*
X242107815Y-127440000D01*
X242136487Y-127731111D01*
X242221401Y-128011034D01*
X242359294Y-128269014D01*
X242544866Y-128495134D01*
X242770986Y-128680706D01*
X243028966Y-128818599D01*
X243308889Y-128903513D01*
X243527050Y-128925000D01*
X243672950Y-128925000D01*
X243891111Y-128903513D01*
X244171034Y-128818599D01*
X244429014Y-128680706D01*
X244655134Y-128495134D01*
X244840706Y-128269014D01*
X244978599Y-128011034D01*
X245063513Y-127731111D01*
X245092185Y-127440000D01*
X245063513Y-127148889D01*
X244978599Y-126868966D01*
X244840706Y-126610986D01*
X244655134Y-126384866D01*
X244625313Y-126360393D01*
X244694180Y-126339502D01*
X244804494Y-126280537D01*
X244901185Y-126201185D01*
X244980537Y-126104494D01*
X245039502Y-125994180D01*
X245075812Y-125874482D01*
X245088072Y-125750000D01*
X245085000Y-125185750D01*
X244926250Y-125027000D01*
X243727000Y-125027000D01*
X243727000Y-125047000D01*
X243473000Y-125047000D01*
X243473000Y-125027000D01*
X242273750Y-125027000D01*
X242115000Y-125185750D01*
X242111928Y-125750000D01*
X242124188Y-125874482D01*
X242160498Y-125994180D01*
X242219463Y-126104494D01*
X242298815Y-126201185D01*
X242395506Y-126280537D01*
X242505820Y-126339502D01*
X242574687Y-126360393D01*
X242544866Y-126384866D01*
X242359294Y-126610986D01*
X242221401Y-126868966D01*
X242136487Y-127148889D01*
X242107815Y-127440000D01*
X223189847Y-127440000D01*
X223213225Y-127396264D01*
X223298916Y-127113777D01*
X223327851Y-126820000D01*
X223298916Y-126526223D01*
X223213225Y-126243736D01*
X223074069Y-125983394D01*
X222886797Y-125755203D01*
X222658606Y-125567931D01*
X222398264Y-125428775D01*
X222115777Y-125343084D01*
X221895619Y-125321400D01*
X221748381Y-125321400D01*
X221528223Y-125343084D01*
X221245736Y-125428775D01*
X220985394Y-125567931D01*
X220757203Y-125755203D01*
X220569931Y-125983394D01*
X220552000Y-126016940D01*
X220534069Y-125983394D01*
X220346797Y-125755203D01*
X220118606Y-125567931D01*
X219858264Y-125428775D01*
X219575777Y-125343084D01*
X219355619Y-125321400D01*
X219208381Y-125321400D01*
X218988223Y-125343084D01*
X218705736Y-125428775D01*
X218445394Y-125567931D01*
X218217203Y-125755203D01*
X218029931Y-125983394D01*
X217890775Y-126243736D01*
X217805084Y-126526223D01*
X217776149Y-126820000D01*
X183660000Y-126820000D01*
X183660000Y-124050000D01*
X242111928Y-124050000D01*
X242115000Y-124614250D01*
X242273750Y-124773000D01*
X243473000Y-124773000D01*
X243473000Y-123573750D01*
X243727000Y-123573750D01*
X243727000Y-124773000D01*
X244926250Y-124773000D01*
X245085000Y-124614250D01*
X245088072Y-124050000D01*
X245075812Y-123925518D01*
X245039502Y-123805820D01*
X244980537Y-123695506D01*
X244901185Y-123598815D01*
X244804494Y-123519463D01*
X244694180Y-123460498D01*
X244574482Y-123424188D01*
X244450000Y-123411928D01*
X243885750Y-123415000D01*
X243727000Y-123573750D01*
X243473000Y-123573750D01*
X243314250Y-123415000D01*
X242750000Y-123411928D01*
X242625518Y-123424188D01*
X242505820Y-123460498D01*
X242395506Y-123519463D01*
X242298815Y-123598815D01*
X242219463Y-123695506D01*
X242160498Y-123805820D01*
X242124188Y-123925518D01*
X242111928Y-124050000D01*
X183660000Y-124050000D01*
X183660000Y-110127000D01*
X205089317Y-110127000D01*
X205144965Y-110150050D01*
X205446353Y-110210000D01*
X205753647Y-110210000D01*
X206055035Y-110150050D01*
X206110683Y-110127000D01*
X210520374Y-110127000D01*
X210489701Y-110172905D01*
X210373989Y-110452257D01*
X210315000Y-110748816D01*
X210315000Y-111051184D01*
X210373989Y-111347743D01*
X210489701Y-111627095D01*
X210657688Y-111878505D01*
X210871495Y-112092312D01*
X211122905Y-112260299D01*
X211402257Y-112376011D01*
X211698816Y-112435000D01*
X212001184Y-112435000D01*
X212297743Y-112376011D01*
X212577095Y-112260299D01*
X212828505Y-112092312D01*
X213042312Y-111878505D01*
X213210299Y-111627095D01*
X213326011Y-111347743D01*
X213385000Y-111051184D01*
X213385000Y-110748816D01*
X213326011Y-110452257D01*
X213210299Y-110172905D01*
X213179626Y-110127000D01*
X217580402Y-110127000D01*
X217858757Y-110198873D01*
X218165562Y-110216176D01*
X218469848Y-110173292D01*
X218602243Y-110127000D01*
X220473000Y-110127000D01*
X220473000Y-118300000D01*
X220475440Y-118324776D01*
X220482667Y-118348601D01*
X220494403Y-118370557D01*
X220510197Y-118389803D01*
X220529443Y-118405597D01*
X220551399Y-118417333D01*
X220575224Y-118424560D01*
X220600000Y-118427000D01*
X227700000Y-118427000D01*
X227724776Y-118424560D01*
X227748601Y-118417333D01*
X227770557Y-118405597D01*
X227789803Y-118389803D01*
X227805597Y-118370557D01*
X227817333Y-118348601D01*
X227824560Y-118324776D01*
X227826970Y-118297240D01*
X227778227Y-116055065D01*
X228799098Y-115127000D01*
X231800000Y-115127000D01*
X231824776Y-115124560D01*
X231848601Y-115117333D01*
X231870557Y-115105597D01*
X231889803Y-115089803D01*
X231905597Y-115070557D01*
X231917333Y-115048601D01*
X231924560Y-115024776D01*
X231927000Y-115000000D01*
X231927000Y-113100000D01*
X231924560Y-113075224D01*
X231917333Y-113051399D01*
X231905597Y-113029443D01*
X231889803Y-113010197D01*
X231870557Y-112994403D01*
X231848601Y-112982667D01*
X231824776Y-112975440D01*
X231800000Y-112973000D01*
X230032620Y-112973000D01*
X228127000Y-111924909D01*
X228127000Y-110198061D01*
X229415000Y-110198061D01*
X229415000Y-110401939D01*
X229454774Y-110601898D01*
X229532795Y-110790256D01*
X229646063Y-110959774D01*
X229790226Y-111103937D01*
X229959744Y-111217205D01*
X230148102Y-111295226D01*
X230348061Y-111335000D01*
X230410199Y-111335000D01*
X232236201Y-113161003D01*
X232259999Y-113190001D01*
X232375724Y-113284974D01*
X232473556Y-113337267D01*
X232590226Y-113453937D01*
X232759744Y-113567205D01*
X232948102Y-113645226D01*
X233148061Y-113685000D01*
X233351939Y-113685000D01*
X233551898Y-113645226D01*
X233740256Y-113567205D01*
X233909774Y-113453937D01*
X234053937Y-113309774D01*
X234167205Y-113140256D01*
X234245226Y-112951898D01*
X234285000Y-112751939D01*
X234285000Y-112548061D01*
X234245226Y-112348102D01*
X234167205Y-112159744D01*
X234053937Y-111990226D01*
X233909774Y-111846063D01*
X233740256Y-111732795D01*
X233551898Y-111654774D01*
X233351939Y-111615000D01*
X233148061Y-111615000D01*
X232948102Y-111654774D01*
X232899647Y-111674845D01*
X231485000Y-110260199D01*
X231485000Y-110198061D01*
X231445226Y-109998102D01*
X231367205Y-109809744D01*
X231253937Y-109640226D01*
X231109774Y-109496063D01*
X230940256Y-109382795D01*
X230751898Y-109304774D01*
X230551939Y-109265000D01*
X230348061Y-109265000D01*
X230148102Y-109304774D01*
X229959744Y-109382795D01*
X229790226Y-109496063D01*
X229646063Y-109640226D01*
X229532795Y-109809744D01*
X229454774Y-109998102D01*
X229415000Y-110198061D01*
X228127000Y-110198061D01*
X228127000Y-109200000D01*
X228124560Y-109175224D01*
X228117333Y-109151399D01*
X228105597Y-109129443D01*
X228089803Y-109110197D01*
X228070557Y-109094403D01*
X228048601Y-109082667D01*
X228024776Y-109075440D01*
X228000000Y-109073000D01*
X220600000Y-109073000D01*
X220575224Y-109075440D01*
X220551399Y-109082667D01*
X220529443Y-109094403D01*
X220510197Y-109110197D01*
X220494403Y-109129443D01*
X220482667Y-109151399D01*
X220475440Y-109175224D01*
X220473000Y-109200000D01*
X220473000Y-109873000D01*
X218954665Y-109873000D01*
X219002312Y-109731917D01*
X218100000Y-108829605D01*
X217197688Y-109731917D01*
X217245335Y-109873000D01*
X212993817Y-109873000D01*
X212828505Y-109707688D01*
X212577095Y-109539701D01*
X212297743Y-109423989D01*
X212001184Y-109365000D01*
X211698816Y-109365000D01*
X211402257Y-109423989D01*
X211122905Y-109539701D01*
X210871495Y-109707688D01*
X210706183Y-109873000D01*
X206577577Y-109873000D01*
X206594442Y-109861731D01*
X206811731Y-109644442D01*
X206982454Y-109388937D01*
X207100050Y-109105035D01*
X207160000Y-108803647D01*
X207160000Y-108715562D01*
X216533824Y-108715562D01*
X216576708Y-109019848D01*
X216678132Y-109309921D01*
X216761347Y-109465607D01*
X217018083Y-109552312D01*
X217920395Y-108650000D01*
X218279605Y-108650000D01*
X219181917Y-109552312D01*
X219438653Y-109465607D01*
X219572048Y-109188777D01*
X219648873Y-108891243D01*
X219666176Y-108584438D01*
X219623292Y-108280152D01*
X219521868Y-107990079D01*
X219438653Y-107834393D01*
X219181917Y-107747688D01*
X218279605Y-108650000D01*
X217920395Y-108650000D01*
X217018083Y-107747688D01*
X216761347Y-107834393D01*
X216627952Y-108111223D01*
X216551127Y-108408757D01*
X216533824Y-108715562D01*
X207160000Y-108715562D01*
X207160000Y-108496353D01*
X207100050Y-108194965D01*
X206982454Y-107911063D01*
X206811731Y-107655558D01*
X206724256Y-107568083D01*
X217197688Y-107568083D01*
X218100000Y-108470395D01*
X219002312Y-107568083D01*
X218915607Y-107311347D01*
X218638777Y-107177952D01*
X218341243Y-107101127D01*
X218034438Y-107083824D01*
X217730152Y-107126708D01*
X217440079Y-107228132D01*
X217284393Y-107311347D01*
X217197688Y-107568083D01*
X206724256Y-107568083D01*
X206594442Y-107438269D01*
X206338937Y-107267546D01*
X206055035Y-107149950D01*
X205753647Y-107090000D01*
X205446353Y-107090000D01*
X205144965Y-107149950D01*
X204861063Y-107267546D01*
X204605558Y-107438269D01*
X204388269Y-107655558D01*
X204217546Y-107911063D01*
X204099950Y-108194965D01*
X204040000Y-108496353D01*
X204040000Y-108803647D01*
X204099950Y-109105035D01*
X204217546Y-109388937D01*
X204388269Y-109644442D01*
X204605558Y-109861731D01*
X204622423Y-109873000D01*
X183660000Y-109873000D01*
X183660000Y-106914155D01*
X185265450Y-106914155D01*
X185661634Y-107434550D01*
X186376612Y-107824748D01*
X187153976Y-108067964D01*
X187963853Y-108154851D01*
X188775118Y-108082069D01*
X189556597Y-107852415D01*
X190278256Y-107474715D01*
X190338366Y-107434550D01*
X190734550Y-106914155D01*
X242265450Y-106914155D01*
X242661634Y-107434550D01*
X243376612Y-107824748D01*
X244153976Y-108067964D01*
X244963853Y-108154851D01*
X245775118Y-108082069D01*
X246556597Y-107852415D01*
X247278256Y-107474715D01*
X247338366Y-107434550D01*
X247734550Y-106914155D01*
X245000000Y-104179605D01*
X242265450Y-106914155D01*
X190734550Y-106914155D01*
X188000000Y-104179605D01*
X185265450Y-106914155D01*
X183660000Y-106914155D01*
X183660000Y-104029392D01*
X183665849Y-103963853D01*
X183845149Y-103963853D01*
X183917931Y-104775118D01*
X184147585Y-105556597D01*
X184525285Y-106278256D01*
X184565450Y-106338366D01*
X185085845Y-106734550D01*
X187820395Y-104000000D01*
X188179605Y-104000000D01*
X190914155Y-106734550D01*
X191434550Y-106338366D01*
X191824748Y-105623388D01*
X192067964Y-104846024D01*
X192154851Y-104036147D01*
X192151281Y-103996353D01*
X204040000Y-103996353D01*
X204040000Y-104303647D01*
X204099950Y-104605035D01*
X204217546Y-104888937D01*
X204388269Y-105144442D01*
X204605558Y-105361731D01*
X204861063Y-105532454D01*
X205144965Y-105650050D01*
X205446353Y-105710000D01*
X205753647Y-105710000D01*
X206055035Y-105650050D01*
X206338937Y-105532454D01*
X206594442Y-105361731D01*
X206811731Y-105144442D01*
X206982454Y-104888937D01*
X207100050Y-104605035D01*
X207160000Y-104303647D01*
X207160000Y-103996353D01*
X216540000Y-103996353D01*
X216540000Y-104303647D01*
X216599950Y-104605035D01*
X216717546Y-104888937D01*
X216888269Y-105144442D01*
X217105558Y-105361731D01*
X217361063Y-105532454D01*
X217644965Y-105650050D01*
X217946353Y-105710000D01*
X218253647Y-105710000D01*
X218555035Y-105650050D01*
X218838937Y-105532454D01*
X219094442Y-105361731D01*
X219311731Y-105144442D01*
X219482454Y-104888937D01*
X219600050Y-104605035D01*
X219660000Y-104303647D01*
X219660000Y-103996353D01*
X219600050Y-103694965D01*
X219482454Y-103411063D01*
X219311731Y-103155558D01*
X219094442Y-102938269D01*
X218838937Y-102767546D01*
X218555035Y-102649950D01*
X218253647Y-102590000D01*
X217946353Y-102590000D01*
X217644965Y-102649950D01*
X217361063Y-102767546D01*
X217105558Y-102938269D01*
X216888269Y-103155558D01*
X216717546Y-103411063D01*
X216599950Y-103694965D01*
X216540000Y-103996353D01*
X207160000Y-103996353D01*
X207100050Y-103694965D01*
X206982454Y-103411063D01*
X206811731Y-103155558D01*
X206594442Y-102938269D01*
X206338937Y-102767546D01*
X206055035Y-102649950D01*
X205753647Y-102590000D01*
X205446353Y-102590000D01*
X205144965Y-102649950D01*
X204861063Y-102767546D01*
X204605558Y-102938269D01*
X204388269Y-103155558D01*
X204217546Y-103411063D01*
X204099950Y-103694965D01*
X204040000Y-103996353D01*
X192151281Y-103996353D01*
X192082069Y-103224882D01*
X191852415Y-102443403D01*
X191488884Y-101748816D01*
X210315000Y-101748816D01*
X210315000Y-102051184D01*
X210373989Y-102347743D01*
X210489701Y-102627095D01*
X210657688Y-102878505D01*
X210871495Y-103092312D01*
X211122905Y-103260299D01*
X211402257Y-103376011D01*
X211698816Y-103435000D01*
X212001184Y-103435000D01*
X212297743Y-103376011D01*
X212577095Y-103260299D01*
X212828505Y-103092312D01*
X213042312Y-102878505D01*
X213210299Y-102627095D01*
X213242232Y-102550000D01*
X220671928Y-102550000D01*
X220671928Y-104250000D01*
X220684188Y-104374482D01*
X220720498Y-104494180D01*
X220779463Y-104604494D01*
X220858815Y-104701185D01*
X220955506Y-104780537D01*
X221065820Y-104839502D01*
X221185518Y-104875812D01*
X221310000Y-104888072D01*
X223010000Y-104888072D01*
X223134482Y-104875812D01*
X223254180Y-104839502D01*
X223364494Y-104780537D01*
X223461185Y-104701185D01*
X223540537Y-104604494D01*
X223599502Y-104494180D01*
X223620393Y-104425313D01*
X223644866Y-104455134D01*
X223870986Y-104640706D01*
X224128966Y-104778599D01*
X224408889Y-104863513D01*
X224627050Y-104885000D01*
X224772950Y-104885000D01*
X224991111Y-104863513D01*
X225271034Y-104778599D01*
X225529014Y-104640706D01*
X225755134Y-104455134D01*
X225940706Y-104229014D01*
X225970000Y-104174209D01*
X225999294Y-104229014D01*
X226184866Y-104455134D01*
X226410986Y-104640706D01*
X226668966Y-104778599D01*
X226948889Y-104863513D01*
X227167050Y-104885000D01*
X227312950Y-104885000D01*
X227531111Y-104863513D01*
X227811034Y-104778599D01*
X228069014Y-104640706D01*
X228295134Y-104455134D01*
X228480706Y-104229014D01*
X228618599Y-103971034D01*
X228620777Y-103963853D01*
X240845149Y-103963853D01*
X240917931Y-104775118D01*
X241147585Y-105556597D01*
X241525285Y-106278256D01*
X241565450Y-106338366D01*
X242085845Y-106734550D01*
X244820395Y-104000000D01*
X245179605Y-104000000D01*
X247914155Y-106734550D01*
X248434550Y-106338366D01*
X248824748Y-105623388D01*
X249067964Y-104846024D01*
X249154851Y-104036147D01*
X249082069Y-103224882D01*
X248852415Y-102443403D01*
X248474715Y-101721744D01*
X248434550Y-101661634D01*
X247914155Y-101265450D01*
X245179605Y-104000000D01*
X244820395Y-104000000D01*
X242085845Y-101265450D01*
X241565450Y-101661634D01*
X241175252Y-102376612D01*
X240932036Y-103153976D01*
X240845149Y-103963853D01*
X228620777Y-103963853D01*
X228703513Y-103691111D01*
X228732185Y-103400000D01*
X228703513Y-103108889D01*
X228618599Y-102828966D01*
X228480706Y-102570986D01*
X228295134Y-102344866D01*
X228069014Y-102159294D01*
X227811034Y-102021401D01*
X227531111Y-101936487D01*
X227312950Y-101915000D01*
X227167050Y-101915000D01*
X226948889Y-101936487D01*
X226668966Y-102021401D01*
X226410986Y-102159294D01*
X226184866Y-102344866D01*
X225999294Y-102570986D01*
X225970000Y-102625791D01*
X225940706Y-102570986D01*
X225755134Y-102344866D01*
X225529014Y-102159294D01*
X225271034Y-102021401D01*
X224991111Y-101936487D01*
X224772950Y-101915000D01*
X224627050Y-101915000D01*
X224408889Y-101936487D01*
X224128966Y-102021401D01*
X223870986Y-102159294D01*
X223644866Y-102344866D01*
X223620393Y-102374687D01*
X223599502Y-102305820D01*
X223540537Y-102195506D01*
X223461185Y-102098815D01*
X223364494Y-102019463D01*
X223254180Y-101960498D01*
X223134482Y-101924188D01*
X223010000Y-101911928D01*
X221310000Y-101911928D01*
X221185518Y-101924188D01*
X221065820Y-101960498D01*
X220955506Y-102019463D01*
X220858815Y-102098815D01*
X220779463Y-102195506D01*
X220720498Y-102305820D01*
X220684188Y-102425518D01*
X220671928Y-102550000D01*
X213242232Y-102550000D01*
X213326011Y-102347743D01*
X213385000Y-102051184D01*
X213385000Y-101748816D01*
X213326011Y-101452257D01*
X213210299Y-101172905D01*
X213152128Y-101085845D01*
X242265450Y-101085845D01*
X245000000Y-103820395D01*
X247734550Y-101085845D01*
X247338366Y-100565450D01*
X246623388Y-100175252D01*
X245846024Y-99932036D01*
X245036147Y-99845149D01*
X244224882Y-99917931D01*
X243443403Y-100147585D01*
X242721744Y-100525285D01*
X242661634Y-100565450D01*
X242265450Y-101085845D01*
X213152128Y-101085845D01*
X213042312Y-100921495D01*
X212828505Y-100707688D01*
X212577095Y-100539701D01*
X212297743Y-100423989D01*
X212001184Y-100365000D01*
X211698816Y-100365000D01*
X211402257Y-100423989D01*
X211122905Y-100539701D01*
X210871495Y-100707688D01*
X210657688Y-100921495D01*
X210489701Y-101172905D01*
X210373989Y-101452257D01*
X210315000Y-101748816D01*
X191488884Y-101748816D01*
X191474715Y-101721744D01*
X191434550Y-101661634D01*
X190914155Y-101265450D01*
X188179605Y-104000000D01*
X187820395Y-104000000D01*
X185085845Y-101265450D01*
X184565450Y-101661634D01*
X184175252Y-102376612D01*
X183932036Y-103153976D01*
X183845149Y-103963853D01*
X183665849Y-103963853D01*
X183731173Y-103231917D01*
X183934656Y-102488109D01*
X184266638Y-101792095D01*
X184716626Y-101165870D01*
X184799205Y-101085845D01*
X185265450Y-101085845D01*
X188000000Y-103820395D01*
X190734550Y-101085845D01*
X190338366Y-100565450D01*
X189623388Y-100175252D01*
X188846024Y-99932036D01*
X188036147Y-99845149D01*
X187224882Y-99917931D01*
X186443403Y-100147585D01*
X185721744Y-100525285D01*
X185661634Y-100565450D01*
X185265450Y-101085845D01*
X184799205Y-101085845D01*
X185270403Y-100629223D01*
X185910451Y-100199129D01*
X186616553Y-99889171D01*
X187371457Y-99707935D01*
X188024207Y-99660000D01*
X244970608Y-99660000D01*
X245768083Y-99731173D01*
M02*
