G04 #@! TF.GenerationSoftware,KiCad,Pcbnew,5.1.4+dfsg1-1*
G04 #@! TF.CreationDate,2020-05-25T13:43:52+02:00*
G04 #@! TF.ProjectId,Telemetry,54656c65-6d65-4747-9279-2e6b69636164,rev?*
G04 #@! TF.SameCoordinates,Original*
G04 #@! TF.FileFunction,Soldermask,Bot*
G04 #@! TF.FilePolarity,Negative*
%FSLAX46Y46*%
G04 Gerber Fmt 4.6, Leading zero omitted, Abs format (unit mm)*
G04 Created by KiCad (PCBNEW 5.1.4+dfsg1-1) date 2020-05-25 13:43:52*
%MOMM*%
%LPD*%
G04 APERTURE LIST*
%ADD10C,0.100000*%
G04 APERTURE END LIST*
D10*
G36*
X246035787Y-141585462D02*
G01*
X246035790Y-141585463D01*
X246035789Y-141585463D01*
X246682029Y-141853144D01*
X247263631Y-142241758D01*
X247758242Y-142736369D01*
X248146856Y-143317971D01*
X248261541Y-143594845D01*
X248414538Y-143964213D01*
X248551000Y-144650256D01*
X248551000Y-145349744D01*
X248414538Y-146035787D01*
X248414537Y-146035789D01*
X248146856Y-146682029D01*
X247758242Y-147263631D01*
X247263631Y-147758242D01*
X246682029Y-148146856D01*
X246225068Y-148336135D01*
X246035787Y-148414538D01*
X245349744Y-148551000D01*
X244650256Y-148551000D01*
X243964213Y-148414538D01*
X243774932Y-148336135D01*
X243317971Y-148146856D01*
X242736369Y-147758242D01*
X242241758Y-147263631D01*
X241853144Y-146682029D01*
X241585463Y-146035789D01*
X241585462Y-146035787D01*
X241449000Y-145349744D01*
X241449000Y-144650256D01*
X241585462Y-143964213D01*
X241738459Y-143594845D01*
X241853144Y-143317971D01*
X242241758Y-142736369D01*
X242736369Y-142241758D01*
X243317971Y-141853144D01*
X243964211Y-141585463D01*
X243964210Y-141585463D01*
X243964213Y-141585462D01*
X244650256Y-141449000D01*
X245349744Y-141449000D01*
X246035787Y-141585462D01*
X246035787Y-141585462D01*
G37*
G36*
X189035787Y-141585462D02*
G01*
X189035790Y-141585463D01*
X189035789Y-141585463D01*
X189682029Y-141853144D01*
X190263631Y-142241758D01*
X190758242Y-142736369D01*
X191146856Y-143317971D01*
X191261541Y-143594845D01*
X191414538Y-143964213D01*
X191551000Y-144650256D01*
X191551000Y-145349744D01*
X191414538Y-146035787D01*
X191414537Y-146035789D01*
X191146856Y-146682029D01*
X190758242Y-147263631D01*
X190263631Y-147758242D01*
X189682029Y-148146856D01*
X189225068Y-148336135D01*
X189035787Y-148414538D01*
X188349744Y-148551000D01*
X187650256Y-148551000D01*
X186964213Y-148414538D01*
X186774932Y-148336135D01*
X186317971Y-148146856D01*
X185736369Y-147758242D01*
X185241758Y-147263631D01*
X184853144Y-146682029D01*
X184585463Y-146035789D01*
X184585462Y-146035787D01*
X184449000Y-145349744D01*
X184449000Y-144650256D01*
X184585462Y-143964213D01*
X184738459Y-143594845D01*
X184853144Y-143317971D01*
X185241758Y-142736369D01*
X185736369Y-142241758D01*
X186317971Y-141853144D01*
X186964211Y-141585463D01*
X186964210Y-141585463D01*
X186964213Y-141585462D01*
X187650256Y-141449000D01*
X188349744Y-141449000D01*
X189035787Y-141585462D01*
X189035787Y-141585462D01*
G37*
G36*
X216253228Y-144221703D02*
G01*
X216408100Y-144285853D01*
X216547481Y-144378985D01*
X216666015Y-144497519D01*
X216759147Y-144636900D01*
X216823297Y-144791772D01*
X216856000Y-144956184D01*
X216856000Y-145123816D01*
X216823297Y-145288228D01*
X216759147Y-145443100D01*
X216666015Y-145582481D01*
X216547481Y-145701015D01*
X216408100Y-145794147D01*
X216253228Y-145858297D01*
X216088816Y-145891000D01*
X215921184Y-145891000D01*
X215756772Y-145858297D01*
X215601900Y-145794147D01*
X215462519Y-145701015D01*
X215343985Y-145582481D01*
X215250853Y-145443100D01*
X215186703Y-145288228D01*
X215154000Y-145123816D01*
X215154000Y-144956184D01*
X215186703Y-144791772D01*
X215250853Y-144636900D01*
X215343985Y-144497519D01*
X215462519Y-144378985D01*
X215601900Y-144285853D01*
X215756772Y-144221703D01*
X215921184Y-144189000D01*
X216088816Y-144189000D01*
X216253228Y-144221703D01*
X216253228Y-144221703D01*
G37*
G36*
X219023228Y-144221703D02*
G01*
X219178100Y-144285853D01*
X219317481Y-144378985D01*
X219436015Y-144497519D01*
X219529147Y-144636900D01*
X219593297Y-144791772D01*
X219626000Y-144956184D01*
X219626000Y-145123816D01*
X219593297Y-145288228D01*
X219529147Y-145443100D01*
X219436015Y-145582481D01*
X219317481Y-145701015D01*
X219178100Y-145794147D01*
X219023228Y-145858297D01*
X218858816Y-145891000D01*
X218691184Y-145891000D01*
X218526772Y-145858297D01*
X218371900Y-145794147D01*
X218232519Y-145701015D01*
X218113985Y-145582481D01*
X218020853Y-145443100D01*
X217956703Y-145288228D01*
X217924000Y-145123816D01*
X217924000Y-144956184D01*
X217956703Y-144791772D01*
X218020853Y-144636900D01*
X218113985Y-144497519D01*
X218232519Y-144378985D01*
X218371900Y-144285853D01*
X218526772Y-144221703D01*
X218691184Y-144189000D01*
X218858816Y-144189000D01*
X219023228Y-144221703D01*
X219023228Y-144221703D01*
G37*
G36*
X221793228Y-144221703D02*
G01*
X221948100Y-144285853D01*
X222087481Y-144378985D01*
X222206015Y-144497519D01*
X222299147Y-144636900D01*
X222363297Y-144791772D01*
X222396000Y-144956184D01*
X222396000Y-145123816D01*
X222363297Y-145288228D01*
X222299147Y-145443100D01*
X222206015Y-145582481D01*
X222087481Y-145701015D01*
X221948100Y-145794147D01*
X221793228Y-145858297D01*
X221628816Y-145891000D01*
X221461184Y-145891000D01*
X221296772Y-145858297D01*
X221141900Y-145794147D01*
X221002519Y-145701015D01*
X220883985Y-145582481D01*
X220790853Y-145443100D01*
X220726703Y-145288228D01*
X220694000Y-145123816D01*
X220694000Y-144956184D01*
X220726703Y-144791772D01*
X220790853Y-144636900D01*
X220883985Y-144497519D01*
X221002519Y-144378985D01*
X221141900Y-144285853D01*
X221296772Y-144221703D01*
X221461184Y-144189000D01*
X221628816Y-144189000D01*
X221793228Y-144221703D01*
X221793228Y-144221703D01*
G37*
G36*
X224563228Y-144221703D02*
G01*
X224718100Y-144285853D01*
X224857481Y-144378985D01*
X224976015Y-144497519D01*
X225069147Y-144636900D01*
X225133297Y-144791772D01*
X225166000Y-144956184D01*
X225166000Y-145123816D01*
X225133297Y-145288228D01*
X225069147Y-145443100D01*
X224976015Y-145582481D01*
X224857481Y-145701015D01*
X224718100Y-145794147D01*
X224563228Y-145858297D01*
X224398816Y-145891000D01*
X224231184Y-145891000D01*
X224066772Y-145858297D01*
X223911900Y-145794147D01*
X223772519Y-145701015D01*
X223653985Y-145582481D01*
X223560853Y-145443100D01*
X223496703Y-145288228D01*
X223464000Y-145123816D01*
X223464000Y-144956184D01*
X223496703Y-144791772D01*
X223560853Y-144636900D01*
X223653985Y-144497519D01*
X223772519Y-144378985D01*
X223911900Y-144285853D01*
X224066772Y-144221703D01*
X224231184Y-144189000D01*
X224398816Y-144189000D01*
X224563228Y-144221703D01*
X224563228Y-144221703D01*
G37*
G36*
X233258254Y-140527818D02*
G01*
X233631511Y-140682426D01*
X233631513Y-140682427D01*
X233967436Y-140906884D01*
X234253116Y-141192564D01*
X234422359Y-141445853D01*
X234477574Y-141528489D01*
X234632182Y-141901746D01*
X234711000Y-142297993D01*
X234711000Y-142702007D01*
X234632182Y-143098254D01*
X234494213Y-143431341D01*
X234477573Y-143471513D01*
X234253116Y-143807436D01*
X233967436Y-144093116D01*
X233631513Y-144317573D01*
X233631512Y-144317574D01*
X233631511Y-144317574D01*
X233258254Y-144472182D01*
X232862007Y-144551000D01*
X232457993Y-144551000D01*
X232061746Y-144472182D01*
X231688489Y-144317574D01*
X231688488Y-144317574D01*
X231688487Y-144317573D01*
X231352564Y-144093116D01*
X231066884Y-143807436D01*
X230842427Y-143471513D01*
X230825787Y-143431341D01*
X230687818Y-143098254D01*
X230609000Y-142702007D01*
X230609000Y-142297993D01*
X230687818Y-141901746D01*
X230842426Y-141528489D01*
X230897642Y-141445853D01*
X231066884Y-141192564D01*
X231352564Y-140906884D01*
X231688487Y-140682427D01*
X231688489Y-140682426D01*
X232061746Y-140527818D01*
X232457993Y-140449000D01*
X232862007Y-140449000D01*
X233258254Y-140527818D01*
X233258254Y-140527818D01*
G37*
G36*
X208258254Y-140527818D02*
G01*
X208631511Y-140682426D01*
X208631513Y-140682427D01*
X208967436Y-140906884D01*
X209253116Y-141192564D01*
X209422359Y-141445853D01*
X209477574Y-141528489D01*
X209632182Y-141901746D01*
X209711000Y-142297993D01*
X209711000Y-142702007D01*
X209632182Y-143098254D01*
X209494213Y-143431341D01*
X209477573Y-143471513D01*
X209253116Y-143807436D01*
X208967436Y-144093116D01*
X208631513Y-144317573D01*
X208631512Y-144317574D01*
X208631511Y-144317574D01*
X208258254Y-144472182D01*
X207862007Y-144551000D01*
X207457993Y-144551000D01*
X207061746Y-144472182D01*
X206688489Y-144317574D01*
X206688488Y-144317574D01*
X206688487Y-144317573D01*
X206352564Y-144093116D01*
X206066884Y-143807436D01*
X205842427Y-143471513D01*
X205825787Y-143431341D01*
X205687818Y-143098254D01*
X205609000Y-142702007D01*
X205609000Y-142297993D01*
X205687818Y-141901746D01*
X205842426Y-141528489D01*
X205897642Y-141445853D01*
X206066884Y-141192564D01*
X206352564Y-140906884D01*
X206688487Y-140682427D01*
X206688489Y-140682426D01*
X207061746Y-140527818D01*
X207457993Y-140449000D01*
X207862007Y-140449000D01*
X208258254Y-140527818D01*
X208258254Y-140527818D01*
G37*
G36*
X223178228Y-141381703D02*
G01*
X223333100Y-141445853D01*
X223472481Y-141538985D01*
X223591015Y-141657519D01*
X223684147Y-141796900D01*
X223748297Y-141951772D01*
X223781000Y-142116184D01*
X223781000Y-142283816D01*
X223748297Y-142448228D01*
X223684147Y-142603100D01*
X223591015Y-142742481D01*
X223472481Y-142861015D01*
X223333100Y-142954147D01*
X223178228Y-143018297D01*
X223013816Y-143051000D01*
X222846184Y-143051000D01*
X222681772Y-143018297D01*
X222526900Y-142954147D01*
X222387519Y-142861015D01*
X222268985Y-142742481D01*
X222175853Y-142603100D01*
X222111703Y-142448228D01*
X222079000Y-142283816D01*
X222079000Y-142116184D01*
X222111703Y-141951772D01*
X222175853Y-141796900D01*
X222268985Y-141657519D01*
X222387519Y-141538985D01*
X222526900Y-141445853D01*
X222681772Y-141381703D01*
X222846184Y-141349000D01*
X223013816Y-141349000D01*
X223178228Y-141381703D01*
X223178228Y-141381703D01*
G37*
G36*
X226551000Y-143051000D02*
G01*
X224849000Y-143051000D01*
X224849000Y-141349000D01*
X226551000Y-141349000D01*
X226551000Y-143051000D01*
X226551000Y-143051000D01*
G37*
G36*
X214868228Y-141381703D02*
G01*
X215023100Y-141445853D01*
X215162481Y-141538985D01*
X215281015Y-141657519D01*
X215374147Y-141796900D01*
X215438297Y-141951772D01*
X215471000Y-142116184D01*
X215471000Y-142283816D01*
X215438297Y-142448228D01*
X215374147Y-142603100D01*
X215281015Y-142742481D01*
X215162481Y-142861015D01*
X215023100Y-142954147D01*
X214868228Y-143018297D01*
X214703816Y-143051000D01*
X214536184Y-143051000D01*
X214371772Y-143018297D01*
X214216900Y-142954147D01*
X214077519Y-142861015D01*
X213958985Y-142742481D01*
X213865853Y-142603100D01*
X213801703Y-142448228D01*
X213769000Y-142283816D01*
X213769000Y-142116184D01*
X213801703Y-141951772D01*
X213865853Y-141796900D01*
X213958985Y-141657519D01*
X214077519Y-141538985D01*
X214216900Y-141445853D01*
X214371772Y-141381703D01*
X214536184Y-141349000D01*
X214703816Y-141349000D01*
X214868228Y-141381703D01*
X214868228Y-141381703D01*
G37*
G36*
X220408228Y-141381703D02*
G01*
X220563100Y-141445853D01*
X220702481Y-141538985D01*
X220821015Y-141657519D01*
X220914147Y-141796900D01*
X220978297Y-141951772D01*
X221011000Y-142116184D01*
X221011000Y-142283816D01*
X220978297Y-142448228D01*
X220914147Y-142603100D01*
X220821015Y-142742481D01*
X220702481Y-142861015D01*
X220563100Y-142954147D01*
X220408228Y-143018297D01*
X220243816Y-143051000D01*
X220076184Y-143051000D01*
X219911772Y-143018297D01*
X219756900Y-142954147D01*
X219617519Y-142861015D01*
X219498985Y-142742481D01*
X219405853Y-142603100D01*
X219341703Y-142448228D01*
X219309000Y-142283816D01*
X219309000Y-142116184D01*
X219341703Y-141951772D01*
X219405853Y-141796900D01*
X219498985Y-141657519D01*
X219617519Y-141538985D01*
X219756900Y-141445853D01*
X219911772Y-141381703D01*
X220076184Y-141349000D01*
X220243816Y-141349000D01*
X220408228Y-141381703D01*
X220408228Y-141381703D01*
G37*
G36*
X217638228Y-141381703D02*
G01*
X217793100Y-141445853D01*
X217932481Y-141538985D01*
X218051015Y-141657519D01*
X218144147Y-141796900D01*
X218208297Y-141951772D01*
X218241000Y-142116184D01*
X218241000Y-142283816D01*
X218208297Y-142448228D01*
X218144147Y-142603100D01*
X218051015Y-142742481D01*
X217932481Y-142861015D01*
X217793100Y-142954147D01*
X217638228Y-143018297D01*
X217473816Y-143051000D01*
X217306184Y-143051000D01*
X217141772Y-143018297D01*
X216986900Y-142954147D01*
X216847519Y-142861015D01*
X216728985Y-142742481D01*
X216635853Y-142603100D01*
X216571703Y-142448228D01*
X216539000Y-142283816D01*
X216539000Y-142116184D01*
X216571703Y-141951772D01*
X216635853Y-141796900D01*
X216728985Y-141657519D01*
X216847519Y-141538985D01*
X216986900Y-141445853D01*
X217141772Y-141381703D01*
X217306184Y-141349000D01*
X217473816Y-141349000D01*
X217638228Y-141381703D01*
X217638228Y-141381703D01*
G37*
G36*
X247010443Y-135845519D02*
G01*
X247076627Y-135852037D01*
X247246466Y-135903557D01*
X247402991Y-135987222D01*
X247438729Y-136016552D01*
X247540186Y-136099814D01*
X247623448Y-136201271D01*
X247652778Y-136237009D01*
X247736443Y-136393534D01*
X247787963Y-136563373D01*
X247805359Y-136740000D01*
X247787963Y-136916627D01*
X247736443Y-137086466D01*
X247652778Y-137242991D01*
X247623448Y-137278729D01*
X247540186Y-137380186D01*
X247438729Y-137463448D01*
X247402991Y-137492778D01*
X247246466Y-137576443D01*
X247076627Y-137627963D01*
X247010443Y-137634481D01*
X246944260Y-137641000D01*
X246855740Y-137641000D01*
X246789557Y-137634481D01*
X246723373Y-137627963D01*
X246553534Y-137576443D01*
X246397009Y-137492778D01*
X246361271Y-137463448D01*
X246259814Y-137380186D01*
X246176552Y-137278729D01*
X246147222Y-137242991D01*
X246063557Y-137086466D01*
X246012037Y-136916627D01*
X245994641Y-136740000D01*
X246012037Y-136563373D01*
X246063557Y-136393534D01*
X246147222Y-136237009D01*
X246176552Y-136201271D01*
X246259814Y-136099814D01*
X246361271Y-136016552D01*
X246397009Y-135987222D01*
X246553534Y-135903557D01*
X246723373Y-135852037D01*
X246789557Y-135845519D01*
X246855740Y-135839000D01*
X246944260Y-135839000D01*
X247010443Y-135845519D01*
X247010443Y-135845519D01*
G37*
G36*
X222736600Y-135354600D02*
G01*
X220907400Y-135354600D01*
X220907400Y-133525400D01*
X222736600Y-133525400D01*
X222736600Y-135354600D01*
X222736600Y-135354600D01*
G37*
G36*
X219461294Y-133538633D02*
G01*
X219633695Y-133590931D01*
X219792583Y-133675858D01*
X219931849Y-133790151D01*
X220046142Y-133929417D01*
X220131069Y-134088305D01*
X220183367Y-134260706D01*
X220201025Y-134440000D01*
X220183367Y-134619294D01*
X220131069Y-134791695D01*
X220046142Y-134950583D01*
X219931849Y-135089849D01*
X219792583Y-135204142D01*
X219633695Y-135289069D01*
X219461294Y-135341367D01*
X219326931Y-135354600D01*
X219237069Y-135354600D01*
X219102706Y-135341367D01*
X218930305Y-135289069D01*
X218771417Y-135204142D01*
X218632151Y-135089849D01*
X218517858Y-134950583D01*
X218432931Y-134791695D01*
X218380633Y-134619294D01*
X218362975Y-134440000D01*
X218380633Y-134260706D01*
X218432931Y-134088305D01*
X218517858Y-133929417D01*
X218632151Y-133790151D01*
X218771417Y-133675858D01*
X218930305Y-133590931D01*
X219102706Y-133538633D01*
X219237069Y-133525400D01*
X219326931Y-133525400D01*
X219461294Y-133538633D01*
X219461294Y-133538633D01*
G37*
G36*
X247801000Y-135101000D02*
G01*
X245999000Y-135101000D01*
X245999000Y-133299000D01*
X247801000Y-133299000D01*
X247801000Y-135101000D01*
X247801000Y-135101000D01*
G37*
G36*
X222001294Y-130998633D02*
G01*
X222173695Y-131050931D01*
X222332583Y-131135858D01*
X222471849Y-131250151D01*
X222586142Y-131389417D01*
X222671069Y-131548305D01*
X222723367Y-131720706D01*
X222741025Y-131900000D01*
X222723367Y-132079294D01*
X222671069Y-132251695D01*
X222586142Y-132410583D01*
X222471849Y-132549849D01*
X222332583Y-132664142D01*
X222173695Y-132749069D01*
X222001294Y-132801367D01*
X221866931Y-132814600D01*
X221777069Y-132814600D01*
X221642706Y-132801367D01*
X221470305Y-132749069D01*
X221311417Y-132664142D01*
X221172151Y-132549849D01*
X221057858Y-132410583D01*
X220972931Y-132251695D01*
X220920633Y-132079294D01*
X220902975Y-131900000D01*
X220920633Y-131720706D01*
X220972931Y-131548305D01*
X221057858Y-131389417D01*
X221172151Y-131250151D01*
X221311417Y-131135858D01*
X221470305Y-131050931D01*
X221642706Y-130998633D01*
X221777069Y-130985400D01*
X221866931Y-130985400D01*
X222001294Y-130998633D01*
X222001294Y-130998633D01*
G37*
G36*
X219461294Y-130998633D02*
G01*
X219633695Y-131050931D01*
X219792583Y-131135858D01*
X219931849Y-131250151D01*
X220046142Y-131389417D01*
X220131069Y-131548305D01*
X220183367Y-131720706D01*
X220201025Y-131900000D01*
X220183367Y-132079294D01*
X220131069Y-132251695D01*
X220046142Y-132410583D01*
X219931849Y-132549849D01*
X219792583Y-132664142D01*
X219633695Y-132749069D01*
X219461294Y-132801367D01*
X219326931Y-132814600D01*
X219237069Y-132814600D01*
X219102706Y-132801367D01*
X218930305Y-132749069D01*
X218771417Y-132664142D01*
X218632151Y-132549849D01*
X218517858Y-132410583D01*
X218432931Y-132251695D01*
X218380633Y-132079294D01*
X218362975Y-131900000D01*
X218380633Y-131720706D01*
X218432931Y-131548305D01*
X218517858Y-131389417D01*
X218632151Y-131250151D01*
X218771417Y-131135858D01*
X218930305Y-131050931D01*
X219102706Y-130998633D01*
X219237069Y-130985400D01*
X219326931Y-130985400D01*
X219461294Y-130998633D01*
X219461294Y-130998633D01*
G37*
G36*
X219461294Y-128458633D02*
G01*
X219633695Y-128510931D01*
X219792583Y-128595858D01*
X219931849Y-128710151D01*
X220046142Y-128849417D01*
X220131069Y-129008305D01*
X220183367Y-129180706D01*
X220201025Y-129360000D01*
X220183367Y-129539294D01*
X220131069Y-129711695D01*
X220046142Y-129870583D01*
X219931849Y-130009849D01*
X219792583Y-130124142D01*
X219633695Y-130209069D01*
X219461294Y-130261367D01*
X219326931Y-130274600D01*
X219237069Y-130274600D01*
X219102706Y-130261367D01*
X218930305Y-130209069D01*
X218771417Y-130124142D01*
X218632151Y-130009849D01*
X218517858Y-129870583D01*
X218432931Y-129711695D01*
X218380633Y-129539294D01*
X218362975Y-129360000D01*
X218380633Y-129180706D01*
X218432931Y-129008305D01*
X218517858Y-128849417D01*
X218632151Y-128710151D01*
X218771417Y-128595858D01*
X218930305Y-128510931D01*
X219102706Y-128458633D01*
X219237069Y-128445400D01*
X219326931Y-128445400D01*
X219461294Y-128458633D01*
X219461294Y-128458633D01*
G37*
G36*
X222001294Y-128458633D02*
G01*
X222173695Y-128510931D01*
X222332583Y-128595858D01*
X222471849Y-128710151D01*
X222586142Y-128849417D01*
X222671069Y-129008305D01*
X222723367Y-129180706D01*
X222741025Y-129360000D01*
X222723367Y-129539294D01*
X222671069Y-129711695D01*
X222586142Y-129870583D01*
X222471849Y-130009849D01*
X222332583Y-130124142D01*
X222173695Y-130209069D01*
X222001294Y-130261367D01*
X221866931Y-130274600D01*
X221777069Y-130274600D01*
X221642706Y-130261367D01*
X221470305Y-130209069D01*
X221311417Y-130124142D01*
X221172151Y-130009849D01*
X221057858Y-129870583D01*
X220972931Y-129711695D01*
X220920633Y-129539294D01*
X220902975Y-129360000D01*
X220920633Y-129180706D01*
X220972931Y-129008305D01*
X221057858Y-128849417D01*
X221172151Y-128710151D01*
X221311417Y-128595858D01*
X221470305Y-128510931D01*
X221642706Y-128458633D01*
X221777069Y-128445400D01*
X221866931Y-128445400D01*
X222001294Y-128458633D01*
X222001294Y-128458633D01*
G37*
G36*
X243710442Y-126545518D02*
G01*
X243776627Y-126552037D01*
X243946466Y-126603557D01*
X244102991Y-126687222D01*
X244138729Y-126716552D01*
X244240186Y-126799814D01*
X244323448Y-126901271D01*
X244352778Y-126937009D01*
X244436443Y-127093534D01*
X244487963Y-127263373D01*
X244505359Y-127440000D01*
X244487963Y-127616627D01*
X244436443Y-127786466D01*
X244352778Y-127942991D01*
X244323448Y-127978729D01*
X244240186Y-128080186D01*
X244138729Y-128163448D01*
X244102991Y-128192778D01*
X243946466Y-128276443D01*
X243776627Y-128327963D01*
X243710443Y-128334481D01*
X243644260Y-128341000D01*
X243555740Y-128341000D01*
X243489557Y-128334481D01*
X243423373Y-128327963D01*
X243253534Y-128276443D01*
X243097009Y-128192778D01*
X243061271Y-128163448D01*
X242959814Y-128080186D01*
X242876552Y-127978729D01*
X242847222Y-127942991D01*
X242763557Y-127786466D01*
X242712037Y-127616627D01*
X242694641Y-127440000D01*
X242712037Y-127263373D01*
X242763557Y-127093534D01*
X242847222Y-126937009D01*
X242876552Y-126901271D01*
X242959814Y-126799814D01*
X243061271Y-126716552D01*
X243097009Y-126687222D01*
X243253534Y-126603557D01*
X243423373Y-126552037D01*
X243489558Y-126545518D01*
X243555740Y-126539000D01*
X243644260Y-126539000D01*
X243710442Y-126545518D01*
X243710442Y-126545518D01*
G37*
G36*
X219461294Y-125918633D02*
G01*
X219633695Y-125970931D01*
X219792583Y-126055858D01*
X219931849Y-126170151D01*
X220046142Y-126309417D01*
X220131069Y-126468305D01*
X220183367Y-126640706D01*
X220201025Y-126820000D01*
X220183367Y-126999294D01*
X220131069Y-127171695D01*
X220046142Y-127330583D01*
X219931849Y-127469849D01*
X219792583Y-127584142D01*
X219633695Y-127669069D01*
X219461294Y-127721367D01*
X219326931Y-127734600D01*
X219237069Y-127734600D01*
X219102706Y-127721367D01*
X218930305Y-127669069D01*
X218771417Y-127584142D01*
X218632151Y-127469849D01*
X218517858Y-127330583D01*
X218432931Y-127171695D01*
X218380633Y-126999294D01*
X218362975Y-126820000D01*
X218380633Y-126640706D01*
X218432931Y-126468305D01*
X218517858Y-126309417D01*
X218632151Y-126170151D01*
X218771417Y-126055858D01*
X218930305Y-125970931D01*
X219102706Y-125918633D01*
X219237069Y-125905400D01*
X219326931Y-125905400D01*
X219461294Y-125918633D01*
X219461294Y-125918633D01*
G37*
G36*
X222001294Y-125918633D02*
G01*
X222173695Y-125970931D01*
X222332583Y-126055858D01*
X222471849Y-126170151D01*
X222586142Y-126309417D01*
X222671069Y-126468305D01*
X222723367Y-126640706D01*
X222741025Y-126820000D01*
X222723367Y-126999294D01*
X222671069Y-127171695D01*
X222586142Y-127330583D01*
X222471849Y-127469849D01*
X222332583Y-127584142D01*
X222173695Y-127669069D01*
X222001294Y-127721367D01*
X221866931Y-127734600D01*
X221777069Y-127734600D01*
X221642706Y-127721367D01*
X221470305Y-127669069D01*
X221311417Y-127584142D01*
X221172151Y-127469849D01*
X221057858Y-127330583D01*
X220972931Y-127171695D01*
X220920633Y-126999294D01*
X220902975Y-126820000D01*
X220920633Y-126640706D01*
X220972931Y-126468305D01*
X221057858Y-126309417D01*
X221172151Y-126170151D01*
X221311417Y-126055858D01*
X221470305Y-125970931D01*
X221642706Y-125918633D01*
X221777069Y-125905400D01*
X221866931Y-125905400D01*
X222001294Y-125918633D01*
X222001294Y-125918633D01*
G37*
G36*
X244501000Y-125801000D02*
G01*
X242699000Y-125801000D01*
X242699000Y-123999000D01*
X244501000Y-123999000D01*
X244501000Y-125801000D01*
X244501000Y-125801000D01*
G37*
G36*
X248913855Y-117952140D02*
G01*
X248977618Y-117958420D01*
X249068404Y-117985960D01*
X249100336Y-117995646D01*
X249213425Y-118056094D01*
X249312554Y-118137446D01*
X249393906Y-118236575D01*
X249454354Y-118349664D01*
X249454355Y-118349668D01*
X249491580Y-118472382D01*
X249504149Y-118600000D01*
X249491580Y-118727618D01*
X249464040Y-118818404D01*
X249454354Y-118850336D01*
X249393906Y-118963425D01*
X249312554Y-119062554D01*
X249213425Y-119143906D01*
X249100336Y-119204354D01*
X249068404Y-119214040D01*
X248977618Y-119241580D01*
X248913855Y-119247860D01*
X248881974Y-119251000D01*
X248118026Y-119251000D01*
X248086145Y-119247860D01*
X248022382Y-119241580D01*
X247931596Y-119214040D01*
X247899664Y-119204354D01*
X247786575Y-119143906D01*
X247687446Y-119062554D01*
X247606094Y-118963425D01*
X247545646Y-118850336D01*
X247535960Y-118818404D01*
X247508420Y-118727618D01*
X247495851Y-118600000D01*
X247508420Y-118472382D01*
X247545645Y-118349668D01*
X247545646Y-118349664D01*
X247606094Y-118236575D01*
X247687446Y-118137446D01*
X247786575Y-118056094D01*
X247899664Y-117995646D01*
X247931596Y-117985960D01*
X248022382Y-117958420D01*
X248086145Y-117952140D01*
X248118026Y-117949000D01*
X248881974Y-117949000D01*
X248913855Y-117952140D01*
X248913855Y-117952140D01*
G37*
G36*
X246026348Y-116853820D02*
G01*
X246026350Y-116853821D01*
X246026351Y-116853821D01*
X246167574Y-116912317D01*
X246167577Y-116912319D01*
X246294669Y-116997239D01*
X246402761Y-117105331D01*
X246487681Y-117232423D01*
X246487683Y-117232426D01*
X246546179Y-117373649D01*
X246576000Y-117523571D01*
X246576000Y-117676429D01*
X246546179Y-117826351D01*
X246487683Y-117967574D01*
X246487681Y-117967577D01*
X246402761Y-118094669D01*
X246294669Y-118202761D01*
X246167577Y-118287681D01*
X246167574Y-118287683D01*
X246026351Y-118346179D01*
X246026350Y-118346179D01*
X246026348Y-118346180D01*
X245876431Y-118376000D01*
X245723569Y-118376000D01*
X245573652Y-118346180D01*
X245573650Y-118346179D01*
X245573649Y-118346179D01*
X245432426Y-118287683D01*
X245432423Y-118287681D01*
X245305331Y-118202761D01*
X245197239Y-118094669D01*
X245112319Y-117967577D01*
X245112317Y-117967574D01*
X245053821Y-117826351D01*
X245024000Y-117676429D01*
X245024000Y-117523571D01*
X245053821Y-117373649D01*
X245112317Y-117232426D01*
X245112319Y-117232423D01*
X245197239Y-117105331D01*
X245305331Y-116997239D01*
X245432423Y-116912319D01*
X245432426Y-116912317D01*
X245573649Y-116853821D01*
X245573650Y-116853821D01*
X245573652Y-116853820D01*
X245723569Y-116824000D01*
X245876431Y-116824000D01*
X246026348Y-116853820D01*
X246026348Y-116853820D01*
G37*
G36*
X246026348Y-111853820D02*
G01*
X246026350Y-111853821D01*
X246026351Y-111853821D01*
X246167574Y-111912317D01*
X246167577Y-111912319D01*
X246294669Y-111997239D01*
X246402761Y-112105331D01*
X246487681Y-112232423D01*
X246487683Y-112232426D01*
X246546179Y-112373649D01*
X246576000Y-112523571D01*
X246576000Y-112676429D01*
X246546179Y-112826351D01*
X246487683Y-112967574D01*
X246487681Y-112967577D01*
X246402761Y-113094669D01*
X246294669Y-113202761D01*
X246167577Y-113287681D01*
X246167574Y-113287683D01*
X246026351Y-113346179D01*
X246026350Y-113346179D01*
X246026348Y-113346180D01*
X245876431Y-113376000D01*
X245723569Y-113376000D01*
X245573652Y-113346180D01*
X245573650Y-113346179D01*
X245573649Y-113346179D01*
X245432426Y-113287683D01*
X245432423Y-113287681D01*
X245305331Y-113202761D01*
X245197239Y-113094669D01*
X245112319Y-112967577D01*
X245112317Y-112967574D01*
X245053821Y-112826351D01*
X245024000Y-112676429D01*
X245024000Y-112523571D01*
X245053821Y-112373649D01*
X245112317Y-112232426D01*
X245112319Y-112232423D01*
X245197239Y-112105331D01*
X245305331Y-111997239D01*
X245432423Y-111912319D01*
X245432426Y-111912317D01*
X245573649Y-111853821D01*
X245573650Y-111853821D01*
X245573652Y-111853820D01*
X245723569Y-111824000D01*
X245876431Y-111824000D01*
X246026348Y-111853820D01*
X246026348Y-111853820D01*
G37*
G36*
X248913855Y-110952140D02*
G01*
X248977618Y-110958420D01*
X249068404Y-110985960D01*
X249100336Y-110995646D01*
X249213425Y-111056094D01*
X249312554Y-111137446D01*
X249393906Y-111236575D01*
X249454354Y-111349664D01*
X249464040Y-111381596D01*
X249491580Y-111472382D01*
X249504149Y-111600000D01*
X249491580Y-111727618D01*
X249464040Y-111818404D01*
X249454354Y-111850336D01*
X249393906Y-111963425D01*
X249312554Y-112062554D01*
X249213425Y-112143906D01*
X249100336Y-112204354D01*
X249068404Y-112214040D01*
X248977618Y-112241580D01*
X248913855Y-112247860D01*
X248881974Y-112251000D01*
X248118026Y-112251000D01*
X248086145Y-112247860D01*
X248022382Y-112241580D01*
X247931596Y-112214040D01*
X247899664Y-112204354D01*
X247786575Y-112143906D01*
X247687446Y-112062554D01*
X247606094Y-111963425D01*
X247545646Y-111850336D01*
X247535960Y-111818404D01*
X247508420Y-111727618D01*
X247495851Y-111600000D01*
X247508420Y-111472382D01*
X247535960Y-111381596D01*
X247545646Y-111349664D01*
X247606094Y-111236575D01*
X247687446Y-111137446D01*
X247786575Y-111056094D01*
X247899664Y-110995646D01*
X247931596Y-110985960D01*
X248022382Y-110958420D01*
X248086145Y-110952140D01*
X248118026Y-110949000D01*
X248881974Y-110949000D01*
X248913855Y-110952140D01*
X248913855Y-110952140D01*
G37*
G36*
X212127395Y-109985546D02*
G01*
X212300466Y-110057234D01*
X212300467Y-110057235D01*
X212456227Y-110161310D01*
X212588690Y-110293773D01*
X212588691Y-110293775D01*
X212692766Y-110449534D01*
X212764454Y-110622605D01*
X212801000Y-110806333D01*
X212801000Y-110993667D01*
X212764454Y-111177395D01*
X212692766Y-111350466D01*
X212692765Y-111350467D01*
X212588690Y-111506227D01*
X212456227Y-111638690D01*
X212377818Y-111691081D01*
X212300466Y-111742766D01*
X212127395Y-111814454D01*
X211943667Y-111851000D01*
X211756333Y-111851000D01*
X211572605Y-111814454D01*
X211399534Y-111742766D01*
X211322182Y-111691081D01*
X211243773Y-111638690D01*
X211111310Y-111506227D01*
X211007235Y-111350467D01*
X211007234Y-111350466D01*
X210935546Y-111177395D01*
X210899000Y-110993667D01*
X210899000Y-110806333D01*
X210935546Y-110622605D01*
X211007234Y-110449534D01*
X211111309Y-110293775D01*
X211111310Y-110293773D01*
X211243773Y-110161310D01*
X211399533Y-110057235D01*
X211399534Y-110057234D01*
X211572605Y-109985546D01*
X211756333Y-109949000D01*
X211943667Y-109949000D01*
X212127395Y-109985546D01*
X212127395Y-109985546D01*
G37*
G36*
X205884687Y-107711507D02*
G01*
X205884690Y-107711508D01*
X205884689Y-107711508D01*
X206062309Y-107785080D01*
X206062310Y-107785081D01*
X206222161Y-107891889D01*
X206358111Y-108027839D01*
X206447158Y-108161109D01*
X206464920Y-108187691D01*
X206521825Y-108325073D01*
X206538493Y-108365313D01*
X206576000Y-108553871D01*
X206576000Y-108746129D01*
X206538493Y-108934687D01*
X206538492Y-108934689D01*
X206464920Y-109112309D01*
X206464919Y-109112310D01*
X206358111Y-109272161D01*
X206222161Y-109408111D01*
X206088891Y-109497158D01*
X206062309Y-109514920D01*
X205924927Y-109571825D01*
X205884687Y-109588493D01*
X205696129Y-109626000D01*
X205503871Y-109626000D01*
X205315313Y-109588493D01*
X205275073Y-109571825D01*
X205137691Y-109514920D01*
X205111109Y-109497158D01*
X204977839Y-109408111D01*
X204841889Y-109272161D01*
X204735081Y-109112310D01*
X204735080Y-109112309D01*
X204661508Y-108934689D01*
X204661507Y-108934687D01*
X204624000Y-108746129D01*
X204624000Y-108553871D01*
X204661507Y-108365313D01*
X204678175Y-108325073D01*
X204735080Y-108187691D01*
X204752842Y-108161109D01*
X204841889Y-108027839D01*
X204977839Y-107891889D01*
X205137690Y-107785081D01*
X205137691Y-107785080D01*
X205315311Y-107711508D01*
X205315310Y-107711508D01*
X205315313Y-107711507D01*
X205503871Y-107674000D01*
X205696129Y-107674000D01*
X205884687Y-107711507D01*
X205884687Y-107711507D01*
G37*
G36*
X218384687Y-107711507D02*
G01*
X218384690Y-107711508D01*
X218384689Y-107711508D01*
X218562309Y-107785080D01*
X218562310Y-107785081D01*
X218722161Y-107891889D01*
X218858111Y-108027839D01*
X218947158Y-108161109D01*
X218964920Y-108187691D01*
X219021825Y-108325073D01*
X219038493Y-108365313D01*
X219076000Y-108553871D01*
X219076000Y-108746129D01*
X219038493Y-108934687D01*
X219038492Y-108934689D01*
X218964920Y-109112309D01*
X218964919Y-109112310D01*
X218858111Y-109272161D01*
X218722161Y-109408111D01*
X218588891Y-109497158D01*
X218562309Y-109514920D01*
X218424927Y-109571825D01*
X218384687Y-109588493D01*
X218196129Y-109626000D01*
X218003871Y-109626000D01*
X217815313Y-109588493D01*
X217775073Y-109571825D01*
X217637691Y-109514920D01*
X217611109Y-109497158D01*
X217477839Y-109408111D01*
X217341889Y-109272161D01*
X217235081Y-109112310D01*
X217235080Y-109112309D01*
X217161508Y-108934689D01*
X217161507Y-108934687D01*
X217124000Y-108746129D01*
X217124000Y-108553871D01*
X217161507Y-108365313D01*
X217178175Y-108325073D01*
X217235080Y-108187691D01*
X217252842Y-108161109D01*
X217341889Y-108027839D01*
X217477839Y-107891889D01*
X217637690Y-107785081D01*
X217637691Y-107785080D01*
X217815311Y-107711508D01*
X217815310Y-107711508D01*
X217815313Y-107711507D01*
X218003871Y-107674000D01*
X218196129Y-107674000D01*
X218384687Y-107711507D01*
X218384687Y-107711507D01*
G37*
G36*
X189035787Y-100585462D02*
G01*
X189035790Y-100585463D01*
X189035789Y-100585463D01*
X189682029Y-100853144D01*
X190263631Y-101241758D01*
X190758242Y-101736369D01*
X191146856Y-102317971D01*
X191261541Y-102594845D01*
X191414538Y-102964213D01*
X191551000Y-103650256D01*
X191551000Y-104349744D01*
X191414538Y-105035787D01*
X191336135Y-105225068D01*
X191146856Y-105682029D01*
X190758242Y-106263631D01*
X190263631Y-106758242D01*
X189682029Y-107146856D01*
X189225068Y-107336135D01*
X189035787Y-107414538D01*
X188349744Y-107551000D01*
X187650256Y-107551000D01*
X186964213Y-107414538D01*
X186774932Y-107336135D01*
X186317971Y-107146856D01*
X185736369Y-106758242D01*
X185241758Y-106263631D01*
X184853144Y-105682029D01*
X184663865Y-105225068D01*
X184585462Y-105035787D01*
X184449000Y-104349744D01*
X184449000Y-103650256D01*
X184585462Y-102964213D01*
X184738459Y-102594845D01*
X184853144Y-102317971D01*
X185241758Y-101736369D01*
X185736369Y-101241758D01*
X186317971Y-100853144D01*
X186964211Y-100585463D01*
X186964210Y-100585463D01*
X186964213Y-100585462D01*
X187650256Y-100449000D01*
X188349744Y-100449000D01*
X189035787Y-100585462D01*
X189035787Y-100585462D01*
G37*
G36*
X246035787Y-100585462D02*
G01*
X246035790Y-100585463D01*
X246035789Y-100585463D01*
X246682029Y-100853144D01*
X247263631Y-101241758D01*
X247758242Y-101736369D01*
X248146856Y-102317971D01*
X248261541Y-102594845D01*
X248414538Y-102964213D01*
X248551000Y-103650256D01*
X248551000Y-104349744D01*
X248414538Y-105035787D01*
X248336135Y-105225068D01*
X248146856Y-105682029D01*
X247758242Y-106263631D01*
X247263631Y-106758242D01*
X246682029Y-107146856D01*
X246225068Y-107336135D01*
X246035787Y-107414538D01*
X245349744Y-107551000D01*
X244650256Y-107551000D01*
X243964213Y-107414538D01*
X243774932Y-107336135D01*
X243317971Y-107146856D01*
X242736369Y-106758242D01*
X242241758Y-106263631D01*
X241853144Y-105682029D01*
X241663865Y-105225068D01*
X241585462Y-105035787D01*
X241449000Y-104349744D01*
X241449000Y-103650256D01*
X241585462Y-102964213D01*
X241738459Y-102594845D01*
X241853144Y-102317971D01*
X242241758Y-101736369D01*
X242736369Y-101241758D01*
X243317971Y-100853144D01*
X243964211Y-100585463D01*
X243964210Y-100585463D01*
X243964213Y-100585462D01*
X244650256Y-100449000D01*
X245349744Y-100449000D01*
X246035787Y-100585462D01*
X246035787Y-100585462D01*
G37*
G36*
X205884687Y-103211507D02*
G01*
X205884690Y-103211508D01*
X205884689Y-103211508D01*
X206062309Y-103285080D01*
X206062310Y-103285081D01*
X206222161Y-103391889D01*
X206358111Y-103527839D01*
X206439526Y-103649686D01*
X206464920Y-103687691D01*
X206489265Y-103746466D01*
X206538493Y-103865313D01*
X206576000Y-104053871D01*
X206576000Y-104246129D01*
X206538493Y-104434687D01*
X206538492Y-104434689D01*
X206464920Y-104612309D01*
X206464919Y-104612310D01*
X206358111Y-104772161D01*
X206222161Y-104908111D01*
X206088891Y-104997158D01*
X206062309Y-105014920D01*
X205924927Y-105071825D01*
X205884687Y-105088493D01*
X205696129Y-105126000D01*
X205503871Y-105126000D01*
X205315313Y-105088493D01*
X205275073Y-105071825D01*
X205137691Y-105014920D01*
X205111109Y-104997158D01*
X204977839Y-104908111D01*
X204841889Y-104772161D01*
X204735081Y-104612310D01*
X204735080Y-104612309D01*
X204661508Y-104434689D01*
X204661507Y-104434687D01*
X204624000Y-104246129D01*
X204624000Y-104053871D01*
X204661507Y-103865313D01*
X204710735Y-103746466D01*
X204735080Y-103687691D01*
X204760474Y-103649686D01*
X204841889Y-103527839D01*
X204977839Y-103391889D01*
X205137690Y-103285081D01*
X205137691Y-103285080D01*
X205315311Y-103211508D01*
X205315310Y-103211508D01*
X205315313Y-103211507D01*
X205503871Y-103174000D01*
X205696129Y-103174000D01*
X205884687Y-103211507D01*
X205884687Y-103211507D01*
G37*
G36*
X218384687Y-103211507D02*
G01*
X218384690Y-103211508D01*
X218384689Y-103211508D01*
X218562309Y-103285080D01*
X218562310Y-103285081D01*
X218722161Y-103391889D01*
X218858111Y-103527839D01*
X218939526Y-103649686D01*
X218964920Y-103687691D01*
X218989265Y-103746466D01*
X219038493Y-103865313D01*
X219076000Y-104053871D01*
X219076000Y-104246129D01*
X219038493Y-104434687D01*
X219038492Y-104434689D01*
X218964920Y-104612309D01*
X218964919Y-104612310D01*
X218858111Y-104772161D01*
X218722161Y-104908111D01*
X218588891Y-104997158D01*
X218562309Y-105014920D01*
X218424927Y-105071825D01*
X218384687Y-105088493D01*
X218196129Y-105126000D01*
X218003871Y-105126000D01*
X217815313Y-105088493D01*
X217775073Y-105071825D01*
X217637691Y-105014920D01*
X217611109Y-104997158D01*
X217477839Y-104908111D01*
X217341889Y-104772161D01*
X217235081Y-104612310D01*
X217235080Y-104612309D01*
X217161508Y-104434689D01*
X217161507Y-104434687D01*
X217124000Y-104246129D01*
X217124000Y-104053871D01*
X217161507Y-103865313D01*
X217210735Y-103746466D01*
X217235080Y-103687691D01*
X217260474Y-103649686D01*
X217341889Y-103527839D01*
X217477839Y-103391889D01*
X217637690Y-103285081D01*
X217637691Y-103285080D01*
X217815311Y-103211508D01*
X217815310Y-103211508D01*
X217815313Y-103211507D01*
X218003871Y-103174000D01*
X218196129Y-103174000D01*
X218384687Y-103211507D01*
X218384687Y-103211507D01*
G37*
G36*
X227350443Y-102505519D02*
G01*
X227416627Y-102512037D01*
X227586466Y-102563557D01*
X227742991Y-102647222D01*
X227778729Y-102676552D01*
X227880186Y-102759814D01*
X227955019Y-102851000D01*
X227992778Y-102897009D01*
X228076443Y-103053534D01*
X228127963Y-103223373D01*
X228145359Y-103400000D01*
X228127963Y-103576627D01*
X228076443Y-103746466D01*
X227992778Y-103902991D01*
X227963448Y-103938729D01*
X227880186Y-104040186D01*
X227778729Y-104123448D01*
X227742991Y-104152778D01*
X227586466Y-104236443D01*
X227416627Y-104287963D01*
X227350443Y-104294481D01*
X227284260Y-104301000D01*
X227195740Y-104301000D01*
X227129557Y-104294481D01*
X227063373Y-104287963D01*
X226893534Y-104236443D01*
X226737009Y-104152778D01*
X226701271Y-104123448D01*
X226599814Y-104040186D01*
X226516552Y-103938729D01*
X226487222Y-103902991D01*
X226403557Y-103746466D01*
X226352037Y-103576627D01*
X226334641Y-103400000D01*
X226352037Y-103223373D01*
X226403557Y-103053534D01*
X226487222Y-102897009D01*
X226524981Y-102851000D01*
X226599814Y-102759814D01*
X226701271Y-102676552D01*
X226737009Y-102647222D01*
X226893534Y-102563557D01*
X227063373Y-102512037D01*
X227129558Y-102505518D01*
X227195740Y-102499000D01*
X227284260Y-102499000D01*
X227350443Y-102505519D01*
X227350443Y-102505519D01*
G37*
G36*
X224810443Y-102505519D02*
G01*
X224876627Y-102512037D01*
X225046466Y-102563557D01*
X225202991Y-102647222D01*
X225238729Y-102676552D01*
X225340186Y-102759814D01*
X225415019Y-102851000D01*
X225452778Y-102897009D01*
X225536443Y-103053534D01*
X225587963Y-103223373D01*
X225605359Y-103400000D01*
X225587963Y-103576627D01*
X225536443Y-103746466D01*
X225452778Y-103902991D01*
X225423448Y-103938729D01*
X225340186Y-104040186D01*
X225238729Y-104123448D01*
X225202991Y-104152778D01*
X225046466Y-104236443D01*
X224876627Y-104287963D01*
X224810443Y-104294481D01*
X224744260Y-104301000D01*
X224655740Y-104301000D01*
X224589557Y-104294481D01*
X224523373Y-104287963D01*
X224353534Y-104236443D01*
X224197009Y-104152778D01*
X224161271Y-104123448D01*
X224059814Y-104040186D01*
X223976552Y-103938729D01*
X223947222Y-103902991D01*
X223863557Y-103746466D01*
X223812037Y-103576627D01*
X223794641Y-103400000D01*
X223812037Y-103223373D01*
X223863557Y-103053534D01*
X223947222Y-102897009D01*
X223984981Y-102851000D01*
X224059814Y-102759814D01*
X224161271Y-102676552D01*
X224197009Y-102647222D01*
X224353534Y-102563557D01*
X224523373Y-102512037D01*
X224589558Y-102505518D01*
X224655740Y-102499000D01*
X224744260Y-102499000D01*
X224810443Y-102505519D01*
X224810443Y-102505519D01*
G37*
G36*
X223061000Y-104301000D02*
G01*
X221259000Y-104301000D01*
X221259000Y-102499000D01*
X223061000Y-102499000D01*
X223061000Y-104301000D01*
X223061000Y-104301000D01*
G37*
G36*
X212127395Y-100985546D02*
G01*
X212300466Y-101057234D01*
X212300467Y-101057235D01*
X212456227Y-101161310D01*
X212588690Y-101293773D01*
X212641081Y-101372182D01*
X212692766Y-101449534D01*
X212764454Y-101622605D01*
X212801000Y-101806333D01*
X212801000Y-101993667D01*
X212764454Y-102177395D01*
X212692766Y-102350466D01*
X212692765Y-102350467D01*
X212588690Y-102506227D01*
X212456227Y-102638690D01*
X212377818Y-102691081D01*
X212300466Y-102742766D01*
X212127395Y-102814454D01*
X211943667Y-102851000D01*
X211756333Y-102851000D01*
X211572605Y-102814454D01*
X211399534Y-102742766D01*
X211322182Y-102691081D01*
X211243773Y-102638690D01*
X211111310Y-102506227D01*
X211007235Y-102350467D01*
X211007234Y-102350466D01*
X210935546Y-102177395D01*
X210899000Y-101993667D01*
X210899000Y-101806333D01*
X210935546Y-101622605D01*
X211007234Y-101449534D01*
X211058919Y-101372182D01*
X211111310Y-101293773D01*
X211243773Y-101161310D01*
X211399533Y-101057235D01*
X211399534Y-101057234D01*
X211572605Y-100985546D01*
X211756333Y-100949000D01*
X211943667Y-100949000D01*
X212127395Y-100985546D01*
X212127395Y-100985546D01*
G37*
M02*
