M48
; DRILL file {KiCad 5.1.4+dfsg1-1} date Thu 04 Jun 2020 10:37:30 AM CEST
; FORMAT={-:-/ absolute / inch / decimal}
; #@! TF.CreationDate,2020-06-04T10:37:30+02:00
; #@! TF.GenerationSoftware,Kicad,Pcbnew,5.1.4+dfsg1-1
; #@! TF.FileFunction,Plated,1,2,PTH
FMAT,2
INCH
T1C0.0157
T2C0.0197
T3C0.0236
T4C0.0335
T5C0.0394
T6C0.0400
T7C0.0492
T8C0.0709
T9C0.1260
T10C0.1378
%
G90
G05
T1
X8.5512Y-5.3878
X8.5512Y-5.4341
X8.5817Y-5.3573
X8.5817Y-5.4665
X8.7756Y-4.5059
X8.815Y-4.5581
X8.8366Y-4.374
X8.8366Y-4.4134
X8.9016Y-5.2362
X8.9073Y-4.4146
X8.9173Y-4.5591
X8.9331Y-5.2087
X8.9764Y-5.2047
X8.9793Y-4.6476
X8.9795Y-4.5953
X9.0079Y-5.2362
X9.1024Y-5.0522
X9.1024Y-5.1526
X9.1358Y-4.2549
X9.1644Y-4.2825
X9.1811Y-4.4409
X9.1811Y-4.5118
X9.1811Y-4.5827
X9.1841Y-4.1634
X9.1919Y-5.0502
X9.1919Y-5.1516
X9.2057Y-5.376
X9.2185Y-4.128
X9.248Y-4.4409
X9.248Y-4.5118
X9.248Y-4.5827
X9.251Y-4.1644
X9.2628Y-4.0325
X9.2904Y-5.376
X9.2963Y-3.9961
X9.3081Y-4.7825
X9.315Y-4.4409
X9.315Y-4.5118
X9.3189Y-5.2402
X9.3297Y-4.0315
X9.3346Y-4.7589
X9.3346Y-4.8063
X9.3366Y-5.7293
X9.3642Y-5.2362
X9.3701Y-5.7648
X9.3937Y-5.2618
X9.4055Y-5.7283
X9.4774Y-5.2047
X9.4783Y-5.4124
X9.5028Y-4.4075
X9.5059Y-5.1732
X9.5069Y-5.4429
X9.5079Y-5.2313
X9.5079Y-5.3829
X9.5531Y-4.4075
X9.6349Y-4.4804
X9.7164Y-4.4781
T2
X7.2982Y-5.7087
X7.3285Y-5.6356
X7.3285Y-5.7817
X7.4016Y-5.6053
X7.4016Y-5.812
X7.4747Y-5.6356
X7.4747Y-5.7817
X7.5049Y-5.7087
X9.5423Y-5.7087
X9.5726Y-5.6356
X9.5726Y-5.7817
X9.6457Y-5.6053
X9.6457Y-5.812
X9.7187Y-5.6356
X9.7187Y-5.7817
X9.749Y-5.7087
X9.5423Y-4.0945
X9.5726Y-4.0214
X9.5726Y-4.1676
X9.6457Y-3.9911
X9.6457Y-4.1978
X9.7187Y-4.0214
X9.7187Y-4.1676
X9.749Y-4.0945
X7.2982Y-4.0945
X7.3285Y-4.0214
X7.3285Y-4.1676
X7.4016Y-3.9911
X7.4016Y-4.1978
X7.4747Y-4.0214
X7.4747Y-4.1676
X7.5049Y-4.0945
T4
X9.6772Y-4.4331
X9.6772Y-4.6299
T5
X9.7205Y-5.2835
X9.7205Y-5.3835
X9.5906Y-4.9173
X9.5906Y-5.0173
X8.7465Y-4.0709
X8.8465Y-4.0709
X8.9465Y-4.0709
X8.4496Y-5.5984
X8.5041Y-5.7102
X8.5587Y-5.5984
X8.6132Y-5.7102
X8.6677Y-5.5984
X8.7222Y-5.7102
X8.7768Y-5.5984
X8.8313Y-5.7102
X8.8858Y-5.5984
T6
X8.6331Y-4.9929
X8.6331Y-5.0929
X8.6331Y-5.1929
X8.6331Y-5.2929
X8.7331Y-4.9929
X8.7331Y-5.0929
X8.7331Y-5.1929
X8.7331Y-5.2929
T7
X8.0945Y-4.1004
X8.0945Y-4.2776
X8.5866Y-4.1004
X8.5866Y-4.2776
T8
X8.3406Y-4.0118
X8.3406Y-4.3661
T9
X8.1756Y-5.6102
X9.1598Y-5.6102
T10
X9.6457Y-5.7087
X9.6457Y-4.0945
X7.4016Y-4.0945
X7.4016Y-5.7087
T3
G00X9.7697Y-4.3937
M15
G01X9.7972Y-4.3937
M16
G05
G00X9.7972Y-4.6693
M15
G01X9.7697Y-4.6693
M16
G05
T0
M30
